<?xml version="1.0" encoding="utf-8"?>
<!-- Generator: Adobe Illustrator 22.0.1, SVG Export Plug-In . SVG Version: 6.00 Build 0)  -->
<svg version="1.1" id="Layer_1" xmlns="http://www.w3.org/2000/svg" xmlns:xlink="http://www.w3.org/1999/xlink" x="0px" y="0px"
	 viewBox="0 0 950 400" style="enable-background:new 0 0 950 400;" xml:space="preserve">
<style type="text/css">
	.st0{fill:#C6C6CC;}
	.st1{fill:#00395F;}
	.st2{fill:#88888D;}
	.st3{fill:#007AFF;}
	.st4{fill:#FFCC05;}
	.st5{fill:#D93642;}
	.st6{fill:#8F8F94;}
	.st7{fill:#F2F2F2;}
	.st8{fill:#F7F7F7;}
	.st9{fill:#E2231A;}
	.st10{fill:#4D4D4D;stroke:#FFFFFF;stroke-width:2;stroke-miterlimit:10;}
	.st11{fill:#C6C4C4;}
</style>
<g>
	<path class="st9" d="M65,167.1c0.4,0.5,1,1.2,1.6,2.1c0.7,0.9,1.3,1.8,2,2.9c0.7,1.1,1.4,2.2,2.1,3.3c0.7,1.1,1.3,2.3,1.7,3.3h-4.2
		c-0.5-1-1.1-2-1.7-3.1c-0.6-1-1.3-2-1.9-3c-0.6-0.9-1.3-1.8-1.9-2.7c-0.6-0.8-1.2-1.5-1.7-2.2c-0.3,0-0.7,0-1.1,0
		c-0.4,0-0.7,0-1.1,0h-3.5v10.8h-3.9v-27.3c1.1-0.3,2.3-0.4,3.7-0.5c1.3-0.1,2.6-0.1,3.7-0.1c3.9,0,6.9,0.7,8.9,2.2
		c2,1.5,3.1,3.7,3.1,6.6c0,1.8-0.5,3.4-1.5,4.7C68.3,165.5,66.9,166.5,65,167.1z M59.1,154.1c-1.7,0-2.9,0-3.8,0.1v10.4h2.8
		c1.3,0,2.5-0.1,3.6-0.2c1.1-0.1,2-0.4,2.7-0.8c0.7-0.4,1.3-0.9,1.7-1.6c0.4-0.7,0.6-1.6,0.6-2.7c0-1-0.2-1.9-0.6-2.6
		c-0.4-0.7-0.9-1.2-1.6-1.6s-1.5-0.7-2.4-0.8C61.2,154.2,60.2,154.1,59.1,154.1z"/>
	<path class="st9" d="M76.6,178.7V151h16.9v3.3h-13v8.2h11.6v3.2H80.5v9.6h14v3.3H76.6z"/>
	<path class="st9" d="M122.2,164.9c0,2.4-0.4,4.5-1.1,6.3c-0.7,1.8-1.8,3.2-3.2,4.4c-1.4,1.2-3,2-4.9,2.6c-1.9,0.6-4,0.9-6.2,0.9
		c-1.1,0-2.4,0-3.7-0.1c-1.3-0.1-2.6-0.3-3.7-0.5v-26.9c1.1-0.3,2.3-0.4,3.7-0.5c1.3-0.1,2.6-0.1,3.7-0.1c2.3,0,4.3,0.3,6.2,0.9
		c1.9,0.6,3.5,1.4,4.9,2.6s2.4,2.6,3.2,4.4C121.8,160.4,122.2,162.5,122.2,164.9z M107.1,175.6c3.7,0,6.4-0.9,8.2-2.8
		c1.8-1.9,2.7-4.5,2.7-7.9c0-3.4-0.9-6-2.7-7.9c-1.8-1.9-4.6-2.8-8.2-2.8c-1.1,0-1.9,0-2.5,0c-0.6,0-1,0.1-1.3,0.1v21.2
		c0.2,0,0.7,0.1,1.3,0.1C105.2,175.6,106,175.6,107.1,175.6z"/>
	<path class="st9" d="M25.7,226.7c-0.5-1.2-0.9-2.4-1.3-3.5c-0.4-1.2-0.8-2.3-1.2-3.5H10.7l-2.5,7.1h-4c1.1-2.9,2.1-5.6,3-8.1
		c0.9-2.5,1.8-4.9,2.7-7.1c0.9-2.2,1.8-4.4,2.7-6.4s1.8-4.1,2.8-6.1h3.6c1,2,1.9,4,2.8,6.1s1.8,4.2,2.7,6.4c0.9,2.2,1.8,4.6,2.7,7.1
		c0.9,2.5,1.9,5.2,3,8.1H25.7z M22.1,216.5c-0.9-2.3-1.7-4.6-2.5-6.7c-0.8-2.2-1.7-4.3-2.6-6.3c-0.9,2-1.8,4.1-2.7,6.3
		c-0.8,2.2-1.7,4.4-2.5,6.7H22.1z"/>
	<path class="st9" d="M42,227.2c-1.7,0-3.2-0.3-4.4-0.8c-1.3-0.5-2.3-1.3-3.2-2.2c-0.9-1-1.5-2.1-1.9-3.4s-0.6-2.8-0.6-4.4
		s0.2-3.1,0.7-4.4c0.5-1.3,1.1-2.5,2-3.5c0.9-1,1.9-1.7,3.1-2.3c1.2-0.5,2.6-0.8,4.1-0.8c0.9,0,1.9,0.1,2.8,0.2s1.8,0.4,2.7,0.8
		l-0.8,3.2c-0.6-0.3-1.2-0.5-1.9-0.6c-0.7-0.2-1.5-0.2-2.3-0.2c-2.1,0-3.7,0.7-4.8,2c-1.1,1.3-1.7,3.2-1.7,5.7
		c0,1.1,0.1,2.1,0.4,3.1c0.3,0.9,0.7,1.7,1.2,2.4c0.5,0.7,1.2,1.2,2.1,1.5c0.9,0.4,1.9,0.5,3.1,0.5c1,0,1.9-0.1,2.7-0.3
		c0.8-0.2,1.4-0.4,1.9-0.6l0.5,3.1c-0.2,0.1-0.5,0.3-0.9,0.4c-0.4,0.1-0.9,0.2-1.4,0.3c-0.5,0.1-1,0.2-1.6,0.2
		C43.1,227.2,42.5,227.2,42,227.2z"/>
	<path class="st9" d="M58.3,205.4c1.5,0,2.8,0.2,3.8,0.6c1,0.4,1.9,0.9,2.5,1.6c0.6,0.7,1.1,1.5,1.3,2.5c0.3,1,0.4,2,0.4,3.2v13
		c-0.3,0.1-0.8,0.1-1.3,0.2c-0.6,0.1-1.2,0.2-1.9,0.3c-0.7,0.1-1.5,0.2-2.3,0.2c-0.8,0.1-1.7,0.1-2.5,0.1c-1.2,0-2.3-0.1-3.2-0.4
		c-1-0.2-1.8-0.6-2.6-1.1s-1.3-1.2-1.7-2.1c-0.4-0.9-0.6-1.9-0.6-3.1c0-1.1,0.2-2.1,0.7-3c0.5-0.8,1.1-1.5,1.9-2
		c0.8-0.5,1.7-0.9,2.8-1.1c1.1-0.2,2.2-0.4,3.4-0.4c0.4,0,0.8,0,1.2,0.1c0.4,0,0.8,0.1,1.1,0.2c0.4,0.1,0.7,0.1,0.9,0.2
		c0.3,0.1,0.5,0.1,0.6,0.1v-1c0-0.6-0.1-1.2-0.2-1.8c-0.1-0.6-0.4-1.1-0.7-1.6c-0.3-0.5-0.8-0.8-1.4-1.1c-0.6-0.3-1.4-0.4-2.3-0.4
		c-1.2,0-2.3,0.1-3.2,0.3c-0.9,0.2-1.6,0.4-2.1,0.5l-0.4-3.1c0.5-0.2,1.3-0.4,2.4-0.6S57,205.4,58.3,205.4z M58.6,224.1
		c0.9,0,1.7,0,2.3-0.1c0.7,0,1.2-0.1,1.7-0.2v-6.2c-0.3-0.1-0.7-0.2-1.3-0.3c-0.6-0.1-1.3-0.1-2.2-0.1c-0.6,0-1.2,0-1.8,0.1
		c-0.6,0.1-1.2,0.2-1.7,0.5c-0.5,0.3-1,0.6-1.3,1s-0.5,1-0.5,1.7c0,1.3,0.4,2.3,1.3,2.8S57.1,224.1,58.6,224.1z"/>
	<path class="st9" d="M85.9,196.3l3.7-0.6v30.4c-0.9,0.2-1.9,0.5-3.3,0.7c-1.3,0.2-2.9,0.4-4.6,0.4c-1.6,0-3-0.3-4.3-0.8
		c-1.3-0.5-2.4-1.2-3.3-2.2c-0.9-0.9-1.6-2.1-2.1-3.4c-0.5-1.3-0.7-2.9-0.7-4.5c0-1.6,0.2-3.1,0.6-4.4c0.4-1.3,1-2.5,1.8-3.4
		c0.8-1,1.8-1.7,2.9-2.2c1.2-0.5,2.5-0.8,4-0.8c1.2,0,2.3,0.2,3.2,0.5c0.9,0.3,1.6,0.6,2.1,0.9V196.3z M85.9,210.3
		c-0.5-0.4-1.1-0.7-2-1.1c-0.9-0.3-1.8-0.5-2.8-0.5c-1.1,0-2,0.2-2.7,0.6c-0.8,0.4-1.4,0.9-1.9,1.6c-0.5,0.7-0.8,1.5-1,2.4
		c-0.2,0.9-0.3,1.9-0.3,3c0,2.4,0.6,4.3,1.8,5.6c1.2,1.3,2.8,2,4.8,2c1,0,1.9,0,2.5-0.1c0.7-0.1,1.2-0.2,1.6-0.3V210.3z"/>
	<path class="st9" d="M94.9,216.4c0-1.8,0.3-3.4,0.8-4.8c0.5-1.4,1.2-2.5,2.1-3.4c0.9-0.9,1.9-1.6,3-2c1.1-0.5,2.3-0.7,3.5-0.7
		c2.8,0,4.9,0.9,6.4,2.6c1.5,1.7,2.2,4.4,2.2,8c0,0.2,0,0.4,0,0.6c0,0.3,0,0.5,0,0.7H98.7c0.2,2.2,0.8,3.8,1.9,4.9s2.8,1.7,5.1,1.7
		c1.3,0,2.4-0.1,3.3-0.3c0.9-0.2,1.6-0.4,2-0.7l0.5,3.1c-0.5,0.2-1.2,0.5-2.4,0.8c-1.1,0.3-2.4,0.4-3.9,0.4c-1.8,0-3.4-0.3-4.7-0.8
		c-1.3-0.5-2.4-1.3-3.3-2.3s-1.5-2.1-1.9-3.4C95.1,219.4,94.9,217.9,94.9,216.4z M109.1,214.3c0-1.7-0.4-3.1-1.3-4.1
		s-2.1-1.6-3.6-1.6c-0.9,0-1.6,0.2-2.3,0.5c-0.7,0.3-1.2,0.8-1.7,1.3c-0.5,0.5-0.8,1.1-1.1,1.8c-0.3,0.7-0.4,1.4-0.5,2.1H109.1z"/>
	<path class="st9" d="M118.4,206.5c0.9-0.2,2-0.4,3.4-0.7c1.4-0.2,3-0.4,4.9-0.4c1.3,0,2.5,0.2,3.4,0.5c0.9,0.4,1.7,0.9,2.3,1.6
		c0.2-0.1,0.5-0.3,0.9-0.6c0.4-0.2,0.9-0.5,1.5-0.7c0.6-0.2,1.2-0.4,2-0.6c0.7-0.2,1.5-0.3,2.3-0.3c1.6,0,2.9,0.2,3.9,0.7
		c1,0.5,1.8,1.1,2.4,2c0.6,0.9,1,1.9,1.2,3c0.2,1.2,0.3,2.5,0.3,3.8v11.7h-3.7v-10.9c0-1.2-0.1-2.3-0.2-3.2s-0.3-1.6-0.7-2.2
		c-0.3-0.6-0.8-1-1.4-1.3c-0.6-0.3-1.3-0.4-2.2-0.4c-1.3,0-2.3,0.2-3.1,0.5c-0.8,0.3-1.4,0.6-1.7,0.9c0.2,0.7,0.4,1.5,0.5,2.3
		s0.2,1.7,0.2,2.6v11.7h-3.7v-10.9c0-1.2-0.1-2.3-0.2-3.2c-0.1-0.9-0.4-1.6-0.7-2.2c-0.3-0.6-0.8-1-1.4-1.3
		c-0.6-0.3-1.3-0.4-2.2-0.4c-0.4,0-0.8,0-1.2,0c-0.4,0-0.8,0.1-1.2,0.1c-0.4,0-0.7,0.1-1.1,0.1c-0.3,0.1-0.5,0.1-0.6,0.1v17.6h-3.7
		V206.5z"/>
	<path class="st9" d="M149.7,230.6c0.3,0.1,0.7,0.3,1.1,0.4c0.5,0.1,0.9,0.2,1.4,0.2c1.5,0,2.6-0.3,3.4-1c0.8-0.7,1.6-1.7,2.2-3.2
		c-1.7-3.2-3.2-6.6-4.7-10.2c-1.5-3.6-2.7-7.2-3.6-10.9h4c0.3,1.2,0.6,2.5,1.1,3.9c0.4,1.4,0.9,2.8,1.4,4.3c0.5,1.5,1.1,2.9,1.6,4.4
		c0.6,1.5,1.2,2.9,1.8,4.2c1-2.8,1.9-5.6,2.6-8.3c0.7-2.7,1.5-5.6,2.1-8.5h3.8c-1,3.9-2,7.7-3.2,11.3c-1.2,3.6-2.4,7-3.8,10.1
		c-0.5,1.2-1.1,2.2-1.7,3.1c-0.6,0.9-1.2,1.6-1.9,2.1s-1.5,1-2.3,1.2c-0.9,0.3-1.8,0.4-2.9,0.4c-0.3,0-0.6,0-0.9-0.1
		c-0.3,0-0.6-0.1-0.9-0.2c-0.3-0.1-0.6-0.1-0.8-0.2c-0.3-0.1-0.4-0.1-0.5-0.2L149.7,230.6z"/>
</g>
<g>
	<path class="st10" d="M264.1,190.4h14.2v-15.6h4.2v15.6h14.2v4h-14.2v15.7h-4.2v-15.7h-14.2V190.4z"/>
</g>
<g>
	<path class="st11" d="M381.6,162.4c1.5,0,2.8,0.2,3.8,0.6c1,0.4,1.9,0.9,2.5,1.6c0.6,0.7,1.1,1.5,1.3,2.5c0.3,1,0.4,2,0.4,3.2v13
		c-0.3,0.1-0.8,0.1-1.3,0.2c-0.6,0.1-1.2,0.2-1.9,0.3c-0.7,0.1-1.5,0.2-2.3,0.2c-0.8,0.1-1.7,0.1-2.5,0.1c-1.2,0-2.3-0.1-3.2-0.4
		c-1-0.2-1.8-0.6-2.6-1.1s-1.3-1.2-1.7-2.1c-0.4-0.9-0.6-1.9-0.6-3.1c0-1.1,0.2-2.1,0.7-3c0.5-0.8,1.1-1.5,1.9-2
		c0.8-0.5,1.7-0.9,2.8-1.1c1.1-0.2,2.2-0.4,3.4-0.4c0.4,0,0.8,0,1.2,0.1c0.4,0,0.8,0.1,1.1,0.2c0.4,0.1,0.7,0.1,0.9,0.2
		c0.3,0.1,0.5,0.1,0.6,0.1v-1c0-0.6-0.1-1.2-0.2-1.8c-0.1-0.6-0.4-1.1-0.7-1.6c-0.3-0.5-0.8-0.8-1.4-1.1c-0.6-0.3-1.4-0.4-2.3-0.4
		c-1.2,0-2.3,0.1-3.2,0.3c-0.9,0.2-1.6,0.4-2.1,0.5l-0.4-3.1c0.5-0.2,1.3-0.4,2.4-0.6S380.3,162.4,381.6,162.4z M381.9,181
		c0.9,0,1.7,0,2.3-0.1c0.7,0,1.2-0.1,1.7-0.2v-6.2c-0.3-0.1-0.7-0.2-1.3-0.3c-0.6-0.1-1.3-0.1-2.2-0.1c-0.6,0-1.2,0-1.8,0.1
		c-0.6,0.1-1.2,0.2-1.7,0.5c-0.5,0.3-1,0.6-1.3,1s-0.5,1-0.5,1.7c0,1.3,0.4,2.3,1.3,2.8S380.4,181,381.9,181z"/>
	<path class="st11" d="M399.2,162.9h7.9v3.1h-7.9v9.6c0,1,0.1,1.9,0.2,2.6s0.4,1.2,0.7,1.6c0.3,0.4,0.7,0.7,1.2,0.8
		c0.5,0.2,1,0.2,1.7,0.2c1.1,0,2-0.1,2.7-0.4c0.7-0.3,1.2-0.4,1.4-0.5l0.7,3.1c-0.4,0.2-1,0.4-2,0.7c-0.9,0.3-2,0.4-3.2,0.4
		c-1.4,0-2.6-0.2-3.5-0.5s-1.7-0.9-2.2-1.6c-0.6-0.7-1-1.6-1.2-2.7c-0.2-1.1-0.3-2.3-0.3-3.7v-18.6l3.7-0.6V162.9z"/>
	<path class="st11" d="M415.3,162.9h7.9v3.1h-7.9v9.6c0,1,0.1,1.9,0.2,2.6s0.4,1.2,0.7,1.6c0.3,0.4,0.7,0.7,1.2,0.8
		c0.5,0.2,1,0.2,1.7,0.2c1.1,0,2-0.1,2.7-0.4c0.7-0.3,1.2-0.4,1.4-0.5l0.7,3.1c-0.4,0.2-1,0.4-2,0.7c-0.9,0.3-2,0.4-3.2,0.4
		c-1.4,0-2.6-0.2-3.5-0.5s-1.7-0.9-2.2-1.6c-0.6-0.7-1-1.6-1.2-2.7c-0.2-1.1-0.3-2.3-0.3-3.7v-18.6l3.7-0.6V162.9z"/>
	<path class="st11" d="M426.3,173.4c0-1.8,0.3-3.4,0.8-4.8c0.5-1.4,1.2-2.5,2.1-3.4c0.9-0.9,1.9-1.6,3-2c1.1-0.5,2.3-0.7,3.5-0.7
		c2.8,0,4.9,0.9,6.4,2.6c1.5,1.7,2.2,4.4,2.2,8c0,0.2,0,0.4,0,0.6c0,0.3,0,0.5,0,0.7h-14.2c0.2,2.2,0.8,3.8,1.9,4.9s2.8,1.7,5.1,1.7
		c1.3,0,2.4-0.1,3.3-0.3c0.9-0.2,1.6-0.4,2-0.7l0.5,3.1c-0.5,0.2-1.2,0.5-2.4,0.8c-1.1,0.3-2.4,0.4-3.9,0.4c-1.8,0-3.4-0.3-4.7-0.8
		c-1.3-0.5-2.4-1.3-3.3-2.3s-1.5-2.1-1.9-3.4C426.6,176.4,426.3,174.9,426.3,173.4z M440.6,171.3c0-1.7-0.4-3.1-1.3-4.1
		s-2.1-1.6-3.6-1.6c-0.9,0-1.6,0.2-2.3,0.5c-0.7,0.3-1.2,0.8-1.7,1.3c-0.5,0.5-0.8,1.1-1.1,1.8c-0.3,0.7-0.4,1.4-0.5,2.1H440.6z"/>
	<path class="st11" d="M449.9,163.5c0.9-0.2,2-0.4,3.4-0.7c1.4-0.2,3-0.4,4.9-0.4c1.7,0,3,0.2,4.1,0.7c1.1,0.5,2,1.1,2.6,2
		s1.1,1.8,1.4,3c0.3,1.2,0.4,2.5,0.4,3.9v11.7h-3.7v-10.9c0-1.3-0.1-2.4-0.3-3.3c-0.2-0.9-0.5-1.6-0.9-2.2c-0.4-0.6-0.9-1-1.6-1.2
		c-0.7-0.3-1.5-0.4-2.5-0.4c-0.4,0-0.8,0-1.2,0c-0.4,0-0.8,0.1-1.2,0.1c-0.4,0-0.7,0.1-1,0.1c-0.3,0.1-0.5,0.1-0.7,0.1v17.6h-3.7
		V163.5z"/>
	<path class="st11" d="M486.3,153.3l3.7-0.6v30.4c-0.9,0.2-1.9,0.5-3.3,0.7c-1.3,0.2-2.9,0.4-4.6,0.4c-1.6,0-3-0.3-4.3-0.8
		c-1.3-0.5-2.4-1.2-3.3-2.2c-0.9-0.9-1.6-2.1-2.1-3.4c-0.5-1.3-0.7-2.9-0.7-4.5c0-1.6,0.2-3.1,0.6-4.4c0.4-1.3,1-2.5,1.8-3.4
		c0.8-1,1.8-1.7,2.9-2.2c1.2-0.5,2.5-0.8,4-0.8c1.2,0,2.3,0.2,3.2,0.5c0.9,0.3,1.6,0.6,2.1,0.9V153.3z M486.3,167.3
		c-0.5-0.4-1.1-0.7-2-1.1c-0.9-0.3-1.8-0.5-2.8-0.5c-1.1,0-2,0.2-2.7,0.6c-0.8,0.4-1.4,0.9-1.9,1.6c-0.5,0.7-0.8,1.5-1,2.4
		c-0.2,0.9-0.3,1.9-0.3,3c0,2.4,0.6,4.3,1.8,5.6c1.2,1.3,2.8,2,4.8,2c1,0,1.9,0,2.5-0.1c0.7-0.1,1.2-0.2,1.6-0.3V167.3z"/>
	<path class="st11" d="M503.1,162.4c1.5,0,2.8,0.2,3.8,0.6c1,0.4,1.9,0.9,2.5,1.6c0.6,0.7,1.1,1.5,1.3,2.5c0.3,1,0.4,2,0.4,3.2v13
		c-0.3,0.1-0.8,0.1-1.3,0.2c-0.6,0.1-1.2,0.2-1.9,0.3c-0.7,0.1-1.5,0.2-2.3,0.2c-0.8,0.1-1.7,0.1-2.5,0.1c-1.2,0-2.3-0.1-3.2-0.4
		c-1-0.2-1.8-0.6-2.6-1.1s-1.3-1.2-1.7-2.1c-0.4-0.9-0.6-1.9-0.6-3.1c0-1.1,0.2-2.1,0.7-3c0.5-0.8,1.1-1.5,1.9-2
		c0.8-0.5,1.7-0.9,2.8-1.1c1.1-0.2,2.2-0.4,3.4-0.4c0.4,0,0.8,0,1.2,0.1c0.4,0,0.8,0.1,1.1,0.2c0.4,0.1,0.7,0.1,0.9,0.2
		c0.3,0.1,0.5,0.1,0.6,0.1v-1c0-0.6-0.1-1.2-0.2-1.8c-0.1-0.6-0.4-1.1-0.7-1.6c-0.3-0.5-0.8-0.8-1.4-1.1c-0.6-0.3-1.4-0.4-2.3-0.4
		c-1.2,0-2.3,0.1-3.2,0.3c-0.9,0.2-1.6,0.4-2.1,0.5l-0.4-3.1c0.5-0.2,1.3-0.4,2.4-0.6S501.8,162.4,503.1,162.4z M503.4,181
		c0.9,0,1.7,0,2.3-0.1c0.7,0,1.2-0.1,1.7-0.2v-6.2c-0.3-0.1-0.7-0.2-1.3-0.3c-0.6-0.1-1.3-0.1-2.2-0.1c-0.6,0-1.2,0-1.8,0.1
		c-0.6,0.1-1.2,0.2-1.7,0.5c-0.5,0.3-1,0.6-1.3,1s-0.5,1-0.5,1.7c0,1.3,0.4,2.3,1.3,2.8S502,181,503.4,181z"/>
	<path class="st11" d="M517.3,163.5c0.9-0.2,2-0.4,3.4-0.7c1.4-0.2,3-0.4,4.9-0.4c1.7,0,3,0.2,4.1,0.7c1.1,0.5,2,1.1,2.6,2
		s1.1,1.8,1.4,3c0.3,1.2,0.4,2.5,0.4,3.9v11.7h-3.7v-10.9c0-1.3-0.1-2.4-0.3-3.3c-0.2-0.9-0.5-1.6-0.9-2.2c-0.4-0.6-0.9-1-1.6-1.2
		c-0.7-0.3-1.5-0.4-2.5-0.4c-0.4,0-0.8,0-1.2,0c-0.4,0-0.8,0.1-1.2,0.1c-0.4,0-0.7,0.1-1,0.1c-0.3,0.1-0.5,0.1-0.7,0.1v17.6h-3.7
		V163.5z"/>
	<path class="st11" d="M549.3,184.2c-1.7,0-3.2-0.3-4.4-0.8c-1.3-0.5-2.3-1.3-3.2-2.2c-0.9-1-1.5-2.1-1.9-3.4s-0.6-2.8-0.6-4.4
		s0.2-3.1,0.7-4.4c0.5-1.3,1.1-2.5,2-3.5c0.9-1,1.9-1.7,3.1-2.3c1.2-0.5,2.6-0.8,4.1-0.8c0.9,0,1.9,0.1,2.8,0.2s1.8,0.4,2.7,0.8
		l-0.8,3.2c-0.6-0.3-1.2-0.5-1.9-0.6c-0.7-0.2-1.5-0.2-2.3-0.2c-2.1,0-3.7,0.7-4.8,2c-1.1,1.3-1.7,3.2-1.7,5.7
		c0,1.1,0.1,2.1,0.4,3.1c0.3,0.9,0.7,1.7,1.2,2.4c0.5,0.7,1.2,1.2,2.1,1.5c0.9,0.4,1.9,0.5,3.1,0.5c1,0,1.9-0.1,2.7-0.3
		c0.8-0.2,1.4-0.4,1.9-0.6l0.5,3.1c-0.2,0.1-0.5,0.3-0.9,0.4c-0.4,0.1-0.9,0.2-1.4,0.3c-0.5,0.1-1,0.2-1.6,0.2
		C550.4,184.2,549.8,184.2,549.3,184.2z"/>
	<path class="st11" d="M557.7,173.4c0-1.8,0.3-3.4,0.8-4.8c0.5-1.4,1.2-2.5,2.1-3.4c0.9-0.9,1.9-1.6,3-2c1.1-0.5,2.3-0.7,3.5-0.7
		c2.8,0,4.9,0.9,6.4,2.6c1.5,1.7,2.2,4.4,2.2,8c0,0.2,0,0.4,0,0.6c0,0.3,0,0.5,0,0.7h-14.2c0.2,2.2,0.8,3.8,1.9,4.9s2.8,1.7,5.1,1.7
		c1.3,0,2.4-0.1,3.3-0.3c0.9-0.2,1.6-0.4,2-0.7l0.5,3.1c-0.5,0.2-1.2,0.5-2.4,0.8c-1.1,0.3-2.4,0.4-3.9,0.4c-1.8,0-3.4-0.3-4.7-0.8
		c-1.3-0.5-2.4-1.3-3.3-2.3s-1.5-2.1-1.9-3.4C557.9,176.4,557.7,174.9,557.7,173.4z M571.9,171.3c0-1.7-0.4-3.1-1.3-4.1
		s-2.1-1.6-3.6-1.6c-0.9,0-1.6,0.2-2.3,0.5c-0.7,0.3-1.2,0.8-1.7,1.3c-0.5,0.5-0.8,1.1-1.1,1.8c-0.3,0.7-0.4,1.4-0.5,2.1H571.9z"/>
	<path class="st11" d="M426.8,217.8c0-4.6,0.8-8.2,2.5-10.7c1.6-2.5,3.9-3.8,6.8-3.8c2.9,0,5.2,1.3,6.8,3.8
		c1.6,2.5,2.5,6.1,2.5,10.7c0,4.6-0.8,8.2-2.5,10.7c-1.6,2.5-3.9,3.8-6.8,3.8c-2.9,0-5.2-1.3-6.8-3.8
		C427.6,226,426.8,222.5,426.8,217.8z M441.4,217.8c0-1.5-0.1-3-0.3-4.3c-0.2-1.4-0.5-2.5-0.9-3.6c-0.4-1-1-1.8-1.7-2.4
		c-0.7-0.6-1.5-0.9-2.6-0.9c-1,0-1.9,0.3-2.6,0.9c-0.7,0.6-1.2,1.4-1.7,2.4c-0.4,1-0.7,2.2-0.9,3.6c-0.2,1.4-0.3,2.8-0.3,4.3
		s0.1,3,0.3,4.3s0.5,2.5,0.9,3.6c0.4,1,1,1.8,1.7,2.4s1.5,0.9,2.6,0.9c1,0,1.9-0.3,2.6-0.9s1.2-1.4,1.7-2.4c0.4-1,0.7-2.2,0.9-3.6
		C441.3,220.8,441.4,219.4,441.4,217.8z"/>
	<path class="st11" d="M449.3,217.8c0-4.6,0.8-8.2,2.5-10.7c1.6-2.5,3.9-3.8,6.8-3.8c2.9,0,5.2,1.3,6.8,3.8
		c1.6,2.5,2.5,6.1,2.5,10.7c0,4.6-0.8,8.2-2.5,10.7c-1.6,2.5-3.9,3.8-6.8,3.8c-2.9,0-5.2-1.3-6.8-3.8
		C450.2,226,449.3,222.5,449.3,217.8z M464,217.8c0-1.5-0.1-3-0.3-4.3c-0.2-1.4-0.5-2.5-0.9-3.6c-0.4-1-1-1.8-1.7-2.4
		c-0.7-0.6-1.5-0.9-2.6-0.9c-1,0-1.9,0.3-2.6,0.9c-0.7,0.6-1.2,1.4-1.7,2.4c-0.4,1-0.7,2.2-0.9,3.6c-0.2,1.4-0.3,2.8-0.3,4.3
		s0.1,3,0.3,4.3s0.5,2.5,0.9,3.6c0.4,1,1,1.8,1.7,2.4s1.5,0.9,2.6,0.9c1,0,1.9-0.3,2.6-0.9s1.2-1.4,1.7-2.4c0.4-1,0.7-2.2,0.9-3.6
		C463.9,220.8,464,219.4,464,217.8z"/>
	<path class="st11" d="M477.5,213.6c0,0.7-0.2,1.3-0.7,1.9c-0.5,0.5-1.1,0.8-2,0.8c-0.8,0-1.5-0.3-2-0.8c-0.5-0.5-0.7-1.2-0.7-1.9
		c0-0.7,0.2-1.3,0.7-1.9c0.5-0.5,1.1-0.8,2-0.8c0.8,0,1.5,0.3,2,0.8C477.3,212.2,477.5,212.9,477.5,213.6z M477.5,229.6
		c0,0.7-0.2,1.3-0.7,1.9c-0.5,0.5-1.1,0.8-2,0.8c-0.8,0-1.5-0.3-2-0.8c-0.5-0.5-0.7-1.2-0.7-1.9c0-0.7,0.2-1.3,0.7-1.9
		c0.5-0.5,1.1-0.8,2-0.8c0.8,0,1.5,0.3,2,0.8C477.3,228.2,477.5,228.8,477.5,229.6z"/>
	<path class="st11" d="M481.7,217.8c0-4.6,0.8-8.2,2.5-10.7c1.6-2.5,3.9-3.8,6.8-3.8c2.9,0,5.2,1.3,6.8,3.8
		c1.6,2.5,2.5,6.1,2.5,10.7c0,4.6-0.8,8.2-2.5,10.7c-1.6,2.5-3.9,3.8-6.8,3.8c-2.9,0-5.2-1.3-6.8-3.8
		C482.6,226,481.7,222.5,481.7,217.8z M496.4,217.8c0-1.5-0.1-3-0.3-4.3c-0.2-1.4-0.5-2.5-0.9-3.6c-0.4-1-1-1.8-1.7-2.4
		c-0.7-0.6-1.5-0.9-2.6-0.9c-1,0-1.9,0.3-2.6,0.9c-0.7,0.6-1.2,1.4-1.7,2.4c-0.4,1-0.7,2.2-0.9,3.6c-0.2,1.4-0.3,2.8-0.3,4.3
		s0.1,3,0.3,4.3s0.5,2.5,0.9,3.6c0.4,1,1,1.8,1.7,2.4s1.5,0.9,2.6,0.9c1,0,1.9-0.3,2.6-0.9s1.2-1.4,1.7-2.4c0.4-1,0.7-2.2,0.9-3.6
		C496.3,220.8,496.4,219.4,496.4,217.8z"/>
	<path class="st11" d="M504.3,217.8c0-4.6,0.8-8.2,2.5-10.7c1.6-2.5,3.9-3.8,6.8-3.8c2.9,0,5.2,1.3,6.8,3.8
		c1.6,2.5,2.5,6.1,2.5,10.7c0,4.6-0.8,8.2-2.5,10.7c-1.6,2.5-3.9,3.8-6.8,3.8c-2.9,0-5.2-1.3-6.8-3.8
		C505.1,226,504.3,222.5,504.3,217.8z M518.9,217.8c0-1.5-0.1-3-0.3-4.3c-0.2-1.4-0.5-2.5-0.9-3.6c-0.4-1-1-1.8-1.7-2.4
		c-0.7-0.6-1.5-0.9-2.6-0.9c-1,0-1.9,0.3-2.6,0.9c-0.7,0.6-1.2,1.4-1.7,2.4c-0.4,1-0.7,2.2-0.9,3.6c-0.2,1.4-0.3,2.8-0.3,4.3
		s0.1,3,0.3,4.3s0.5,2.5,0.9,3.6c0.4,1,1,1.8,1.7,2.4s1.5,0.9,2.6,0.9c1,0,1.9-0.3,2.6-0.9s1.2-1.4,1.7-2.4c0.4-1,0.7-2.2,0.9-3.6
		C518.9,220.8,518.9,219.4,518.9,217.8z"/>
</g>
<g>
	<path class="st9" d="M793.2,193.6c0.4,0.5,1,1.2,1.6,2.1c0.7,0.9,1.3,1.8,2,2.9c0.7,1.1,1.4,2.2,2.1,3.3c0.7,1.1,1.3,2.3,1.7,3.3
		h-4.2c-0.5-1-1.1-2-1.7-3.1c-0.6-1-1.3-2-1.9-3c-0.6-0.9-1.3-1.8-1.9-2.7c-0.6-0.8-1.2-1.5-1.7-2.2c-0.3,0-0.7,0-1.1,0
		c-0.4,0-0.7,0-1.1,0h-3.5v10.8h-3.9v-27.3c1.1-0.3,2.3-0.4,3.7-0.5c1.3-0.1,2.6-0.1,3.7-0.1c3.9,0,6.9,0.7,8.9,2.2
		c2,1.5,3.1,3.7,3.1,6.6c0,1.8-0.5,3.4-1.5,4.7C796.5,192,795.1,193,793.2,193.6z M787.3,180.6c-1.7,0-2.9,0-3.8,0.1v10.4h2.8
		c1.3,0,2.5-0.1,3.6-0.2c1.1-0.1,2-0.4,2.7-0.8c0.7-0.4,1.3-0.9,1.7-1.6c0.4-0.7,0.6-1.6,0.6-2.7c0-1-0.2-1.9-0.6-2.6
		c-0.4-0.7-0.9-1.2-1.6-1.6s-1.5-0.7-2.4-0.8C789.3,180.7,788.3,180.6,787.3,180.6z"/>
	<path class="st9" d="M804.8,205.2v-27.7h16.9v3.3h-13v8.2h11.6v3.2h-11.6v9.6h14v3.3H804.8z"/>
	<path class="st9" d="M850.4,191.4c0,2.4-0.4,4.5-1.1,6.3c-0.7,1.8-1.8,3.2-3.2,4.4c-1.4,1.2-3,2-4.9,2.6c-1.9,0.6-4,0.9-6.2,0.9
		c-1.1,0-2.4,0-3.7-0.1c-1.3-0.1-2.6-0.3-3.7-0.5v-26.9c1.1-0.3,2.3-0.4,3.7-0.5c1.3-0.1,2.6-0.1,3.7-0.1c2.3,0,4.3,0.3,6.2,0.9
		c1.9,0.6,3.5,1.4,4.9,2.6s2.4,2.6,3.2,4.4C850,186.9,850.4,189,850.4,191.4z M835.3,202.1c3.7,0,6.4-0.9,8.2-2.8
		c1.8-1.9,2.7-4.5,2.7-7.9c0-3.4-0.9-6-2.7-7.9c-1.8-1.9-4.6-2.8-8.2-2.8c-1.1,0-1.9,0-2.5,0c-0.6,0-1,0.1-1.3,0.1V202
		c0.2,0,0.7,0.1,1.3,0.1C833.4,202.1,834.2,202.1,835.3,202.1z"/>
	<path class="st11" d="M854.7,194.9c0-1.8,0.3-3.4,0.8-4.8c0.5-1.4,1.2-2.5,2.1-3.4c0.9-0.9,1.9-1.6,3-2c1.1-0.5,2.3-0.7,3.5-0.7
		c2.8,0,4.9,0.9,6.4,2.6c1.5,1.7,2.2,4.4,2.2,8c0,0.2,0,0.4,0,0.6c0,0.3,0,0.5,0,0.7h-14.2c0.2,2.2,0.8,3.8,1.9,4.9s2.8,1.7,5.1,1.7
		c1.3,0,2.4-0.1,3.3-0.3c0.9-0.2,1.6-0.4,2-0.7l0.5,3.1c-0.5,0.2-1.2,0.5-2.4,0.8c-1.1,0.3-2.4,0.4-3.9,0.4c-1.8,0-3.4-0.3-4.7-0.8
		c-1.3-0.5-2.4-1.3-3.3-2.3s-1.5-2.1-1.9-3.4C854.9,197.9,854.7,196.4,854.7,194.9z M869,192.8c0-1.7-0.4-3.1-1.3-4.1
		s-2.1-1.6-3.6-1.6c-0.9,0-1.6,0.2-2.3,0.5c-0.7,0.3-1.2,0.8-1.7,1.3c-0.5,0.5-0.8,1.1-1.1,1.8c-0.3,0.7-0.4,1.4-0.5,2.1H869z"/>
	<path class="st11" d="M878.3,185c0.9-0.2,2-0.4,3.4-0.7c1.4-0.2,3-0.4,4.9-0.4c1.7,0,3,0.2,4.1,0.7c1.1,0.5,2,1.1,2.6,2
		s1.1,1.8,1.4,3c0.3,1.2,0.4,2.5,0.4,3.9v11.7h-3.7v-10.9c0-1.3-0.1-2.4-0.3-3.3c-0.2-0.9-0.5-1.6-0.9-2.2c-0.4-0.6-0.9-1-1.6-1.2
		c-0.7-0.3-1.5-0.4-2.5-0.4c-0.4,0-0.8,0-1.2,0c-0.4,0-0.8,0.1-1.2,0.1c-0.4,0-0.7,0.1-1,0.1c-0.3,0.1-0.5,0.1-0.7,0.1v17.6h-3.7
		V185z"/>
	<path class="st11" d="M905.6,187.1c0,0.7-0.2,1.3-0.7,1.9c-0.5,0.5-1.1,0.8-2,0.8c-0.8,0-1.5-0.3-2-0.8c-0.5-0.5-0.7-1.2-0.7-1.9
		c0-0.7,0.2-1.3,0.7-1.9c0.5-0.5,1.1-0.8,2-0.8c0.8,0,1.5,0.3,2,0.8C905.4,185.8,905.6,186.4,905.6,187.1z M905.6,203.1
		c0,0.7-0.2,1.3-0.7,1.9c-0.5,0.5-1.1,0.8-2,0.8c-0.8,0-1.5-0.3-2-0.8c-0.5-0.5-0.7-1.2-0.7-1.9c0-0.7,0.2-1.3,0.7-1.9
		c0.5-0.5,1.1-0.8,2-0.8c0.8,0,1.5,0.3,2,0.8C905.4,201.7,905.6,202.4,905.6,203.1z"/>
	<path class="st11" d="M920.1,205.7c-1.7,0-3.2-0.3-4.4-0.8c-1.3-0.5-2.3-1.3-3.2-2.2c-0.9-1-1.5-2.1-1.9-3.4s-0.6-2.8-0.6-4.4
		s0.2-3.1,0.7-4.4c0.5-1.3,1.1-2.5,2-3.5c0.9-1,1.9-1.7,3.1-2.3c1.2-0.5,2.6-0.8,4.1-0.8c0.9,0,1.9,0.1,2.8,0.2s1.8,0.4,2.7,0.8
		l-0.8,3.2c-0.6-0.3-1.2-0.5-1.9-0.6c-0.7-0.2-1.5-0.2-2.3-0.2c-2.1,0-3.7,0.7-4.8,2c-1.1,1.3-1.7,3.2-1.7,5.7
		c0,1.1,0.1,2.1,0.4,3.1c0.3,0.9,0.7,1.7,1.2,2.4c0.5,0.7,1.2,1.2,2.1,1.5c0.9,0.4,1.9,0.5,3.1,0.5c1,0,1.9-0.1,2.7-0.3
		c0.8-0.2,1.4-0.4,1.9-0.6l0.5,3.1c-0.2,0.1-0.5,0.3-0.9,0.4c-0.4,0.1-0.9,0.2-1.4,0.3c-0.5,0.1-1,0.2-1.6,0.2
		C921.2,205.7,920.6,205.7,920.1,205.7z"/>
	<path class="st11" d="M928.5,194.9c0-1.8,0.3-3.4,0.8-4.8c0.5-1.4,1.2-2.5,2.1-3.4c0.9-0.9,1.9-1.6,3-2c1.1-0.5,2.3-0.7,3.5-0.7
		c2.8,0,4.9,0.9,6.4,2.6c1.5,1.7,2.2,4.4,2.2,8c0,0.2,0,0.4,0,0.6c0,0.3,0,0.5,0,0.7h-14.2c0.2,2.2,0.8,3.8,1.9,4.9s2.8,1.7,5.1,1.7
		c1.3,0,2.4-0.1,3.3-0.3c0.9-0.2,1.6-0.4,2-0.7l0.5,3.1c-0.5,0.2-1.2,0.5-2.4,0.8c-1.1,0.3-2.4,0.4-3.9,0.4c-1.8,0-3.4-0.3-4.7-0.8
		c-1.3-0.5-2.4-1.3-3.3-2.3s-1.5-2.1-1.9-3.4C928.7,197.9,928.5,196.4,928.5,194.9z M942.8,192.8c0-1.7-0.4-3.1-1.3-4.1
		s-2.1-1.6-3.6-1.6c-0.9,0-1.6,0.2-2.3,0.5c-0.7,0.3-1.2,0.8-1.7,1.3c-0.5,0.5-0.8,1.1-1.1,1.8c-0.3,0.7-0.4,1.4-0.5,2.1H942.8z"/>
</g>
<g>
	<path class="st10" d="M652.6,182.9h32.5v4h-32.5V182.9z M652.6,198h32.5v4h-32.5V198z"/>
</g>
</svg>
