<?xml version="1.0" encoding="UTF-8"?>
<svg width="713px" height="448px" viewBox="0 0 713 448" version="1.1" xmlns="http://www.w3.org/2000/svg" xmlns:xlink="http://www.w3.org/1999/xlink" style="background: #FFFFFF;">
    <!-- Generator: Sketch 49 (51002) - http://www.bohemiancoding.com/sketch -->
    <title>Artboard 8</title>
    <desc>Created with Sketch.</desc>
    <defs></defs>
    <g id="Artboard-8" stroke="none" stroke-width="1" fill="none" fill-rule="evenodd">
        <g id="Group-8" transform="translate(67.000000, 56.000000)">
            <g id="Price-Tag-USD">
                <path d="M42.5168539,2.93333333 C42.5168539,1.56395556 41.4544157,0.488888889 40.1011236,0.488888889 L25.7028876,0.488888889 C24.4462247,0.488888889 23.1910112,0.3916 22.5136404,1.17235556 L0.579292135,23.3693778 C-0.0961460674,24.0528444 -0.0961460674,25.2276444 0.579292135,26.0084 L17.3932584,43.0222222 C18.0686966,43.7056889 19.2296966,43.7056889 20.0012809,43.0222222 L41.9356292,20.8276444 C42.6110674,20.1436889 42.6110674,18.8720889 42.6110674,17.6 C42.5168539,17.5027111 42.5168539,3.12791111 42.5168539,2.93333333 Z" id="Stroke-1" stroke="#424242" stroke-width="3" fill="#FFFFFF" stroke-linecap="round"></path>
                <circle id="Oval-6" fill="#F05123" cx="34.5" cy="8.5" r="2.5"></circle>
                <path d="M37.6853933,8.31111111 C37.6853933,9.93031111 36.3866966,11.2444444 34.7865169,11.2444444 C33.1863371,11.2444444 31.8876404,9.93031111 31.8876404,8.31111111 C31.8876404,6.69191111 33.1863371,5.37777778 34.7865169,5.37777778 C36.3866966,5.37777778 37.6853933,6.69191111 37.6853933,8.31111111 L37.6853933,8.31111111 Z" id="Path" stroke="#424242" stroke-width="3" stroke-linecap="round"></path>
                <path d="M22.9001573,29.4306222 C25.1235955,27.1812444 23.9630787,24.6390222 22.6097865,22.3916 C21.4507191,20.5333333 20.5810562,18.8720889 21.9338652,17.5027111 C22.5136404,16.9165333 24.1573034,15.7417333 26.1860337,17.7965333 C27.6354719,19.2632 27.4431798,20.8276444 26.5730337,22.0992444 L27.9263258,23.4686222 C28.988764,21.5130667 29.762764,19.4602222 28.118618,17.1130667 L29.6642022,15.5491111 L28.3113933,14.1797333 L26.7653258,15.7436889 C25.5086629,14.7659111 22.6097865,13.6908444 20.2921348,16.038 C15.9438202,20.438 24.5443034,24.6429333 21.258427,27.9659111 C20.0998427,29.1387556 18.6504045,29.6276444 16.5231124,27.4770222 C14.398236,25.3268889 15.4606742,23.0770222 16.3308202,22.1965333 L14.9775281,20.8276444 C12.2709438,24.0548 13.624236,26.7916 14.5905281,28.1609778 L13.237236,29.5298667 L14.5905281,30.8992444 L15.8476742,29.6276444 C17.1024045,30.5056889 20.2921348,32.1693778 22.9001573,29.4306222" id="Fill-3" fill="#424242"></path>
            </g>
        </g>
        <g id="Airplane-Take-Off" transform="translate(171.000000, 143.000000)" stroke="#424242" stroke-width="3">
            <path d="M50.4474124,3.27590476 C49.5930309,1.37080952 44.9430928,-0.884190476 39.2111134,1.65942857 C39.2111134,1.65942857 10.3861237,14.4681429 9.50492784,14.861 C8.62373196,15.2559524 7.9912268,14.8159524 7.16996907,14.2125238 C5.74039175,13.1649048 3.66831959,11.6385238 3.01898969,11.1372381 C1.99425773,10.3557143 -0.583082474,10.857 0.119350515,12.4263333 C0.819680412,13.9935714 3.00689691,18.8796667 3.83446392,20.7292381 C5.05215464,23.4446667 11.4066495,22.822381 22.4662887,17.9116667 C23.4731443,17.4638095 24.5593918,16.9829524 25.6971649,16.4774762 L22.9021546,31.2997143 C22.5425258,32.7401905 22.8916392,33.1372381 23.3679897,32.9261429 L25.0089278,32.1959524 C25.8575258,31.8193333 27.0257938,30.4794286 27.6151856,29.202381 L35.6006289,11.9905238 C43.6554742,8.24161905 50.9894845,4.48904762 50.4474124,3.27590476 Z" id="Stroke-1"></path>
            <path d="M28.0673505,6.60104762 L15.8326082,2.87466667 C14.4855773,2.46138095 12.7047835,2.431 11.8546082,2.80709524 L10.211567,3.53780952 C9.73731959,3.74838095 9.79673196,4.27219048 11.1153711,4.96990476 L19.8789588,10.2593333" id="Stroke-3" stroke-linecap="round" stroke-linejoin="round"></path>
        </g>
        <g id="Group-13" transform="translate(392.000000, 137.000000)" stroke="#424242">
            <polygon id="Path" stroke-width="3" fill="#FFFFFF" points="6.375 42.7906977 0 42.7906977 0 0 34 0 34 42.7906977 19.125 42.7906977"></polygon>
            <path d="M6.375,12.8372093 L27.625,12.8372093 L6.375,12.8372093 Z" id="Path" stroke-width="1.5"></path>
            <path d="M6.375,19.255814 L27.625,19.255814 L6.375,19.255814 Z" id="Path" stroke-width="1.5"></path>
            <polygon id="Path" stroke-width="1.5" fill="#FF5722" points="17 36.372093 17 46 12.75 42.7906977 8.5 46 8.5 36.372093"></polygon>
            <path d="M18.0625,32.305907 C17.9567812,31.6645814 17.4255312,31.1296977 16.7885625,31.0232558 C16.7885625,30.916814 16.6823125,30.916814 16.6823125,30.8103721 C16.8942812,30.1685116 16.7885625,29.527186 16.2573125,29.0987442 C15.7260625,28.6708372 14.9828437,28.6708372 14.4515937,28.9923023 C14.345875,28.9923023 14.345875,28.9923023 14.2401562,28.8858605 C14.0281875,28.2445349 13.4969375,27.816093 12.752125,27.816093 C12.1151562,27.816093 11.4776562,28.2445349 11.2640937,28.8858605 C11.158375,28.8858605 11.158375,28.8858605 11.0526562,28.9923023 C10.5214062,28.6708372 9.7781875,28.6708372 9.2469375,29.0987442 C8.7156875,29.527186 8.60996875,30.1685116 8.82140625,30.8103721 C8.82140625,30.916814 8.7156875,30.916814 8.7156875,31.0232558 C8.07871875,31.1296977 7.54746875,31.6645814 7.44175,32.305907 C7.33603125,32.9477674 7.6531875,33.589093 8.1844375,33.9105581 L8.1844375,34.2325581 C7.75890625,34.7674419 7.75890625,35.4087674 8.07871875,35.9436512 C8.39853125,36.4785349 9.0355,36.8005349 9.67246875,36.6919535 C9.7781875,36.7983953 9.88390625,36.7983953 9.88390625,36.9048372 C9.88390625,37.5461628 10.3094375,38.0810465 10.8406875,38.2966047 C11.4776562,38.5094884 12.1151562,38.2966047 12.5401562,37.8681628 L12.752125,37.8681628 L12.9635625,37.8681628 C13.283375,38.1896279 13.7067812,38.4030465 14.1323125,38.4030465 C14.34375,38.4030465 14.4515937,38.4030465 14.6635625,38.2966047 C15.3005312,38.083186 15.6198125,37.5483023 15.6198125,36.9048372 C15.7260625,36.7983953 15.8317812,36.7983953 15.8317812,36.6919535 C16.46875,36.7983953 17.1057187,36.4785349 17.4255312,35.9436512 C17.7448125,35.4087674 17.6369687,34.661 17.3198125,34.2325581 L17.3198125,33.9105581 C17.8510625,33.5912326 18.1682187,32.949907 18.0625,32.305907 Z" id="Path" stroke-width="1.5" fill="#FF5722"></path>
        </g>
        <g id="Group-25" transform="translate(63.000000, 137.000000)">
            <polygon id="Path" fill="#FF5722" points="14 15 25.255814 28.2465625 36.5116279 15"></polygon>
            <g id="Cocktail">
                <g id="Group-4" stroke="#424242" stroke-linecap="round" stroke-linejoin="round">
                    <path d="M25.744186,40.0378125 L25.744186,29.13375 L25.744186,40.0378125 Z M37.1860465,45 L14.3023256,45 C14.3023256,42.2535937 25.744186,40.3125 25.744186,40.3125 C25.744186,40.3125 37.1860465,42.2535937 37.1860465,45 Z M10.4883721,10.3125 L25.744186,28.5590625 L41,10.3125 L12.2780698,10.3125 L10.4883721,10.3125 Z" id="Stroke-1" stroke-width="3"></path>
                    <path d="M16.8667326,18.4992187 C15.0994419,19.8323437 12.8887791,20.625 10.4883721,20.625 C4.69688372,20.625 0,16.006875 0,10.3125 C0,4.618125 4.69688372,0 10.4883721,0 C16.1368372,0 20.742186,4.39078125 20.9672093,9.8896875" id="Stroke-3" stroke-width="1.5"></path>
                </g>
                <path d="M10.5575,11.24625 C10.5575,11.24625 9.1344186,16.948125 7.47153488,15.8203125 C5.80865116,14.690625 9.94106977,10.8965625 9.94106977,10.8965625 C9.94106977,10.8965625 4.02610465,11.47875 4.56244186,9.42421875 C5.09877907,7.37015625 10.086,10.2117187 10.086,10.2117187 C10.086,10.2117187 7.73040698,4.9509375 9.84953488,4.7278125 C11.9686628,4.50421875 10.7958721,10.1367187 10.7958721,10.1367187 C10.7958721,10.1367187 15.0269767,6.331875 16.0248023,8.21953125 C17.0231047,10.1071875 11.0862093,10.775625 11.0862093,10.775625" id="Fill-5" fill="#424242"></path>
            </g>
        </g>
        <path d="M532.070625,179 C532.070625,159.50114 529.934313,158.674419 527.639188,158.674419 C525.516437,158.674419 524.000937,160.914651 522.54625,166.189581 C521.134875,171.301907 519.853,178.116279 512.125,178.116279 C503.392063,178.116279 492,175.808442 492,175.808442 C492,175.036953 492.056438,174.061767 493.081937,173.117953 C495.178875,171.18614 504.25,167.30086 504.25,167.30086 C504.25,167.30086 506.408625,171.046512 510.713188,171.046512 C513.984375,171.046512 515.989,168.764744 516.414688,167.353 C517.438437,163.945814 522.3345,146.450791 528.211875,141 C528.211875,141 534,145.140674 534,151.718651 C534,156.251256 532.18175,158.115023 532.18175,179" id="Women-Shoe-Side-View" stroke="#424242" stroke-width="3"></path>
        <g id="Entrance-Visa" transform="translate(67.000000, 324.000000)">
            <g id="Group-4" stroke="#424242" stroke-linecap="round">
                <path d="M6.5,27.332981 L21.9375,27.332981 M6.5,22.5095137 L32.5,22.5095137 M26.8125,27.332981 L32.5,27.332981" id="Stroke-1" stroke-width="1.5"></path>
                <path d="M34.125,0 L4.875,0 C4.875,2.65371089 2.6820625,4.82346723 0,4.82346723 L0,30.5486258 C2.6820625,30.5486258 4.875,32.7183821 4.875,35.372093 L34.125,35.372093 C34.125,32.7183821 36.3179375,30.5486258 39,30.5486258 L39,4.82346723 C36.3179375,4.82346723 34.125,2.65371089 34.125,0 Z" id="Stroke-3" stroke-width="3" stroke-linejoin="round"></path>
            </g>
            <path d="M10.3179375,17.7660357 L8.125,8.11910122 L9.83084375,8.11910122 L10.6433437,12.4606237 C10.8054375,13.5065122 11.0495937,14.7923681 11.2116875,15.9982349 L11.2925312,15.9982349 C11.4542187,14.7923681 11.6179375,13.5865013 11.8604687,12.4606237 L12.6729687,8.19909038 L14.3792187,8.19909038 L12.1034062,17.8460248 L10.3179375,17.8460248" id="Fill-5" fill="#FF5722"></path>
            <polygon id="Fill-6" fill="#FF5722" points="16.0054375 17.7660357 17.5495937 17.7660357 17.5495937 8.11910122 16.0054375 8.11910122"></polygon>
            <path d="M19.4191562,16.1582133 C19.7445625,16.4001905 20.3933437,16.5601689 20.9633125,16.5601689 C21.9375,16.5601689 22.4262187,15.9982349 22.4262187,15.1943237 C22.4262187,14.3904125 21.939125,13.9884569 21.126625,13.426121 C20.0695625,12.702601 19.2570625,11.8182986 19.2570625,10.7728121 C19.2570625,9.24497886 20.314125,8.11910122 22.1008125,8.11910122 C22.751625,8.11910122 23.3195625,8.2794815 23.564125,8.44106765 L23.3195625,9.72692363 C23.0754062,9.5669453 22.6691562,9.40495719 22.1008125,9.40495719 C21.2074687,9.40495719 20.8012187,9.96729308 20.8012187,10.610824 C20.8012187,11.334746 21.2074687,11.7367016 22.1820625,12.2990375 C23.4008125,13.1029487 23.8879062,14.0668383 23.8879062,15.0323356 C23.8879062,16.8005383 22.6691562,17.8460248 20.8820625,17.8460248 C20.1508125,17.8460248 19.4191562,17.6860465 19.095375,17.4440692" id="Fill-7" fill="#FF5722"></path>
            <path d="M26.8933437,15.2743129 L26.40625,17.7660357 L24.8620937,17.7660357 L27.0554375,8.11910122 L28.842125,8.11910122 L30.873375,17.7660357 L29.3292187,17.7660357 L28.84375,15.2743129 L26.8933437,15.2743129 Z M28.6820625,14.0684461 L28.2758125,11.8166908 C28.1137188,11.1731599 28.03125,10.2892595 27.9504063,9.64693446 L27.8695625,9.64693446 C27.7883125,10.2908673 27.625,11.2547569 27.5441563,11.8166908 L27.1379063,13.9868491 L28.6820625,13.9868491 L28.6820625,14.0684461 Z" id="Fill-8" fill="#FF5722"></path>
        </g>
        <g id="Group-26" transform="translate(173.000000, 327.000000)">
            <g id="Group-22" transform="translate(2.000000, 0.000000)" stroke-linejoin="round">
                <g id="Service-Bell">
                    <path d="M21,1.875 L21,0" id="Stroke-1" stroke="#000000" stroke-width="4"></path>
                    <path d="M18.125,0 L23.875,0 L18.125,0 Z M41.125,24.375 C41.125,13.5023437 32.1142708,3.75 21,3.75 C9.88572917,3.75 0.875,13.5023437 0.875,24.375 L41.125,24.375 Z" id="Stroke-3" stroke="#424242" stroke-width="3" fill="#FFFFFF" stroke-linecap="round"></path>
                </g>
            </g>
            <path d="M46,28.6875 C46,29.2054688 45.5711458,29.625 45.0416667,29.625 L0.958333333,29.625 C0.428854167,29.625 0,29.2054688 0,28.6875 L0,24.9375 C0,24.4195312 0.428854167,24 0.958333333,24 L45.0416667,24 C45.5711458,24 46,24.4195312 46,24.9375 L46,28.6875 Z" id="Path" stroke="#424242" stroke-width="1.5" fill="#FF5722"></path>
        </g>
        <g id="Move-by-Trolley" transform="translate(598.000000, 140.000000)" stroke="#424242" stroke-linejoin="round">
            <path d="M0,3.5 C0,3.5 1.75,0 7,0 L21.991375,38.021375 L41.5795625,30.3568125" id="Stroke-1" stroke-width="3" stroke-linecap="round"></path>
            <polygon id="Stroke-3" stroke-width="3" fill="#FFFFFF" points="36.82 13.0020625 41.99825 26.0106875 24.1136875 33.1305625 18.9354375 20.12325"></polygon>
            <path d="M25.921875,21.107625 L32.4261875,18.5185" id="Stroke-4" stroke-width="1.5" stroke-linecap="round"></path>
            <polygon id="Stroke-5" stroke-width="3" fill="#FFFFFF" points="31.64 0 36.81825 13.006875 18.9336875 20.1285 13.7554375 7.1211875"></polygon>
            <path d="M20.740125,8.1073125 L27.2444375,5.5181875" id="Stroke-6" stroke-width="1.5" stroke-linecap="round"></path>
        </g>
        <path d="M613.5,183 C611.567125,183 610,181.432875 610,179.5 C610,177.567125 611.567125,176 613.5,176 C615.432875,176 617,177.567125 617,179.5 C617,181.432875 615.432875,183 613.5,183 Z" id="Path" fill="#FF5722"></path>
        <rect id="Rectangle-54" x="51" y="125" width="70" height="70"></rect>
        <rect id="Rectangle-54" x="51" y="125" width="70" height="70"></rect>
        <rect id="Rectangle-54" x="161" y="125" width="70" height="70"></rect>
        <rect id="Rectangle-54" x="374" y="125" width="70" height="70"></rect>
        <rect id="Rectangle-54" x="478" y="125" width="70" height="70"></rect>
        <rect id="Rectangle-54" x="161" y="307" width="70" height="70"></rect>
        <rect id="Rectangle-54" x="51" y="307" width="70" height="70"></rect>
        <g id="Group-9" transform="translate(175.000000, 54.000000)" fill="#FFFFFF" stroke="#424242" stroke-width="3">
            <g id="Group-2">
                <g id="Group" transform="translate(0.000000, 13.089617)">
                    <path d="M37.040625,22.6523047 C37.4184938,22.6523047 37.7804191,22.7162919 38.1168414,22.8337486 C39.4935801,23.314416 40.4432231,24.6905299 40.310625,26.2412792 C40.164375,27.9486967 38.745,29.2592269 37.0420313,29.2592269 L31.875,29.2592269 L3.75,29.2592269 L0,12.2699984 L5.625,8.49461426 L9.5803125,2.52195659 C10.621875,0.947621413 12.3796875,0 14.2603125,0 L35.3786337,2.83153809 L39.841875,2.83153809 C41.79,2.83153809 43.3082813,4.5276294 43.1048438,6.47808722 C42.9309375,8.16096469 41.5228125,9.43846029 39.841875,9.43846029 L38.89875,9.43846029 C40.8492188,9.43846029 42.3670313,11.1397428 42.1617188,13.0902006 C41.9859375,14.7697746 40.5759375,16.0453825 38.89875,16.0453825 L37.965,16.0453825 C39.9079688,16.0453825 41.4239063,17.733923 41.2298438,19.6806055 C41.0615625,21.3672583 39.6496875,22.6523047 37.965,22.6523047 L37.040625,22.6523047 Z" id="Combined-Shape"></path>
                </g>
                <path d="M12.1875,37.6296134 C10.635,37.6296134 9.375,38.8981425 9.375,40.4611515 L9.375,42.3488436 C9.375,43.9118526 10.635,45.1803817 12.1875,45.1803817 C13.74,45.1803817 15,43.9118526 15,42.3488436 L15,40.4611515 C15,38.8981425 13.74,37.6296134 12.1875,37.6296134 Z" id="Path"></path>
                <path d="M17.8125,37.6296134 C16.26,37.6296134 15,38.8981425 15,40.4611515 L15,42.3488436 C15,43.9118526 16.26,45.1803817 17.8125,45.1803817 C19.365,45.1803817 20.625,43.9118526 20.625,42.3488436 L20.625,40.4611515 C20.625,38.8981425 19.365,37.6296134 17.8125,37.6296134 Z" id="Path"></path>
                <path d="M23.4375,37.6296134 C21.885,37.6296134 20.625,38.8981425 20.625,40.4611515 L20.625,42.3488436 C20.625,43.9118526 21.885,45.1803817 23.4375,45.1803817 C24.99,45.1803817 26.25,43.9118526 26.25,42.3488436 L26.25,40.4611515 C26.25,38.8981425 24.99,37.6296134 23.4375,37.6296134 Z" id="Path"></path>
                <path d="M29.0625,37.6296134 C27.51,37.6296134 26.25,38.8981425 26.25,40.4611515 L26.25,42.3488436 C26.25,43.9118526 27.51,45.1803817 29.0625,45.1803817 C30.615,45.1803817 31.875,43.9118526 31.875,42.3488436 L31.875,40.4611515 C31.875,38.8981425 30.615,37.6296134 29.0625,37.6296134 Z" id="Path"></path>
                <path d="M45,8.37038656 L29.0625,0.819618327 L26.2392187,4.37178286 C25.6420312,5.12214045 24.7851562,5.61435615 23.8401562,5.7507419 L23.5767187,5.7875519 C20.5903125,6.21747376 18.0576562,8.22125888 16.9373437,11.0414708 L12.9182812,21.154781 C12.1490625,23.0901373 13.0846875,25.2878828 15.0075,26.0618365 C16.9298437,26.8362622 19.1123437,25.8943038 19.8815625,23.9584756 L23.0751562,15.9211548 L40.3125,15.9211548 L45,8.37038656 Z" id="Path"></path>
            </g>
        </g>
        <g id="Group-10" transform="translate(275.000000, 54.000000)" fill="#FFFFFF" stroke="#424242" stroke-width="3">
            <g id="Group-3">
                <path d="M19.981319,27.8829434 C19.8888473,26.5008261 19.8888473,25.5794146 19.8888473,24.3811189 C20.5384725,24.103774 21.5621666,21.9859096 21.7475747,20.3264474 C22.2122565,20.3264474 22.9562121,19.7740612 23.2340919,17.9312382 C23.3265636,16.9181462 22.9543534,16.271776 22.584002,16.1800955 C24.0709839,14.3372725 23.7931041,6.78261934 18.3093938,6.78261934 L17.5654381,5.125 C9.75831858,5.125 6.87775587,11.1141749 9.10822869,16.1819384 C8.82895491,16.3652993 8.36427307,16.919989 8.45860348,17.933081 C8.64354686,19.775904 9.48043884,20.2366098 9.94512068,20.3282902 C10.1305287,22.0794329 11.2466945,24.1056168 11.8963197,24.3829617 C11.8963197,25.5812574 11.8963197,26.5948101 11.803848,27.8847862 C10.3154721,31.7542539 0.464681837,30.647178 0,38.2958151 L31.7833083,38.2958151 C31.3186265,30.647178 21.4678362,31.7542539 19.981319,27.8829434 Z" id="Path"></path>
                <path d="M44.1043959,27.8829434 C44.0119242,26.5008261 44.0119242,25.5794146 44.0119242,24.3811189 C44.6615494,24.103774 45.6852435,21.9859096 45.8706516,20.3264474 C46.3353334,20.3264474 47.079289,19.7740612 47.3571688,17.9312382 C47.4496405,16.9181462 47.0774303,16.271776 46.7070789,16.1800955 C48.1940608,14.3372725 47.916181,6.78261934 42.4324707,6.78261934 L41.6885151,5.125 C33.8813955,5.125 31.0008328,11.1141749 33.2313056,16.1819384 C32.9520318,16.3652993 32.48735,16.919989 32.5816804,17.933081 C32.7666238,19.775904 33.6035158,20.2366098 34.0681976,20.3282902 C34.2536057,22.0794329 35.3697714,24.1056168 36.0193966,24.3829617 C36.0193966,25.5812574 36.0193966,26.5948101 35.926925,27.8847862 C34.438549,31.7542539 24.5877588,30.647178 24.1230769,38.2958151 L55.9063852,38.2958151 C55.4417034,30.647178 45.5909131,31.7542539 44.1043959,27.8829434 Z" id="Path"></path>
                <path d="M33.1594609,27.8481225 C33.0463065,26.1568725 33.0463065,25.0293725 33.0463065,23.5630588 C33.8412308,23.2236812 35.0938905,20.6321225 35.320768,18.601495 C35.8893834,18.601495 36.7997366,17.9255588 37.1397686,15.6705587 C37.2529231,14.4308725 36.7974622,13.6399313 36.3442757,13.527745 C38.1638449,11.272745 37.8238129,2.0283725 31.1135828,2.0283725 L30.2032295,0 C20.6499225,0 17.1250757,7.32875 19.8544295,13.53 C19.5126917,13.7543725 18.9440763,14.4331275 19.0595052,15.6728138 C19.2858142,17.9278138 20.3098905,18.4915638 20.8785058,18.60375 C21.1053834,20.7465638 22.4711975,23.2259363 23.2661218,23.5653138 C23.2661218,25.0316275 23.2661218,26.2718775 23.1529674,27.8503775 C21.3316923,32.5853138 9.27761477,31.2306225 8.70899938,40.59 L47.6011545,40.59 C47.0325391,31.2306225 34.9784615,32.5853138 33.1594609,27.8481225 Z" id="Path"></path>
            </g>
        </g>
        <g id="Group-11" transform="translate(388.000000, 54.000000)" stroke="#424242" stroke-width="3">
            <path d="M23.2609141,27.480653 C23.1532647,25.8716846 23.1532647,24.799039 23.1532647,23.4040633 C23.9095149,23.081197 25.101231,20.615721 25.3170707,18.6838863 C25.8580222,18.6838863 26.7240855,18.0408352 27.0475745,15.895544 C27.1552238,14.7161701 26.7219217,13.9637092 26.2907834,13.856981 C28.0218281,11.7116897 27.6983391,2.91706823 21.3145706,2.91706823 L20.4485073,0.987378745 C11.3599813,0.987378745 8.006623,7.95957531 10.6031902,13.8591262 C10.2780783,14.0725827 9.73712682,14.7183154 9.84693997,15.8976893 C10.0622387,18.0429805 11.0364923,18.5793033 11.5774438,18.6860316 C11.7932834,20.7245946 13.0926489,23.0833423 13.8488991,23.4062086 C13.8488991,24.8011843 13.8488991,25.9810945 13.7412497,27.4827983 C12.0085821,31.9873736 0.54095149,30.6985899 0,39.6026213 L37,39.6026213 C36.4590485,30.6985899 24.9914179,31.9873736 23.2609141,27.480653 Z" id="Path" fill="#FFFFFF"></path>
            <path d="M42.3621079,36.2987793 C42.3621079,39.7124381 39.5947127,42.4798333 36.1810539,42.4798333 C32.7673952,42.4798333 30,39.7124381 30,36.2987793 C30,32.8851206 32.7673952,30.1177254 36.1810539,30.1177254 C39.5947127,30.1177254 42.3621079,32.8851206 42.3621079,36.2987793" id="Stroke-3" fill="#F05123" stroke-linecap="round"></path>
            <path d="M40.2393886,40.357114 L45.046875,45.1646004" id="Stroke-4"></path>
        </g>
        <g id="Group-12" transform="translate(495.000000, 55.000000)">
            <g id="Group-7">
                <polygon id="Path" stroke="#424242" stroke-width="3" fill="#FFFFFF" points="0 41.3754883 19.5 41.3754883 39 41.3754883 39 12.933856 19.5 0.059387207 0 12.933856"></polygon>
                <g id="Group-6" transform="translate(9.000000, 21.000000)">
                    <rect id="Rectangle" fill="#424242" x="0" y="12" width="3" height="3"></rect>
                    <rect id="Rectangle" fill="#424242" x="19" y="12" width="3" height="3"></rect>
                    <g id="Group-5" stroke="#424242" stroke-width="1.5">
                        <path d="M20.3232683,9 L20.3232683,3.6 C20.3232683,1.619712 19.6198957,0 18.75994,0 L3.12665667,0 C2.26670102,0 1.56332833,1.619712 1.56332833,3.6 L1.56332833,9 L20.3232683,9 Z" id="Path" fill="#FFFFFF"></path>
                        <path d="M20.3232683,3.95638602 C19.4633127,3.95638602 18.75994,4.66866211 18.75994,5.53894043 L18.75994,7.91277204 L3.12665667,7.91277204 L3.12665667,5.53894043 C3.12665667,4.66866211 2.42328398,3.95638602 1.56332833,3.95638602 C0.703372684,3.95638602 0,4.66866211 0,5.53894043 L0,11.8691581 L21.8865967,11.8691581 L21.8865967,5.53894043 C21.8865967,4.66866211 21.183224,3.95638602 20.3232683,3.95638602 Z" id="Path" fill="#F05123"></path>
                    </g>
                </g>
            </g>
        </g>
        <path d="M625,76.5 C625,78.98535 622.98535,81 620.5,81 C618.01465,81 616,78.98535 616,76.5 C616,74.01465 618.01465,72 620.5,72 C622.98535,72 625,74.01465 625,76.5" id="Path" stroke="#424242" stroke-width="3" fill="#F05123"></path>
        <path d="M608,76.5 C608,78.98535 605.98535,81 603.5,81 C601.01465,81 599,78.98535 599,76.5 C599,74.01465 601.01465,72 603.5,72 C605.98535,72 608,74.01465 608,76.5" id="Path" stroke="#424242" stroke-width="3" fill="#FFFFFF"></path>
        <path d="M642,76.5 C642,78.98535 639.98535,81 637.5,81 C635.01465,81 633,78.98535 633,76.5 C633,74.01465 635.01465,72 637.5,72 C639.98535,72 642,74.01465 642,76.5" id="Path" stroke="#424242" stroke-width="3" fill="#FFFFFF"></path>
        <g id="Group-14" transform="translate(285.000000, 137.000000)">
            <path d="M45.0612245,13.8759375 L42.1514898,10.9696875 C41.2127143,11.720625 40.0866531,12.189375 38.7723673,12.189375 C35.7687551,12.189375 33.4218163,9.75234375 33.4218163,6.84609375 C33.4218163,5.53359375 33.8912041,4.4090625 34.6431633,3.4715625 L31.7329592,0.56578125 C31.0767551,-0.08953125 29.9492857,-0.08953125 29.2926122,0.56578125 L0.93877551,28.6870312 C0.282571429,29.3428125 0.282571429,30.46875 0.93877551,31.1240625 L3.8485102,34.0303125 C4.78728571,33.279375 6.00863265,32.7173437 7.3215102,32.7173437 C10.3246531,32.7173437 12.6715918,35.154375 12.6715918,38.0601562 C12.6715918,39.373125 12.2022041,40.5909375 11.3568367,41.5284375 L14.2670408,44.4342187 C14.9232449,45.0895312 16.0507143,45.0895312 16.7073878,44.4342187 L44.9640612,16.2159375 C45.7174286,15.6553125 45.7174286,14.53125 45.0612245,13.8759375 Z" id="Stroke-1" stroke="#424242" stroke-width="3" stroke-linecap="round" stroke-linejoin="round"></path>
            <path d="M23.5627959,6.18703125 L24.2213469,6.8446875" id="Stroke-3" stroke="#424242" stroke-width="1.5" stroke-linecap="round" stroke-linejoin="round"></path>
            <path d="M26.8485102,9.46828125 L37.3642041,19.9696875" id="Stroke-4" stroke="#424242" stroke-width="1.5" stroke-linecap="round" stroke-linejoin="round" stroke-dasharray="3.971,7.941"></path>
            <path d="M38.6766122,21.2803125 L39.3351633,21.9379687" id="Stroke-5" stroke="#424242" stroke-width="1.5" stroke-linecap="round" stroke-linejoin="round"></path>
            <polygon id="Fill-6" stroke="#FF5722" stroke-width="1.5" fill="#FF5722" points="23.7810666 20.8767791 23.4418142 23.0908411 25.3162265 24.2817188 26.6817602 24.9635579 25.1466003 25.3023494 22.9286736 25.8147928 22.5860116 27.6866584 22.2467591 29.2197325 21.3943661 27.8560541 20.3714944 25.9841886 18.1544201 26.1535843 16.6192602 26.3229801 17.6412795 25.3023494 19.1764394 23.5998796 18.3240463 21.5586183 17.8109057 20.1949399 19.1764394 20.8767791 21.2204779 21.728014 22.925264 20.1949399 23.9515453 19.343705"></polygon>
        </g>
        <rect id="Rectangle-54" x="51" y="217" width="70" height="70"></rect>
        <rect id="Rectangle-54" x="161" y="217" width="70" height="70"></rect>
        <rect id="Rectangle-54" x="374" y="217" width="70" height="70"></rect>
        <rect id="Rectangle-54" x="478" y="217" width="70" height="70"></rect>
        <rect id="Rectangle-54" x="584" y="217" width="70" height="70"></rect>
        <rect id="Rectangle-54" x="273" y="217" width="70" height="70"></rect>
        <rect id="Rectangle-54" x="273" y="125" width="70" height="70"></rect>
        <g id="Group-27" transform="translate(389.000000, 233.000000)" stroke="#424242" stroke-width="3">
            <path d="M42,38.3130682 L42,32.5960227 L42,38.3130682 Z M0,38.3130682 L0,32.5960227 L0,38.3130682 Z M38.1818182,21.1619318 L38.1818182,7.18693182 C38.1818182,3.34436582 36.4633309,0.199431818 34.3636364,0.199431818 L7.63636364,0.199431818 C5.53666909,0.199431818 3.81818182,3.34436582 3.81818182,7.18693182 L3.81818182,21.1619318 L38.1818182,21.1619318 Z" id="Armchair"></path>
            <path d="M38.1818182,11.6335227 C36.0821236,11.6335227 34.3636364,13.3489413 34.3636364,15.4448864 L34.3636364,21.1619318 L7.63636364,21.1619318 L7.63636364,15.4448864 C7.63636364,13.3489413 5.91787636,11.6335227 3.81818182,11.6335227 C1.71848727,11.6335227 0,13.3489413 0,15.4448864 L0,32.5960227 L42,32.5960227 L42,15.4448864 C42,13.3489413 40.2815127,11.6335227 38.1818182,11.6335227 Z" id="Path" fill="#FF5722"></path>
        </g>
        <g id="Car" transform="translate(171.000000, 234.000000)">
            <path d="M6.5418587,31.5 C5.38105435,31.5 4.43478261,30.56175 4.43478261,29.4103125 L4.43478261,20.44125 C4.43478261,20.44125 9.86794565,5.7195 10.6107717,4.255875 C11.5138043,2.482875 13.7805326,1.6875 15.4114239,1.125 C15.4114239,1.125 17.7391304,0 25.5,0 C33.2608696,0 35.5885761,1.125 35.5885761,1.125 C36.9833152,1.5271875 39.5166848,2.35125 40.3094022,4.179375 C41.2124348,6.2645625 46.5652174,20.4435 46.5652174,20.4435 L46.5652174,29.4125625 C46.5652174,30.56175 45.6189457,31.5 44.4581413,31.5 L6.5418587,31.5 Z" id="Path" stroke="#424242" stroke-width="3" fill="#FFFFFF"></path>
            <path d="M43.2159035,11.6265779 C43.2562419,11.7285905 43.299276,11.8397336 43.342721,11.9583751 C43.4831582,12.3259258 43.6236735,12.6940728 43.7631796,13.0599018 C43.8263166,13.2254668 43.8127767,13.3830938 43.7292145,13.5328323 C43.8769152,15.1297607 43.1187934,16.875 38.8043478,16.875 L12.1956522,16.875 C7.23566574,16.875 6.97583546,14.5684335 7.38904173,12.8323234 C7.35558618,12.7102052 7.36187294,12.584304 7.41064053,12.4546401 C8.81146492,8.7301111 10.2535285,4.95976809 10.6107717,4.255875 C11.5138043,2.482875 13.7805326,1.6875 15.4114239,1.125 C15.4114239,1.125 17.7391304,0 25.5,0 C33.2608696,0 35.5885761,1.125 35.5885761,1.125 C36.9833152,1.5271875 39.5166848,2.35125 40.3094022,4.179375 C40.7031396,5.08855187 41.9428221,8.29687985 43.2159033,11.6265775 Z" id="Combined-Shape" stroke="#424242" stroke-width="3" fill="#FFFFFF"></path>
            <path d="M46.5652174,28.125 L46.5652174,33.75 C46.5652174,34.9914375 45.5712717,36 44.3478261,36 L39.9130435,36 C38.6895978,36 37.6956522,34.9914375 37.6956522,33.75 L37.6956522,31.5 M13.3043478,31.5 L13.3043478,33.75 C13.3043478,34.9914375 12.3104022,36 11.0869565,36 L6.65217391,36 C5.42872826,36 4.43478261,34.9914375 4.43478261,33.75 L4.43478261,28.125" id="Stroke-1" stroke="#424242" stroke-width="3"></path>
            <path d="M36.5869565,20.25 L41.0217391,20.25 C42.2451848,20.25 43.2391304,21.2563125 43.2391304,22.5 C43.2391304,23.9698125 42.2191304,24.6684375 40.9330435,25.407 C39.0122283,26.5123125 38.4451304,27 36.5869565,27 C34.7509565,27 33.2608696,25.49025 33.2608696,23.625 C33.2608696,21.75975 34.7509565,20.25 36.5869565,20.25 Z M14.4130435,20.25 L9.97826087,20.25 C8.75481522,20.25 7.76086957,21.2563125 7.76086957,22.5 C7.76086957,23.9698125 8.78086957,24.6684375 10.0669565,25.407 C11.9877717,26.5123125 12.5548696,27 14.4130435,27 C16.2490435,27 17.7391304,25.49025 17.7391304,23.625 C17.7391304,21.75975 16.2490435,20.25 14.4130435,20.25 Z" id="Stroke-3" fill="#FF5722"></path>
            <path d="M7.17215217,12.375 L3.43640217,12.375 C0.584836957,12.375 0,14.097375 0,15.2865 C0,16.4750625 0.872543478,16.875 2.30830435,16.875 L5.38105435,16.875 L7.17215217,12.375 Z M43.8278478,12.375 L47.5635978,12.375 C50.415163,12.375 51,14.097375 51,15.2865 C51,16.4750625 50.1274565,16.875 48.6916957,16.875 L45.6189457,16.875 L43.8278478,12.375 Z" id="Stroke-4" stroke="#424242" stroke-width="3"></path>
        </g>
        <g id="Group-28" transform="translate(286.000000, 235.000000)">
            <path d="M18.4864865,6.61525601 C18.4864865,10.2678224 15.5887297,13.230512 12.0162162,13.230512 C8.4437027,13.230512 5.54594595,10.2678224 5.54594595,6.61525601 C5.54594595,2.96268966 8.4437027,0 12.0162162,0 C15.5887297,0 18.4864865,2.96268966 18.4864865,6.61525601 L18.4864865,6.61525601 Z M12.0162162,16.0656217 C10.4457892,16.0656217 6.84046216,16.3500777 3.97551892,17.2951143 C1.57227568,18.1456472 0,20.4142075 0,22.9653338 L0,34.9663532 L24.0324324,34.9663532 L24.0324324,22.9653338 C24.0324324,20.4142075 22.2757541,18.1456472 19.872973,17.2951143 C17.1,16.3500777 13.6809243,16.0656217 12.0162162,16.0656217 Z" id="Caretaker" stroke="#424242" stroke-width="3" stroke-linecap="round" stroke-linejoin="round"></path>
            <path d="M38.8216216,34.9663532 L38.8216216,26.461024 L33.2756757,26.461024 L33.2756757,34.9663532 L27.7297297,34.9663532 L27.7297297,24.5709509 L36.0486486,17.9556949 L44.3675676,24.5709509 L44.3675676,34.9663532 L38.8216216,34.9663532 Z" id="Combined-Shape" fill="#FF5722"></path>
        </g>
        <path d="M630,252.5 C630,258.297909 625.297909,263 619.5,263 C613.702091,263 609,258.297909 609,252.5 C609,246.702091 613.702091,242 619.5,242 C625.297909,242 630,246.702091 630,252.5" id="Path" stroke="#424242" stroke-width="3" fill="#FFFFFF"></path>
        <g id="Crowdfunding" transform="translate(598.000000, 231.000000)">
            <path d="M40.0909091,5.72727273 C40.0909091,7.83586364 38.3813182,9.54545455 36.2727273,9.54545455 C34.1641364,9.54545455 32.4545455,7.83586364 32.4545455,5.72727273 C32.4545455,3.61868182 34.1641364,1.90909091 36.2727273,1.90909091 C38.3813182,1.90909091 40.0909091,3.61868182 40.0909091,5.72727273 M42,33.4090909 C42,35.5176818 40.2904091,37.2272727 38.1818182,37.2272727 C36.0732273,37.2272727 34.3636364,35.5176818 34.3636364,33.4090909 C34.3636364,31.3005 36.0732273,29.5909091 38.1818182,29.5909091 C40.2904091,29.5909091 42,31.3005 42,33.4090909 M22.9090909,38.1818182 C22.9090909,40.2904091 21.1995,42 19.0909091,42 C16.9823182,42 15.2727273,40.2904091 15.2727273,38.1818182 C15.2727273,36.0732273 16.9823182,34.3636364 19.0909091,34.3636364 C21.1995,34.3636364 22.9090909,36.0732273 22.9090909,38.1818182 M7.63636364,26.7272727 C7.63636364,28.8358636 5.92677273,30.5454545 3.81818182,30.5454545 C1.70959091,30.5454545 0,28.8358636 0,26.7272727 C0,24.6186818 1.70959091,22.9090909 3.81818182,22.9090909 C5.92677273,22.9090909 7.63636364,24.6186818 7.63636364,26.7272727 M18.1363636,3.81818182 C18.1363636,5.92677273 16.4267727,7.63636364 14.3181818,7.63636364 C12.2095909,7.63636364 10.5,5.92677273 10.5,3.81818182 C10.5,1.70959091 12.2095909,0 14.3181818,0 C16.4267727,0 18.1363636,1.70959091 18.1363636,3.81818182" id="Stroke-1" stroke="#424242" stroke-width="3" fill="#FFFFFF"></path>
            <path d="M22.3048636,19.4937273 C20.9589545,19.1768182 20.1981818,18.9548864 20.1981818,18.0805227 C20.1981818,17.0343409 20.7632727,16.548 21.9731591,16.548 C23.3768182,16.548 23.68275,17.4910909 23.6942045,18.2838409 L23.7013636,18.7272273 L25.3904318,18.7272273 L25.4185909,18.3077045 C25.4706136,17.5211591 25.1575227,16.6448864 24.6019773,16.0201364 C24.1318636,15.4946591 23.5133182,15.1572273 22.7993182,15.0379091 L22.7993182,13.3636364 L21.1045227,13.3636364 L21.1045227,15.0340909 C18.5463409,15.4163864 18.4699773,17.71875 18.4699773,17.9888864 C18.4699773,20.3532955 20.3342045,20.7799773 21.8352273,21.1231364 C23.1811364,21.4324091 23.9419091,21.6524318 23.9419091,22.5807273 C23.9419091,23.13675 23.68275,24.0726818 21.945,24.0726818 C21.9077727,24.0726818 21.0057273,24.0650455 20.4387273,23.4851591 C20.1051136,23.142 19.9428409,22.6480227 19.9595455,22.0161136 L19.971,21.5555455 L18.2222727,21.5555455 L18.2351591,22.0180227 C18.291,24.0574091 19.23075,25.2133636 21.1045227,25.5436364 L21.1045227,26.7272727 L22.7993182,26.7272727 L22.7993182,25.5636818 C25.5264545,25.1517955 25.6682045,23.0059773 25.6682045,22.5678409 C25.6701136,20.286 23.8039773,19.8459545 22.3048636,19.4937273" id="Fill-3" fill="#FF5722"></path>
            <path d="M33.558,8.442 L29.4510682,12.5489318 M15.9065455,7.19440909 L17.4782045,10.5315 M19.7342727,34.3321364 L20.2373182,30.3197045 M35.3033864,31.0714091 L30.0829773,26.7850227 M7.36431818,25.3030909 L12.1050682,23.8373864" id="Stroke-4" stroke="#424242" stroke-width="3"></path>
        </g>
        <g id="Hotel-Information" transform="translate(491.000000, 230.000000)">
            <path d="M22.5,0 C18.3745313,0 15,3.37453125 15,7.5 C15,11.6254688 18.3745313,15 22.5,15 C26.6254688,15 30,11.6254688 30,7.5 C30,3.37453125 26.6254688,0 22.5,0 Z" id="Path" fill="#FF5722"></path>
            <path d="M40.3125,36.5625 L17.8125,36.5625 L17.8125,28.125 C17.8125,27.0942187 18.6567188,26.25 19.6875,26.25 L38.4375,26.25 C39.4682813,26.25 40.3125,27.0942187 40.3125,28.125 L40.3125,36.5625 Z M15,30 C15,32.0709375 13.3209375,33.75 11.25,33.75 C9.1790625,33.75 7.5,32.0709375 7.5,30 C7.5,27.9290625 9.1790625,26.25 11.25,26.25 C13.3209375,26.25 15,27.9290625 15,30 L15,30 Z" id="Stroke-1" stroke="#424242" stroke-width="3" fill="#FFFFFF"></path>
            <path d="M40.3125,31.40625 L40.3125,36.5625 L4.6875,36.5625 L4.6875,22.96875 C4.6875,21.6557813 3.65671875,20.625 2.34375,20.625 C1.03078125,20.625 0,21.6557813 0,22.96875 L0,45 L4.6875,45 L4.6875,41.25 L40.3125,41.25 L40.3125,45 L45,45 L45,31.40625 C45,30.0932812 43.9692187,29.0625 42.65625,29.0625 C41.3432812,29.0625 40.3125,30.0932812 40.3125,31.40625 Z" id="Path" stroke="#424242" stroke-width="3"></path>
            <path d="M22.5,11.25 L22.5,6.8446875 L22.5,11.25 Z" id="Path" stroke="#FFFFFF" stroke-width="1.5" fill="#424242"></path>
            <path d="M23.6240625,4.6875 C23.6240625,6.18703125 21.3759375,6.18703125 21.3759375,4.6875 C21.3759375,3.18796875 23.6240625,3.18796875 23.6240625,4.6875" id="Fill-3" fill="#FFFFFF"></path>
        </g>
        <g id="Housekeeping" transform="translate(67.000000, 233.000000)">
            <path d="M18.4615862,7.13964097 C19.1558893,6.92408827 19.8939134,6.80798983 20.6589744,6.80798983 C24.7482389,6.80798983 28.0638176,10.1215379 28.0638176,14.2108024 C28.0638176,18.3000669 24.7482389,21.6156456 20.6589744,21.6156456 C19.1992374,21.6156456 17.8379273,21.192734 16.6909322,20.4627066 C15.6080658,22.4114988 13.5287028,23.7295745 11.1402022,23.7295745 C7.6357711,23.7295745 4.79435416,20.8896806 4.79435416,17.3837264 C4.79435416,13.8798029 7.6357711,11.0378783 11.1402022,11.0378783 C12.0641382,11.0378783 12.9418164,11.2352496 13.7334505,11.5900942 C13.8397892,11.3092492 13.9627208,11.0365654 14.1010477,10.7732379 C12.9812302,10.2833911 12.1991974,9.16588049 12.1991974,7.86495429 C12.1991974,6.11400789 13.6191443,4.69203025 15.3721214,4.69203025 C16.8735626,4.69203025 18.1331096,5.73762582 18.4615862,7.13964097 Z" id="Combined-Shape" fill="#FF5722"></path>
            <g id="Group-6" transform="translate(2.052632, 0.000000)" fill="#FF5722">
                <path d="M4.85768217,2.57810133 C4.85768217,5.39819622 0.627793672,5.39819622 0.627793672,2.57810133 C0.627793672,-0.244024225 4.85768217,-0.244024225 4.85768217,2.57810133" id="Fill-5"></path>
            </g>
            <polygon id="Fill-7" stroke="#424242" stroke-width="3" fill="#FFFFFF" points="5.85334929 38.5372302 24.8908935 38.5372302 29.120782 15.2697975 1.62143012 15.2697975"></polygon>
            <path d="M25.6980854,22.6193049 C25.6980854,22.6193049 13.3455114,26.4009227 13.6506197,34.3073417 C13.8191655,38.5945967 19.9984985,38.5372302 23.1714225,38.5372302 L37.715091,38.5372302 C37.715091,38.5372302 29.9300046,37.4762044 30.1361177,32.1934128 C30.2173446,30.1013136 32.1429287,28.092472 30.2528813,24.9093946 C29.3370485,23.366592 25.6980854,22.6193049 25.6980854,22.6193049" id="Fill-8" stroke="#424242" stroke-width="3" fill="#FFFFFF"></path>
            <path d="M30.1340871,32.1934128 C30.2153139,30.1013136 32.3688409,27.9437253 30.2508507,24.9093946 C29.9137592,24.4276178 29.6182965,24.213382 29.6182965,24.213382 C29.6162659,24.2113513 27.4033417,23.1386491 27.4033417,23.1366184 L26.7748489,23.0432076 C26.7748489,23.0432076 18.9395034,29.0184581 18.9395034,34.3073417 C18.9395034,37.4802658 21.7179695,38.5372302 24.8908935,38.5372302 L37.713568,38.5372302 C37.713568,38.5372302 29.9279739,37.4762044 30.1340871,32.1934128" id="Fill-9" stroke="#424242" stroke-width="3" fill="#FFFFFF"></path>
            <path d="M1.95852157,33.4387221 L16.0701647,20.2967245 C16.5103127,19.9119123 16.5539722,19.2438214 16.1711906,18.8036734 C15.7863784,18.3614947 15.1182875,18.3198659 14.6781395,18.7026475 L0.564465666,31.846168" id="Fill-10" fill="#424242"></path>
            <polygon id="Fill-11" stroke="#424242" stroke-width="3" fill="#FFFFFF" points="35.5280579 0.46214175 25.6980854 22.6193049 29.6182965 24.213382 38.5720343 0.46214175"></polygon>
        </g>
        <g id="Group-17" transform="translate(275.000000, 310.000000)">
            <rect id="Rectangle-49" x="0" y="0" width="65" height="65"></rect>
            <g id="Group-15" transform="translate(13.000000, 13.000000)">
                <path d="M28.0348718,10.890625 L28.0348718,40.785775 L4.52923077,40.785775 C2.17948718,40.785775 0.256410256,38.8639 0.256410256,36.515625 L0.256410256,10.890625 L28.0348718,10.890625 Z" id="Fill-1" stroke="#424242" stroke-width="3" fill="#FF5722"></path>
                <path d="M8.80410256,0.214225 L8.80410256,36.515625 C8.80410256,38.8639 6.88102564,40.785775 4.53128205,40.785775 L35.5148718,40.785775 C37.8646154,40.785775 39.7876923,38.8639 39.7876923,36.515625 L39.7876923,0.214225 L8.80410256,0.214225 Z" id="Fill-2" stroke="#424242" stroke-width="3" fill="#FFFFFF"></path>
                <g id="News" transform="translate(14.871795, 5.125000)" fill="#FF5722">
                    <polygon id="Fill-3" points="0.342564103 4.69655 19.5733333 4.69655 19.5733333 0.4264 0.342564103 0.4264"></polygon>
                    <polygon id="Fill-4" points="0.342564103 10.037825 8.89025641 10.037825 8.89025641 7.901725 0.342564103 7.901725"></polygon>
                    <polygon id="Fill-5" points="11.025641 10.037825 19.5733333 10.037825 19.5733333 7.901725 11.025641 7.901725"></polygon>
                    <polygon id="Fill-6" points="0.342564103 14.307975 8.89025641 14.307975 8.89025641 12.171875 0.342564103 12.171875"></polygon>
                    <polygon id="Fill-7" points="11.025641 14.307975 19.5733333 14.307975 19.5733333 12.171875 11.025641 12.171875"></polygon>
                    <polygon id="Fill-8" points="0.342564103 18.578125 8.89025641 18.578125 8.89025641 16.442025 0.342564103 16.442025"></polygon>
                    <polygon id="Fill-9" points="11.025641 18.578125 19.5733333 18.578125 19.5733333 16.442025 11.025641 16.442025"></polygon>
                    <polygon id="Fill-10" points="0.342564103 22.850325 8.89025641 22.850325 8.89025641 20.714225 0.342564103 20.714225"></polygon>
                    <polygon id="Fill-11" points="11.025641 22.850325 19.5733333 22.850325 19.5733333 20.714225 11.025641 20.714225"></polygon>
                    <polygon id="Fill-12" points="0.342564103 27.120475 8.89025641 27.120475 8.89025641 24.984375 0.342564103 24.984375"></polygon>
                    <polygon id="Fill-13" points="11.025641 27.120475 19.5733333 27.120475 19.5733333 24.984375 11.025641 24.984375"></polygon>
                    <polygon id="Fill-14" points="0.342564103 31.390625 8.89025641 31.390625 8.89025641 29.254525 0.342564103 29.254525"></polygon>
                    <polygon id="Fill-15" points="11.025641 31.390625 19.5733333 31.390625 19.5733333 29.254525 11.025641 29.254525"></polygon>
                </g>
            </g>
        </g>
        <g id="Group-29" transform="translate(374.000000, 310.000000)">
            <rect id="Rectangle-49" x="0" y="0" width="65" height="65"></rect>
            <g id="Group-16" transform="translate(11.000000, 13.000000)">
                <g id="Group-8">
                    <g id="Price-Tag-USD">
                        <path d="M42.5168539,2.93333333 C42.5168539,1.56395556 41.4544157,0.488888889 40.1011236,0.488888889 L25.7028876,0.488888889 C24.4462247,0.488888889 23.1910112,0.3916 22.5136404,1.17235556 L0.579292135,23.3693778 C-0.0961460674,24.0528444 -0.0961460674,25.2276444 0.579292135,26.0084 L17.3932584,43.0222222 C18.0686966,43.7056889 19.2296966,43.7056889 20.0012809,43.0222222 L41.9356292,20.8276444 C42.6110674,20.1436889 42.6110674,18.8720889 42.6110674,17.6 C42.5168539,17.5027111 42.5168539,3.12791111 42.5168539,2.93333333 Z" id="Stroke-1" stroke="#424242" stroke-width="3" fill="#FFFFFF" stroke-linecap="round"></path>
                        <circle id="Oval-6" fill="#F05123" cx="34.5" cy="8.5" r="2.5"></circle>
                        <path d="M37.6853933,8.31111111 C37.6853933,9.93031111 36.3866966,11.2444444 34.7865169,11.2444444 C33.1863371,11.2444444 31.8876404,9.93031111 31.8876404,8.31111111 C31.8876404,6.69191111 33.1863371,5.37777778 34.7865169,5.37777778 C36.3866966,5.37777778 37.6853933,6.69191111 37.6853933,8.31111111 L37.6853933,8.31111111 Z" id="Path" stroke="#424242" stroke-width="3" stroke-linecap="round"></path>
                        <path d="M22.9001573,29.4306222 C25.1235955,27.1812444 23.9630787,24.6390222 22.6097865,22.3916 C21.4507191,20.5333333 20.5810562,18.8720889 21.9338652,17.5027111 C22.5136404,16.9165333 24.1573034,15.7417333 26.1860337,17.7965333 C27.6354719,19.2632 27.4431798,20.8276444 26.5730337,22.0992444 L27.9263258,23.4686222 C28.988764,21.5130667 29.762764,19.4602222 28.118618,17.1130667 L29.6642022,15.5491111 L28.3113933,14.1797333 L26.7653258,15.7436889 C25.5086629,14.7659111 22.6097865,13.6908444 20.2921348,16.038 C15.9438202,20.438 24.5443034,24.6429333 21.258427,27.9659111 C20.0998427,29.1387556 18.6504045,29.6276444 16.5231124,27.4770222 C14.398236,25.3268889 15.4606742,23.0770222 16.3308202,22.1965333 L14.9775281,20.8276444 C12.2709438,24.0548 13.624236,26.7916 14.5905281,28.1609778 L13.237236,29.5298667 L14.5905281,30.8992444 L15.8476742,29.6276444 C17.1024045,30.5056889 20.2921348,32.1693778 22.9001573,29.4306222" id="Fill-3" fill="#424242"></path>
                    </g>
                </g>
            </g>
        </g>
        <g id="Group-30" transform="translate(483.000000, 310.000000)">
            <rect id="Rectangle-49" x="0" y="0" width="65" height="65"></rect>
            <g id="Group-24" transform="translate(12.000000, 14.000000)">
                <g id="Group-21">
                    <g id="Group-19">
                        <path d="M2.5584,10.2336 L2.5584,5.9696 C2.5584,1.462552 4.264,0 9.3808,0 L33.2592,0 C37.5232,0 38.376,2.421952 38.376,6.8224 L38.376,10.2336 L40.0816,10.2336 C40.552772,10.2336 40.9344,10.615228 40.9344,11.0864 L40.9344,17.9088 C40.9344,18.379972 40.552772,18.7616 40.0816,18.7616 L38.376,18.7616 L38.376,24.5994424 L38.376,34.112 C38.376,36.9369 36.0841,37.5232 33.2592,37.5232 L7.6752,37.5232 C4.8503,37.5232 2.5584,36.9369 2.5584,34.112 L2.5584,24.5994424 L2.5584,18.7616 L0.8528,18.7616 C0.381628,18.7616 0,18.379972 0,17.9088 L0,11.0864 C0,10.615228 0.381628,10.2336 0.8528,10.2336 L2.5584,10.2336 Z" id="Bus-copy" stroke="#424242" stroke-width="3" fill="#FFFFFF"></path>
                        <path d="M30.3100522,7.01492174 C30.3100522,7.48609374 29.9284242,7.86772174 29.4572522,7.86772174 L11.5484522,7.86772174 C11.0772802,7.86772174 10.6956522,7.48609374 10.6956522,7.01492174 L10.6956522,5.30932174 C10.6956522,4.83814974 11.0772802,4.45652174 11.5484522,4.45652174 L29.4572522,4.45652174 C29.9284242,4.45652174 30.3100522,4.83814974 30.3100522,5.30932174 L30.3100522,7.01492174 Z" id="Path" fill="#FF5722"></path>
                        <path d="M32.6759304,25.9795338 L8.79753043,26.0460522 C7.09193043,26.0460522 6.23913043,25.1932522 6.23913043,23.4876522 L6.23913043,13.2540522 C6.23913043,11.5484522 7.09193043,10.6956522 8.79753043,10.6956522 L32.6759304,10.6956522 C34.3815304,10.6956522 35.2343304,11.5484522 35.2343304,13.2540522 L35.2343304,23.4876522 C35.2343304,25.1932522 33.568812,25.9795338 32.6759304,25.9795338 Z" id="Path" fill="#FF5722"></path>
                        <path d="M34.9648,31.1928 C34.9648,32.8416888 33.6288888,34.1776 31.98,34.1776 C30.3311112,34.1776 28.9952,32.8416888 28.9952,31.1928 C28.9952,29.5439112 30.3311112,28.208 31.98,28.208 C33.6288888,28.208 34.9648,29.5439112 34.9648,31.1928 L34.9648,31.1928 Z" id="Path" fill="#FF5722"></path>
                        <path d="M11.9392,31.1928 C11.9392,32.8416888 10.6032888,34.1776 8.9544,34.1776 C7.3055112,34.1776 5.9696,32.8416888 5.9696,31.1928 C5.9696,29.5439112 7.3055112,28.208 8.9544,28.208 C10.6032888,28.208 11.9392,29.5439112 11.9392,31.1928 L11.9392,31.1928 Z" id="Path" fill="#FF5722"></path>
                    </g>
                    <path d="M37.5232,36.736 L37.5232,39.2944 C37.5232,40.2354648 36.7586648,41 35.8176,41 L32.4064,41 C31.4653352,41 30.7008,40.2354648 30.7008,39.2944 L30.7008,37.5888 L37.5232,36.736 Z" id="Path" stroke="#424242" stroke-width="3" fill="#FF5722"></path>
                    <path d="M10.2336,37.5888 L10.2336,39.2944 C10.2336,40.2354648 9.4690648,41 8.528,41 L5.1168,41 C4.1757352,41 3.4112,40.2354648 3.4112,39.2944 L3.4112,36.736 L10.2336,37.5888 Z" id="Path" stroke="#424242" stroke-width="3" fill="#FF5722"></path>
                </g>
            </g>
        </g>
        <g id="Group-31" transform="translate(587.000000, 310.000000)">
            <rect id="Rectangle-49" fill="#FFFFFF" x="0" y="0" width="65" height="65"></rect>
            <g id="Group-23" transform="translate(12.000000, 11.000000)">
                <g id="Group-20">
                    <g id="Wedding-Gift">
                        <path d="M38.2951389,41.6865653 C38.2951389,42.8347998 37.2319861,43.7664615 35.9216944,43.7664615 L5.07830556,43.7664615 C3.76801389,43.7664615 2.70486111,42.8347998 2.70486111,41.6865653 L2.70486111,16.7357949 L38.2951389,16.7357949 L38.2951389,41.6865653 Z" id="Fill-1" stroke="#424242" stroke-width="3" fill="#FFFFFF"></path>
                        <path d="M31.4862917,13.2101538 L38.2951389,13.2101538 C39.6054306,13.2101538 40.6685833,14.2633333 40.6685833,15.5613333 L40.6685833,20.2614359 L31.4862917,20.2614359 L0.331416667,20.2614359 L0.331416667,15.5613333 C0.331416667,14.2633333 2.19273352,13.2101538 4.48672927,13.2101538 L31.4862917,13.2101538 Z" id="Combined-Shape" stroke="#424242" stroke-width="3" fill="#FFFFFF"></path>
                        <path d="M20.5,40.2385641 C15.913125,40.2385641 12.1963611,36.5566667 12.1963611,32.0128205 C12.1963611,27.4689744 15.913125,23.7870769 20.5,23.7870769 C25.086875,23.7870769 28.8036389,27.4689744 28.8036389,32.0128205 C28.8036389,36.5566667 25.086875,40.2385641 20.5,40.2385641 Z" id="Fill-5" fill="#FF5722"></path>
                        <path d="M20.5734583,41.4152821 L20.26425,41.4130256 C19.6435556,41.4023077 19.1407361,40.9239487 19.100875,40.320359 C18.865125,40.8709231 18.239875,41.1682051 17.6550556,40.9831795 C17.5457222,40.9504615 17.4392361,40.9149231 17.3344583,40.8776923 C16.7541944,40.6729231 16.435875,40.0665128 16.5827917,39.4849231 C16.1893056,39.9367692 15.5059722,40.0270256 15.0037222,39.6744615 C14.9103333,39.6084615 14.8186528,39.5424615 14.7298194,39.4719487 C14.2429444,39.0990769 14.1290556,38.4249744 14.4496528,37.9206667 C13.9291806,38.2309231 13.2486944,38.1034359 12.8814028,37.6121026 L12.694625,37.3543077 C12.341,36.8516923 12.4366667,36.1708205 12.8990556,35.7855385 C12.3096806,35.9220513 11.7026528,35.5937436 11.5067639,35.0138462 L11.4088194,34.7035897 C11.2197639,34.0819487 11.5779444,33.4275897 12.2054722,33.2403077 C12.2140139,33.2380513 12.223125,33.2357949 12.2316667,33.2335385 C12.223125,33.2357949 12.2117361,33.2357949 12.2009167,33.2335385 C11.5557361,33.2335385 11.0284306,32.7687179 11.0153333,32.1273333 L11.0153333,32.0105641 C11.0153333,31.9005641 11.0176111,31.79 11.0215972,31.6822564 C11.044375,31.0718974 11.53125,30.5873333 12.1320139,30.5517949 C11.5756667,30.3137436 11.2863889,29.6926667 11.4777222,29.1105128 C11.5113194,29.0072821 11.5489028,28.9012308 11.5870556,28.8002564 C11.7983194,28.2248718 12.4167361,27.9101026 12.9992778,28.066359 C12.5431528,27.6697949 12.4611528,26.9866667 12.8255972,26.4908205 L13.0237639,26.2307692 C13.4041528,25.7484615 14.0846389,25.6401538 14.5942917,25.9616923 C14.2873611,25.4461026 14.4183333,24.7765128 14.9165972,24.4171795 L15.1859444,24.2298974 C15.6950278,23.886359 16.3806389,23.9895897 16.7672917,24.4504615 C16.6340417,23.8666154 16.9677361,23.2669744 17.5548333,23.0774359 C17.6596111,23.0447179 17.7660972,23.0091795 17.8731528,22.9804103 C18.475625,22.8089231 19.1031528,23.1304615 19.3144167,23.7035897 C19.3480139,23.0909744 19.8502639,22.610359 20.4755139,22.610359 L20.5,22.610359 C20.6047778,22.610359 20.7089861,22.6126154 20.8114861,22.6171282 C21.4253472,22.6413846 21.9105139,23.1214359 21.9480972,23.7143077 C22.186125,23.1614872 22.811375,22.8704103 23.4053056,23.0599487 L23.7145139,23.1631795 C24.2947778,23.3707692 24.6130972,23.9788718 24.4639028,24.5604615 C24.8619444,24.1108718 25.5469861,24.0273846 26.0498056,24.3844615 C26.1409167,24.4504615 26.2320278,24.5164615 26.3214306,24.5847179 C26.8060278,24.9615385 26.9153611,25.635641 26.5924861,26.1382564 C27.1129583,25.8296923 27.7940139,25.96 28.1584583,26.4552821 L28.3475139,26.7221026 C28.694875,27.2269744 28.592375,27.9010769 28.1294167,28.2846667 C28.7148056,28.154359 29.3263889,28.4826667 29.5177222,29.0642564 L29.6156667,29.3773333 C29.7933333,29.9831795 29.4573611,30.6177949 28.8594444,30.8186154 C29.4864028,30.8406154 29.9915,31.3342051 29.9915,31.9665641 L29.9869444,32.2881026 C29.9670139,32.8984615 29.484125,33.3858462 28.8816528,33.4275897 C29.4351528,33.6611282 29.7312639,34.2782564 29.5467639,34.8575897 C29.5131667,34.9653333 29.4778611,35.073641 29.4374306,35.1768718 C29.2284444,35.7522564 28.6123056,36.0692821 28.0274861,35.9197949 C28.4853194,36.3141026 28.5724444,36.9972308 28.2119861,37.4953333 L28.0229306,37.7486154 C27.6516528,38.2376923 26.9643333,38.3567179 26.4478472,38.0351795 C26.7593333,38.5507692 26.6283611,39.2248718 26.1300972,39.5864615 L25.8784028,39.7647179 C25.3693194,40.1195385 24.6751667,40.0247692 24.2839583,39.5576923 C24.4194861,40.1437949 24.0857917,40.7473846 23.4986944,40.9391795 L23.1917639,41.0339487 C22.5665139,41.2189744 21.9145,40.8709231 21.7191806,40.2605641 C21.714625,40.8974359 21.2209167,41.4152821 20.5734583,41.4152821 Z M20.2819028,39.0618462 L20.3018333,39.0618462 L20.5,39.0641026 C21.0358472,39.0641026 21.509625,39.4144103 21.6679306,39.8972821 C21.6724861,39.3946667 22.001625,38.9321026 22.5129861,38.7797949 L22.7578472,38.7025128 C23.2293472,38.5462564 23.7344444,38.7070256 24.0368194,39.0641026 C23.9320417,38.6122564 24.1034444,38.1231795 24.5083194,37.8388718 L24.7286944,37.6848718 C25.1312917,37.3937949 25.6585972,37.3892821 26.0566389,37.6386154 C25.8163333,37.2397949 25.8294306,36.7196923 26.132375,36.3270769 L26.2878333,36.1177949 C26.5816667,35.7167179 27.0822083,35.5514359 27.5423194,35.6665128 C27.1841389,35.3579487 27.0355139,34.8530769 27.2063472,34.3837436 L27.2843611,34.1592308 C27.4335556,33.6853846 27.8606389,33.3700513 28.3321389,33.3373333 C27.8982222,33.1523077 27.6004028,32.7202051 27.6135,32.2221026 L27.6180556,32.0128205 C27.6180556,31.4949744 27.9563056,31.0386154 28.4278056,30.8778462 C27.9318194,30.8581026 27.48025,30.5297949 27.3333333,30.0294359 L27.2575972,29.7958974 C27.1021389,29.3265641 27.2621528,28.8284615 27.6226111,28.5289231 C27.1642083,28.6372308 26.6636667,28.4538974 26.3812222,28.044359 L26.2365833,27.8412821 C25.9410417,27.4407692 25.9387639,26.9161538 26.1921667,26.5218462 C25.7827361,26.7638462 25.2491667,26.7441026 24.8534028,26.4377949 L24.6597917,26.2945128 C24.2526389,26.004 24.0880694,25.5058974 24.2036667,25.0495385 C23.8921806,25.3998462 23.3825278,25.5453846 22.9133056,25.3778462 L22.673,25.2966154 C22.1992222,25.1443077 21.8883056,24.7212308 21.8569861,24.2564103 C21.6679306,24.6907692 21.2454028,25.0032821 20.720375,24.9660513 L20.5,24.9615385 C19.9886389,24.9615385 19.5456111,24.64 19.3742083,24.1904103 C19.3411806,24.6682051 19.0097639,25.0957949 18.5183333,25.2368205 L18.2842917,25.3095897 C17.8082361,25.4641538 17.3037083,25.3028205 17.0007639,24.9440513 C17.1032639,25.3998462 16.9255972,25.8934359 16.5116111,26.1715385 L16.3071806,26.3142564 C15.9000278,26.6075897 15.3704444,26.6075897 14.9724028,26.3588205 C15.2127083,26.7615897 15.1927778,27.2862051 14.8858472,27.676 L14.734375,27.8768205 C14.4382639,28.2778974 13.9360139,28.4341538 13.4798889,28.3218974 C13.8335139,28.6327179 13.9804306,29.1370256 13.8090278,29.6041026 L13.7287361,29.8382051 C13.5755556,30.3075385 13.1484722,30.6177949 12.6769722,30.6465641 C13.1103194,30.8338462 13.4064306,31.2704615 13.3887778,31.7657436 L13.3819444,32.0128205 C13.3819444,32.5571795 13.0083889,33.0485128 12.5010139,33.1917949 C13.0015556,33.1985641 13.51975,33.5065641 13.6780556,34.0289231 L13.7532222,34.2647179 C13.9115278,34.7340513 13.7555,35.2321538 13.3950417,35.5362051 C13.8534444,35.4346667 14.3494306,35.6044615 14.6341528,36.0077949 L14.7833472,36.2148205 C15.0811667,36.613641 15.0857222,37.1382564 14.836875,37.5348205 C15.24175,37.29 15.7753194,37.3080513 16.1733611,37.6121026 L16.3646944,37.7508718 C16.7764028,38.0396923 16.9478056,38.5394872 16.8322083,38.9958462 C17.143125,38.6387692 17.6527778,38.4909744 18.1265556,38.6607692 L18.3554722,38.7357949 C18.8338056,38.8835897 19.152125,39.3044103 19.1851528,39.7737436 C19.3702222,39.3551795 19.79275,39.0618462 20.2819028,39.0618462 L20.2819028,39.0618462 Z" id="Fill-6" fill="#FF5722"></path>
                        <path d="M22.8734444,2.63323077 C22.8734444,3.93123077 20.5,10.0765641 20.5,10.0765641 C20.5,10.0765641 18.1265556,3.93123077 18.1265556,2.63323077 C18.1265556,1.33523077 19.1897083,0.282051282 20.5,0.282051282 C21.8080139,0.282051282 22.8734444,1.33523077 22.8734444,2.63323077 Z M28.8036389,6.15887179 C28.0160972,7.19682051 22.3973889,10.7027179 22.3973889,10.7027179 C22.3973889,10.7027179 24.2213194,4.3785641 25.0065833,3.33835897 C25.7918472,2.30041026 27.2798056,2.08887179 28.3275833,2.86902564 C29.3776389,3.64466667 29.5911806,5.11866667 28.8036389,6.15887179 Z M16.4939583,3.12682051 C17.2279722,4.20425641 18.7295972,10.6118974 18.7295972,10.6118974 C18.7295972,10.6118974 13.2931111,6.83297436 12.5590972,5.75553846 C11.8273611,4.68035897 12.1120833,3.21933333 13.1974444,2.49220513 C14.2873611,1.76733333 15.7622222,2.05164103 16.4939583,3.12682051 Z M11.3421944,7.28707692 C12.5676389,7.74512821 17.5417361,12.1084615 17.5417361,12.1084615 C17.5417361,12.1084615 10.8997361,12.1456923 9.67144444,11.6898974 C8.446,11.2335385 7.82530556,9.8785641 8.28598611,8.66179487 C8.74609722,7.44558974 10.1144722,6.82846154 11.3421944,7.28707692 Z M31.3285556,11.6898974 C30.1025417,12.1456923 23.4605417,12.1084615 23.4605417,12.1084615 C23.4605417,12.1084615 28.4323611,7.74512821 29.6600833,7.28707692 C30.8855278,6.83071795 32.2561806,7.44558974 32.7162917,8.66010256 C33.1769722,9.87630769 32.5562778,11.2312821 31.3285556,11.6898974 Z" id="Stroke-7" stroke="#424242" stroke-width="3"></path>
                        <path d="M20.5,30.838359 C20.5,33.9719487 15.7553889,33.9719487 15.7553889,30.838359 C15.7553889,27.7025128 20.5,27.7025128 20.5,30.838359" id="Fill-9" fill="#FFFFFF"></path>
                        <path d="M25.2446111,30.838359 C25.2446111,33.9719487 20.5,33.9719487 20.5,30.838359 C20.5,27.7025128 25.2446111,27.7025128 25.2446111,30.838359" id="Fill-10" fill="#FFFFFF"></path>
                        <polyline id="Fill-11" fill="#FFFFFF" points="20.5 36.7129231 24.6842778 32.3541026 20.5 30.838359 16.2536528 32.2773846"></polyline>
                    </g>
                </g>
            </g>
        </g>
    </g>
</svg>