<?xml version="1.0" encoding="UTF-8"?>
<svg width="319px" height="234px" viewBox="0 0 319 234" version="1.1" xmlns="http://www.w3.org/2000/svg" xmlns:xlink="http://www.w3.org/1999/xlink">
    <!-- Generator: Sketch 47.1 (45422) - http://www.bohemiancoding.com/sketch -->
    <title>FLAT LAY</title>
    <desc>Created with Sketch.</desc>
    <defs></defs>
    <g id="Page-1" stroke="none" stroke-width="1" fill="none" fill-rule="evenodd">
        <g id="ILL_5" transform="translate(-33.000000, -227.000000)">
            <g id="FLAT-LAY" transform="translate(20.000000, 206.000000)">
                <g id="LAMP" transform="translate(0.000000, 20.000000)">
                    <g id="Group" transform="translate(78.440193, 116.302890) scale(-1, 1) translate(-78.440193, -116.302890) translate(0.440193, 0.802890)">
                        <rect id="Rectangle" fill="#0D5355" x="66.1799865" y="212.955903" width="62.4135691" height="13.2196102"></rect>
                        <rect id="Rectangle-11" fill="#3C898E" x="52.5471259" y="24.5705398" width="20.4178219" height="16.1038888" rx="2"></rect>
                        <rect id="Rectangle-11" fill="#3C898E" x="89.8460982" y="182.190265" width="20.4178219" height="16.1038888" rx="2"></rect>
                        <rect id="Rectangle-11" fill="#3C898E" x="122.793038" y="85.8072882" width="20.4178219" height="16.1038888" rx="2"></rect>
                        <rect id="Rectangle-11" fill="#3C898E" x="95.6466158" y="195.890588" width="9.97689023" height="16.1038888" rx="2"></rect>
                        <path d="M43.2036841,41.6403769 C56.6434646,44.0479786 54.3215805,50.5917051 57.5391086,47.4961055 C59.7630283,45.3564613 58.2568455,32.8875378 58.2568455,31.0086507 C58.2568455,26.0687298 55.2017379,12.5626101 44.1180705,12.7406404 C33.0344031,12.9186708 30.3505596,26.1007813 29.8707637,31.0086507 C29.5070102,34.7295134 27.5341892,41.9357941 28.754094,45.3574802 C29.9739988,48.7791662 30.2328429,39.316781 43.2036841,41.6403769 Z" id="Oval-6" fill="#3C898E" transform="translate(43.557968, 30.525282) rotate(-340.000000) translate(-43.557968, -30.525282) "></path>
                        <ellipse id="Oval-6" fill="#3C898E" cx="97.3867711" cy="211.994477" rx="31.2067846" ry="5.52820064"></ellipse>
                        <path d="M35.4372434,78.1158786 C51.2627181,78.1158786 64.0918002,75.6901777 64.0918002,72.697924 C64.0918002,70.7881333 60.7892706,45.2696545 46.9600327,37.580948 C38.6582314,32.9653565 28.5035323,36.0647154 25.3064754,36.6881913 C10.010482,39.6711485 6.78268653,69.7056702 6.78268653,72.697924 C6.78268653,75.6901777 19.6117686,78.1158786 35.4372434,78.1158786 Z" id="Oval-6" fill="#0D5355" transform="translate(35.437243, 56.603967) rotate(22.000000) translate(-35.437243, -56.603967) "></path>
                        <ellipse id="Oval-6" fill="#3C898E" transform="translate(29.868746, 68.862151) rotate(22.000000) translate(-29.868746, -68.862151) " cx="29.8687465" cy="68.8621515" rx="24.9422256" ry="4.68695272"></ellipse>
                        <ellipse id="Oval-6" fill="#0D5355" cx="97.3867711" cy="225.214087" rx="31.2067846" ry="5.52820064"></ellipse>
                        <path d="M50.2238032,19.1376172 C61.4065213,20.4715586 59.474572,24.0971369 62.1517518,22.3820073 C64.0021888,21.1965288 62.7489528,14.2880712 62.7489528,13.2470662 C62.7489528,10.510083 60.2069167,3.02696258 50.9846286,3.12560103 C41.7623404,3.22423948 39.5292187,10.5278412 39.1299992,13.2470662 C38.8273341,15.3086252 37.1858266,19.3012943 38.2008619,21.1970933 C39.2158972,23.0928923 39.4312712,17.8502194 50.2238032,19.1376172 Z" id="Oval-6" fill="#0D5355" transform="translate(50.518589, 12.979254) rotate(-345.000000) translate(-50.518589, -12.979254) "></path>
                        <path d="M71.222108,37.0149087 L139.096821,96.941643" id="Line-2" stroke="#3C898E" stroke-width="4" stroke-linecap="square"></path>
                        <path d="M132.234156,93.0179847 L94.4916021,186.465255" id="Line-2" stroke="#3C898E" stroke-width="4" stroke-linecap="square"></path>
                        <path d="M71.0524213,27.6410032 L137.241921,85.8072882" id="Line-2" stroke="#3C898E" stroke-width="4" stroke-linecap="square"></path>
                        <path d="M29.7621839,72.5874229 C35.3395432,72.5567885 38.1206217,69.8561038 38.1054195,64.485369 C35.7887625,64.2797318 32.9308428,64.1763459 29.5316603,64.1752114 C26.1324778,64.1740768 23.4219219,64.2494473 21.3999926,64.4013228 C21.3974275,69.8893573 24.1848247,72.6180574 29.7621839,72.5874229 Z" id="Oval-7" fill="#FFB74C" transform="translate(29.752736, 68.381438) rotate(-339.000000) translate(-29.752736, -68.381438) "></path>
                        <path d="M56.6671377,18.9824639 C58.3466156,18.9296455 60.3570203,18.742316 62.6983517,18.4204753 C63.2929983,18.3387349 66.6374118,17.038759 68.4172497,17.3552109 C70.8590664,17.7893613 70.3781918,19.1858025 70.1865612,20.2026716 C70.0407903,20.9761914 68.3653829,23.1351598 65.1603391,26.679577" id="Line" stroke="#FD3C3C" stroke-width="3" stroke-linecap="square" transform="translate(63.511748, 21.992624) rotate(-37.000000) translate(-63.511748, -21.992624) "></path>
                        <path d="M137.686724,85.6498354 C138.024246,83.16748 139.273168,81.7487425 141.433488,81.3936229 C143.487864,81.0559186 146.019839,81.0662951 147.35069,83.6847555 C147.633061,84.2403222 147.920968,85.5548367 146.930794,86.5208838 C143.254144,90.1079463 133.23236,100.904088 131.574951,103.819687 C124.802845,115.732708 123.504116,158.332972 122.135599,167.57642 C119.753985,183.662686 108.948543,190.15972 107.580348,190.609076 C106.668218,190.908646 105.319875,190.920611 103.53532,190.644971" id="Line" stroke="#FD3C3C" stroke-width="3" stroke-linecap="square" transform="translate(125.577286, 136.041807) rotate(-8.000000) translate(-125.577286, -136.041807) "></path>
                        <path d="M139.194777,96.8636895 L101.452223,190.31096" id="Line-2" stroke="#3C898E" stroke-width="4" stroke-linecap="square"></path>
                    </g>
                </g>
                <g id="COFFEE" transform="translate(158.742655, 76.272321)">
                    <ellipse id="Oval-4" fill="#FD3C3C" cx="39.2720076" cy="37.7090405" rx="39.2720076" ry="37.7090405"></ellipse>
                    <rect id="Rectangle-6" fill="#FFB74C" transform="translate(60.816359, 55.116912) rotate(45.000000) translate(-60.816359, -55.116912) " x="54.6267491" y="51.2230437" width="12.3792198" height="7.78773663" rx="3.89386832"></rect>
                    <ellipse id="Oval-4" fill="#FFB74C" cx="39.1652902" cy="37.6065703" rx="25.5054615" ry="24.4903823"></ellipse>
                    <ellipse id="Oval-4" fill="#3C898E" cx="39.1652902" cy="37.6065703" rx="21.6636347" ry="20.8014544"></ellipse>
                    <path d="M33.0851947,52.455229 C42.9775657,52.455229 50.9969168,44.755036 50.9969168,35.2563666 C50.9969168,25.7576971 50.9969168,48.0577831 33.0851947,48.2470246 C15.1734725,48.4362661 15.1734725,25.7576971 15.1734725,35.2563666 C15.1734725,44.755036 23.1928237,52.455229 33.0851947,52.455229 Z" id="Oval-4" fill="#0D5355" transform="translate(33.085195, 42.678685) rotate(49.000000) translate(-33.085195, -42.678685) "></path>
                </g>
                <g id="HEADPHONE-WIRE" transform="translate(257.279018, 95.120846)">
                    <path d="M62.9207904,0.0616658347 C76.3449942,20.4430677 76.3449942,48.3321116 62.9207904,83.7287974 C42.7844847,136.823826 14.4349589,109.094084 7.65316164,100.283851 C0.871364348,91.4736188 0.0312995673,74.1054832 7.65316164,58.333617 C15.2750237,42.5617509 32.3471348,34.2715667 38.7049479,54.410879 C42.94349,67.8370873 32.5928946,97.5387617 7.65316164,143.515902" id="Line" stroke="#FD3C3C" stroke-width="3" stroke-linecap="square"></path>
                    <path d="M7.37194548,138.979937 L10.8691375,140.4182 C11.8348604,140.815365 12.2854236,141.895835 11.8754985,142.831498 L8.4942059,150.54937 C8.08428085,151.485033 6.96909783,151.921571 6.00337492,151.524406 L2.50618291,150.086143 C1.54046,149.688978 1.08989682,148.608508 1.49982187,147.672845 L4.88111451,139.954973 C5.29103956,139.01931 6.40622257,138.582772 7.37194548,138.979937 Z" id="Rectangle-8" fill="#FFB74C"></path>
                    <path d="M5.23520757,148.766951 C6.09362793,149.119987 6.49412854,150.080405 6.12975071,150.912105 L3.24328139,157.500533 C2.87890357,158.332233 1.88762978,158.720267 1.02920941,158.367231 C0.170789051,158.014195 -0.229711557,157.053777 0.134666268,156.222077 L3.02113559,149.63365 C3.38551342,148.801949 4.37678721,148.413915 5.23520757,148.766951 Z" id="Rectangle-9" fill="#3C898E"></path>
                </g>
                <g id="HEADPHONES" transform="translate(271.343244, 69.438685) scale(-1, 1) rotate(8.000000) translate(-271.343244, -69.438685) translate(215.343244, 7.438685)">
                    <path d="M92.9858537,79.7327444 C104.962016,36.8851847 95.6032465,15.548002 64.9095462,15.7211964 C34.2158459,15.8943907 23.1851554,36.2664786 31.8174747,76.8374601 L41.8962066,78.2740476 C35.4070973,40.9558547 43.3011363,22.5108787 65.5783236,22.9391195 C87.8555109,23.3673603 93.272225,42.0279801 81.828466,78.9209789 L92.9858537,79.7327444 Z" id="Oval-5" fill="#3C898E" transform="translate(63.501541, 47.726447) rotate(30.000000) translate(-63.501541, -47.726447) "></path>
                    <path d="M94.8386934,76.2862681 C106.215959,34.5613934 96.5577413,13.7855533 65.8640409,13.9587476 C35.1703406,14.131942 23.7865408,36.0623989 31.7126416,79.7501183 L38.4472106,78.4485778 C31.208158,39.2797962 40.3471015,19.6313252 65.8640409,19.5031646 C91.3809804,19.375004 98.6886134,38.3027052 87.7869401,76.2862681 L94.8386934,76.2862681 Z" id="Oval-5" fill="#0D5355" transform="translate(64.363206, 46.853896) rotate(30.000000) translate(-64.363206, -46.853896) "></path>
                    <rect id="Rectangle-7" fill="#0D5355" transform="translate(19.471403, 78.224926) rotate(16.000000) translate(-19.471403, -78.224926) " x="6.01568739" y="57.5134698" width="26.9114312" height="41.4229126" rx="13.4557156"></rect>
                    <rect id="Rectangle-7" fill="#0D5355" transform="translate(60.249665, 99.213731) rotate(45.000000) translate(-60.249665, -99.213731) " x="46.7939493" y="78.5022752" width="26.9114312" height="41.4229126" rx="13.4557156"></rect>
                    <path d="M51.974642,67.5504225 L51.974642,67.5504225 L51.974642,67.5504225 C55.0634532,67.377905 57.7072824,69.7420282 57.8797999,72.8308394 C57.8856098,72.9348615 57.8885164,73.0390256 57.8885164,73.1432099 L57.8885164,107.60559 L57.8885164,107.60559 C57.8885164,110.808312 55.3117555,113.414912 52.1092457,113.451785 L52.1092457,113.451785 L52.1092457,113.451785 C48.9353129,113.488329 46.3327074,110.944973 46.2961635,107.77104 C46.2960396,107.760285 46.295946,107.749529 46.2958826,107.738773 L46.0957062,73.8037148 L46.0957062,73.8037148 C46.0761346,70.4858114 48.661844,67.7354502 51.974642,67.5504225 Z" id="Rectangle-7" fill="#3C898E" transform="translate(51.992056, 90.496862) rotate(45.000000) translate(-51.992056, -90.496862) "></path>
                    <path d="M27.3369671,58.1365458 L27.3369671,58.1365458 L27.3369671,58.1365458 C30.4257783,57.9640283 33.0696075,60.3281515 33.242125,63.4169626 C33.2479349,63.5209848 33.2508415,63.6251488 33.2508415,63.7293331 L33.2508415,98.1917135 L33.2508415,98.1917135 C33.2508415,101.394436 30.6740806,104.001035 27.4715708,104.037908 L27.4715708,104.037908 L27.4715708,104.037908 C24.297638,104.074452 21.6950325,101.531096 21.6584886,98.3571633 C21.6583648,98.3464079 21.6582711,98.3356522 21.6582077,98.3248963 L21.4580313,64.389838 L21.4580313,64.389838 C21.4384597,61.0719347 24.0241692,58.3215735 27.3369671,58.1365458 Z" id="Rectangle-7" fill="#3C898E" transform="translate(27.354381, 81.082985) rotate(16.000000) translate(-27.354381, -81.082985) "></path>
                </g>
                <g id="PENCILS" transform="translate(99.000000, 128.000000)">
                    <g id="Group-2" transform="translate(3.821242, 61.126961) rotate(-90.000000) translate(-3.821242, -61.126961) translate(-56.678758, 57.626961)">
                        <path d="M3.55288294,6.67592484 C3.96812836,6.67592484 7.8289703,6.67592484 8.2912316,6.67592484 C9.78943058,6.67592484 7.10576588,4.81506402 7.10576588,3.37997925 C7.10576588,2.10696701 8.74410629,0.383028177 7.56644838,0.0840336652 C7.01728563,-0.0553927751 7.90232932,0.00312909192 3.55288294,0.0840336652 C1.59108048,0.120525388 0,1.55967877 0,3.37997925 C0,5.20027973 1.59067987,6.67592484 3.55288294,6.67592484 Z" id="Oval-3" fill="#FD3C3C"></path>
                        <path d="M120.37211,3.33796242 L111.406118,6.67592484 C103.880902,5.01911979 100.118294,3.82855639 100.118294,3.10423463 C100.118294,2.37991286 103.880902,1.34516799 111.406118,0 L120.37211,3.33796242 Z" id="Triangle-2" fill="#FFB74C"></path>
                        <path d="M116.459441,4.76851774 L116.459441,4.76851774 C118.914449,4.4908337 120.141953,4.01398193 120.141953,3.33796242 C120.141953,2.66194291 118.914449,2.18509114 116.459441,1.9074071 L116.46526,1.90951196 L116.46526,1.90951196 C117.254175,2.19487976 117.662381,3.06575811 117.377013,3.85467321 C117.222825,4.28093536 116.886327,4.61606586 116.459441,4.76851774 Z" id="Triangle-2" fill="#25585B"></path>
                        <path d="M7.02047438,-2.4845834e-14 L111.267148,-2.4845834e-14 L111.267148,-2.4845834e-14 L111.267148,-2.48412402e-14 C111.337223,-3.26962253e-14 111.394029,0.0568069071 111.394029,0.126881778 C111.394029,0.188893477 111.349206,0.241820161 111.288041,0.252031501 C108.631944,0.695410769 107.332833,1.72406996 107.3907,3.33796242 C107.447877,4.93260372 108.747907,5.95589028 111.290789,6.4078221 L111.290784,6.40785333 C111.364234,6.42090724 111.413195,6.49103286 111.400141,6.56448327 C111.388683,6.62895628 111.332631,6.67592484 111.267148,6.67592484 L111.267148,6.67592484 L7.02047438,6.67592484 L7.02047438,6.67592484 C5.17696865,6.67592484 3.68251197,5.18146816 3.68251197,3.33796242 L3.68251197,3.33796242 L3.68251197,3.33796242 C3.68251197,1.49445668 5.17696865,-2.45303492e-14 7.02047438,-2.48689958e-14 Z" id="Rectangle-5" fill="#3C898E"></path>
                        <path d="M107.372879,3.33796242 L107.372879,3.33796242 L107.372879,3.33796242 C107.395478,4.35792574 108.026648,5.26520091 108.975099,5.64106952 C110.099194,6.08656297 110.770984,6.32392858 110.990464,6.35318149 C111.262361,6.38942078 111.394998,6.41387682 111.39598,6.54428239 C111.39664,6.63204402 111.352599,6.67592484 111.263856,6.67592484 L7.02047438,6.67592484 L7.02047438,6.67592484 C5.17696865,6.67592484 3.68251197,5.18146816 3.68251197,3.33796242 L3.68251197,3.33796242 L107.372879,3.33796242 Z" id="Rectangle-5" fill="#0D5355"></path>
                    </g>
                    <g id="Group-2" transform="translate(19.037643, 61.641566) rotate(90.000000) translate(-19.037643, -61.641566) translate(-41.462357, 58.141566)">
                        <path d="M3.55288294,6.67592484 C3.96812836,6.67592484 7.8289703,6.67592484 8.2912316,6.67592484 C9.78943058,6.67592484 7.10576588,4.81506402 7.10576588,3.37997925 C7.10576588,2.10696701 8.74410629,0.383028177 7.56644838,0.0840336652 C7.01728563,-0.0553927751 7.90232932,0.00312909192 3.55288294,0.0840336652 C1.59108048,0.120525388 0,1.55967877 0,3.37997925 C0,5.20027973 1.59067987,6.67592484 3.55288294,6.67592484 Z" id="Oval-3" fill="#FD3C3C"></path>
                        <path d="M120.37211,3.33796242 L111.406118,6.67592484 C103.880902,5.01911979 100.118294,3.82855639 100.118294,3.10423463 C100.118294,2.37991286 103.880902,1.34516799 111.406118,0 L120.37211,3.33796242 Z" id="Triangle-2" fill="#FFB74C"></path>
                        <path d="M116.459441,4.76851774 L116.459441,4.76851774 C118.914449,4.4908337 120.141953,4.01398193 120.141953,3.33796242 C120.141953,2.66194291 118.914449,2.18509114 116.459441,1.9074071 L116.46526,1.90951196 L116.46526,1.90951196 C117.254175,2.19487976 117.662381,3.06575811 117.377013,3.85467321 C117.222825,4.28093536 116.886327,4.61606586 116.459441,4.76851774 Z" id="Triangle-2" fill="#25585B"></path>
                        <path d="M7.02047438,-2.4845834e-14 L111.267148,-2.4845834e-14 L111.267148,-2.4845834e-14 L111.267148,-2.48412402e-14 C111.337223,-1.70120002e-14 111.394029,0.0568069071 111.394029,0.126881778 C111.394029,0.188893477 111.349206,0.241820161 111.288041,0.252031501 C108.631944,0.695410769 107.332833,1.72406996 107.3907,3.33796242 C107.447877,4.93260372 108.747907,5.95589028 111.290789,6.4078221 L111.290784,6.40785333 C111.364234,6.42090724 111.413195,6.49103286 111.400141,6.56448327 C111.388683,6.62895628 111.332631,6.67592484 111.267148,6.67592484 L111.267148,6.67592484 L7.02047438,6.67592484 L7.02047438,6.67592484 C5.17696865,6.67592484 3.68251197,5.18146816 3.68251197,3.33796242 L3.68251197,3.33796242 L3.68251197,3.33796242 C3.68251197,1.49445668 5.17696865,-2.45303492e-14 7.02047438,-2.48689958e-14 Z" id="Rectangle-5" fill="#3C898E"></path>
                        <path d="M107.372879,3.33796242 L107.372879,3.33796242 L107.372879,3.33796242 C107.395478,4.35792574 108.026648,5.26520091 108.975099,5.64106952 C110.099194,6.08656297 110.770984,6.32392858 110.990464,6.35318149 C111.262361,6.38942078 111.394998,6.41387682 111.39598,6.54428239 C111.39664,6.63204402 111.352599,6.67592484 111.263856,6.67592484 L7.02047438,6.67592484 L7.02047438,6.67592484 C5.17696865,6.67592484 3.68251197,5.18146816 3.68251197,3.33796242 L3.68251197,3.33796242 L107.372879,3.33796242 Z" id="Rectangle-5" fill="#0D5355"></path>
                    </g>
                </g>
                <g id="NOTEBOOK" transform="translate(166.415132, 163.336235)">
                    <path d="M8.13454581,13.2643539 C12.6271314,13.2643539 16.2690916,11.7964935 16.2690916,9.98579591 C16.2690916,8.17509832 12.6271314,10.6682405 8.13454581,10.6682405 C3.64196021,10.6682405 0,8.17509832 0,9.98579591 C0,11.7964935 3.64196021,13.2643539 8.13454581,13.2643539 Z" id="Oval-2" fill="#25585B" transform="translate(8.134546, 11.295426) scale(1, -1) translate(-8.134546, -11.295426) "></path>
                    <path d="M8.13454581,34.8189291 C12.6271314,34.8189291 16.2690916,33.3510686 16.2690916,31.5403711 C16.2690916,29.7296735 12.6271314,32.2228156 8.13454581,32.2228156 C3.64196021,32.2228156 0,29.7296735 0,31.5403711 C0,33.3510686 3.64196021,34.8189291 8.13454581,34.8189291 Z" id="Oval-2" fill="#25585B" transform="translate(8.134546, 32.850002) scale(1, -1) translate(-8.134546, -32.850002) "></path>
                    <path d="M8.13454581,79.5861236 C12.6271314,79.5861236 16.2690916,78.1182632 16.2690916,76.3075656 C16.2690916,74.496868 12.6271314,76.9900101 8.13454581,76.9900101 C3.64196021,76.9900101 0,74.496868 0,76.3075656 C0,78.1182632 3.64196021,79.5861236 8.13454581,79.5861236 Z" id="Oval-2" fill="#25585B" transform="translate(8.134546, 77.617196) scale(1, -1) translate(-8.134546, -77.617196) "></path>
                    <path d="M8.13454581,56.5807597 C12.6271314,56.5807597 16.2690916,55.1128993 16.2690916,53.3022017 C16.2690916,51.4915041 12.6271314,53.9846463 8.13454581,53.9846463 C3.64196021,53.9846463 0,51.4915041 0,53.3022017 C0,55.1128993 3.64196021,56.5807597 8.13454581,56.5807597 Z" id="Oval-2" fill="#25585B" transform="translate(8.134546, 54.611832) scale(1, -1) translate(-8.134546, -54.611832) "></path>
                    <rect id="Rectangle-4" fill="#3C898E" x="8.13454581" y="0" width="62.2934956" height="90.3634112" rx="10"></rect>
                    <rect id="Rectangle-4" fill="#0D5355" x="8.13454581" y="0" width="56.5136867" height="90.3634112" rx="10"></rect>
                    <path d="M8.13454581,15.9586758 C12.6271314,15.9586758 16.2690916,14.4908154 16.2690916,12.6801178 C16.2690916,10.8694202 12.6271314,13.3625624 8.13454581,13.3625624 C3.64196021,13.3625624 0,10.8694202 0,12.6801178 C0,14.4908154 3.64196021,15.9586758 8.13454581,15.9586758 Z" id="Oval-2" fill="#3C898E"></path>
                    <path d="M8.13454581,37.513251 C12.6271314,37.513251 16.2690916,36.0453905 16.2690916,34.2346929 C16.2690916,32.4239953 12.6271314,34.9171375 8.13454581,34.9171375 C3.64196021,34.9171375 0,32.4239953 0,34.2346929 C0,36.0453905 3.64196021,37.513251 8.13454581,37.513251 Z" id="Oval-2" fill="#3C898E"></path>
                    <path d="M8.13454581,59.0678261 C12.6271314,59.0678261 16.2690916,57.5999657 16.2690916,55.7892681 C16.2690916,53.9785705 12.6271314,56.4717127 8.13454581,56.4717127 C3.64196021,56.4717127 0,53.9785705 0,55.7892681 C0,57.5999657 3.64196021,59.0678261 8.13454581,59.0678261 Z" id="Oval-2" fill="#3C898E"></path>
                    <path d="M8.13454581,82.07319 C12.6271314,82.07319 16.2690916,80.6053295 16.2690916,78.7946319 C16.2690916,76.9839343 12.6271314,79.4770765 8.13454581,79.4770765 C3.64196021,79.4770765 0,76.9839343 0,78.7946319 C0,80.6053295 3.64196021,82.07319 8.13454581,82.07319 Z" id="Oval-2" fill="#3C898E"></path>
                </g>
                <g id="WATCH" transform="translate(136.000000, 121.000000)">
                    <path d="M4.10869565,12.1159001 L16.4347826,12.1159001 L16.4347826,126.03184 L16.4347826,126.03184 C16.4347826,129.435595 13.6754941,132.194884 10.2717391,132.194884 L10.2717391,132.194884 L10.2717391,132.194884 C6.8679842,132.194884 4.10869565,129.435595 4.10869565,126.03184 L4.10869565,12.1159001 Z" id="Rectangle-14" fill="#0D5355"></path>
                    <rect id="Rectangle-2" fill="#FD3C3C" x="1.59782609" y="20.727142" width="17.576087" height="4.30562093" rx="2.15281047"></rect>
                    <rect id="Rectangle-2" fill="#FD3C3C" x="1.59782609" y="26.7071711" width="17.576087" height="4.30562093" rx="2.15281047"></rect>
                    <ellipse id="Oval-8" fill="#FFB74C" cx="10.5" cy="61.3913397" rx="10.5" ry="11.0032535"></ellipse>
                    <ellipse id="Oval-8" fill="#3C898E" cx="10.5" cy="61.3913397" rx="8.67391304" ry="9.08964419"></ellipse>
                    <ellipse id="Oval-8" fill="#FD3C3C" cx="10.3858696" cy="106.241558" rx="1.71195652" ry="1.79400872"></ellipse>
                    <ellipse id="Oval-8" fill="#FD3C3C" cx="10.3858696" cy="112.93919" rx="1.71195652" ry="1.79400872"></ellipse>
                    <ellipse id="Oval-8" fill="#FD3C3C" cx="10.3858696" cy="119.397622" rx="1.71195652" ry="1.79400872"></ellipse>
                    <rect id="Rectangle-15" fill="#FD3C3C" x="4.10869565" y="5.1790664" width="12.326087" height="1.43520698" rx="0.717603489"></rect>
                    <rect id="Rectangle-15" fill="#FD3C3C" transform="translate(4.793478, 11.637498) rotate(90.000000) translate(-4.793478, -11.637498) " x="-1.36956522" y="10.9198943" width="12.326087" height="1.43520698" rx="0.717603489"></rect>
                    <rect id="Rectangle-15" fill="#FD3C3C" transform="translate(15.978261, 11.637498) rotate(90.000000) translate(-15.978261, -11.637498) " x="9.81521739" y="10.9198943" width="12.326087" height="1.43520698" rx="0.717603489"></rect>
                    <rect id="Rectangle-15" fill="#FD3C3C" transform="translate(10.271739, 6.614273) rotate(90.000000) translate(-10.271739, -6.614273) " x="4.10869565" y="5.89666989" width="12.326087" height="1.43520698" rx="0.717603489"></rect>
                    <rect id="Rectangle-15" fill="#0D5355" x="10.2717391" y="60.1953339" width="5.70652174" height="1.19600581" rx="0.598002907"></rect>
                    <rect id="Rectangle-15" fill="#0D5355" transform="translate(10.385949, 57.205319) rotate(90.000000) translate(-10.385949, -57.205319) " x="6.84790589" y="56.6073164" width="7.07608696" height="1.19600581" rx="0.598002907"></rect>
                </g>
                <g id="STICKY-NOTE" transform="translate(287.000000, 222.000000)">
                    <path d="M11.1237299,0.227586207 L30,0.227586207 L30,0.227586207 C31.1045695,0.227586207 32,1.12301671 32,2.22758621 L32,31 L32,31 C32,32.1045695 31.1045695,33 30,33 L2,33 L2,33 C0.8954305,33 1.87533573e-15,32.1045695 -2.22044605e-16,31 L0,10.6413757 L-2.22044605e-16,10.6413757 C-2.90444856e-16,10.0828452 0.233553975,9.54976005 0.644146035,9.17111719 L9.76787597,0.757327717 L9.76787597,0.757327717 C10.1372405,0.416704418 10.6212816,0.227586207 11.1237299,0.227586207 Z" id="Rectangle-16" fill="#0D5355"></path>
                    <path d="M11.1758467,0.227586207 L24.6666667,0.227586207 L24.6666667,0.227586207 C25.7712362,0.227586207 26.6666667,1.12301671 26.6666667,2.22758621 L26.6666667,25.537931 L26.6666667,25.537931 C26.6666667,26.6425005 25.7712362,27.537931 24.6666667,27.537931 L2,27.537931 L2,27.537931 C0.8954305,27.537931 -8.67738547e-17,26.6425005 -2.22044605e-16,25.537931 L0,10.7626796 L-4.4408921e-16,10.7626796 C-1.005543e-15,10.2071385 0.231068961,9.67662758 0.637841571,9.29826008 L9.81368831,0.763166726 L9.81368831,0.763166726 C10.1837581,0.418939078 10.6704317,0.227586207 11.1758467,0.227586207 Z" id="Rectangle-16" fill="#3C898E"></path>
                    <polygon id="Triangle" fill="#0D5355" points="10.4444444 9.7862069 10.4444444 0 0 9.7862069"></polygon>
                    <g id="Group-10">
                        <path d="M13.4679714,0.227586207 L24,0.227586207 L24,0.227586207 C28.418278,0.227586207 32,3.80930821 32,8.22758621 L32,25 L32,25 C32,29.418278 28.418278,33 24,33 L8,33 L8,33 C3.581722,33 1.61501417e-15,29.418278 -8.8817842e-16,25 L0,13.2700809 L1.77635684e-15,13.2700809 C1.50275583e-15,11.0359592 0.934215899,8.9036184 2.57658414,7.38904697 L8.04455552,2.34655225 L8.04455552,2.34655225 C9.52201345,0.984059052 11.458178,0.227586207 13.4679714,0.227586207 Z" id="Rectangle-16" fill="#25585B"></path>
                        <path d="M13.5349579,0.227586207 L18.6666667,0.227586207 L18.6666667,0.227586207 C23.0849447,0.227586207 26.6666667,3.80930821 26.6666667,8.22758621 L26.6666667,19.537931 L26.6666667,19.537931 C26.6666667,23.956209 23.0849447,27.537931 18.6666667,27.537931 L8,27.537931 L8,27.537931 C3.581722,27.537931 1.61501417e-15,23.956209 -8.8817842e-16,19.537931 L0,13.3760356 L3.55271368e-15,13.3760356 C3.28057702e-15,11.1538711 0.924275845,9.03182763 2.55136628,7.51835763 L8.08632415,2.36990828 L8.08632415,2.36990828 C9.56660329,0.992997691 11.5132979,0.227586207 13.5349579,0.227586207 Z" id="Rectangle-16" fill="#3C898E"></path>
                        <path d="M10.4444444,1.7862069 L10.4444444,0 L0,9.7862069 L2.44444444,9.7862069 L2.44444444,9.7862069 C6.86272244,9.7862069 10.4444444,6.2044849 10.4444444,1.7862069 Z" id="Triangle" fill="#25585B"></path>
                    </g>
                </g>
                <g id="MOUSE" transform="translate(180.500000, 53.000000) rotate(90.000000) translate(-180.500000, -53.000000) translate(167.000000, 29.000000)">
                    <rect id="Rectangle-17" fill="#0D5355" x="0" y="3.72767489" width="26.9590774" height="44.1995737" rx="13.4795387"></rect>
                    <rect id="Rectangle-17" fill="#3C898E" x="0" y="0.266262492" width="26.9590774" height="44.1995737" rx="13.4795387"></rect>
                    <rect id="Rectangle-15" fill="#FD3C3C" x="0" y="13.3131246" width="26.9590774" height="1.59757495" rx="0.798787477"></rect>
                    <path d="M14.4990554,0.357260857 L14.4990554,13.7902691 C14.4990554,13.9875788 14.3150617,14.1475299 14.0880939,14.1475299 L12.9374015,14.1475299 C12.7104337,14.1475299 12.52644,13.9875788 12.52644,13.7902691 L12.52644,0.357260857 C12.52644,0.159951134 12.7104337,0 12.9374015,0 L14.0880939,0 C14.3150617,0 14.4990554,0.159951134 14.4990554,0.357260857 Z" id="Rectangle-15" fill="#FD3C3C"></path>
                    <path d="M15.2695045,5.38388843 L15.2695045,8.84931874 C15.2695045,9.32286208 14.8279195,9.7067448 14.2831968,9.7067448 L12.9681199,9.7067448 C12.4233972,9.7067448 11.9818122,9.32286208 11.9818122,8.84931874 L11.9818122,5.38388843 C11.9818122,4.91034509 12.4233972,4.52646237 12.9681199,4.52646237 L14.2831968,4.52646237 C14.8279195,4.52646237 15.2695045,4.91034509 15.2695045,5.38388843 Z" id="Rectangle-15" fill="#FFB74C"></path>
                </g>
                <g id="GLASSES" transform="translate(69.500000, 138.500000) scale(1, -1) rotate(-90.000000) translate(-69.500000, -138.500000) translate(22.000000, 124.000000)">
                    <path d="M51.4390244,10.1836191 L35.7920489,10.5505002 C29.356378,10.3059128 24.9823647,10.5090471 22.6700091,11.159903 C19.2014757,12.1361869 18.0182465,13.3669847 17.2533942,13.8310994 C16.4885418,14.2952141 9.75285758,20.8237086 7.81511768,22.497293 C5.87737778,24.1708774 4.19771198,25.3642685 3.43575971,25.765094 C2.67380745,26.1659195 1.36076702,26.4847158 0.837967999,26.1676271 C0.516071801,25.9723903 -0.582473547,25.6119569 0.398729253,23.9230708 C1.37993205,22.2341847 1.72944647,22.4309392 4.0490146,20.6406433 C5.59539336,19.4471127 7.30688988,18.2811582 9.18350418,17.1427798 C11.0934251,15.7514875 13.4813974,14.0762358 16.3474211,12.1170247 C20.6464566,9.17820807 23.3152445,8.81746299 25.2367104,8.6956788 C26.5176877,8.61448934 30.4426541,8.61448934 37.0116096,8.6956788 L50.9861771,7.86440678 L51.4390244,10.1836191 Z" id="Path-3" fill="#FD3C3C"></path>
                    <path d="M44.2287036,5.65254237 L3.93902439,5.65254237 L3.93902439,8.3559322 L44.4820978,8.3559322 L44.4820978,7.38567996 L48.9430619,7.38567996 L52.7325334,8.25457913 L55.3780488,7.38567996 L49.6766791,5.65254237 L44.2287036,5.65254237 Z" id="Combined-Shape" fill="#FD3C3C"></path>
                    <rect id="Rectangle-12" fill="#FD3C3C" x="50.9756098" y="7.61864407" width="40.5487805" height="2.70338983"></rect>
                    <path d="M69.9756098,9.83050847 C72.54936,10.1486049 74.962009,11.2563548 77.2135567,13.1537582 C80.5908782,15.9998632 78.5551077,14.2537425 82.8374252,17.8607485 C87.1197428,21.4677545 90.4939048,24.7456048 91.4913702,25.6491293 C92.4888356,26.5526538 94.2052852,27.0968914 94.8358467,25.6491293 C95.4664081,24.2013672 94.1134248,22.7816736 93.592478,22.1527848 C93.2451802,21.7335256 90.2782569,19.6186536 84.6917082,15.8081687 L76.4859658,9.83050847 L69.9756098,9.83050847 Z" id="Path-4" fill="#FD3C3C"></path>
                    <path d="M25.327974,28.9947923 C32.9594012,28.8240935 37.6299051,24.7984204 39.3394857,16.917773 C42.0938468,5.80055153 37.2197988,0.162385574 24.7173418,0.00327517411 C12.2148847,-0.155835225 7.41637334,5.48233073 10.3218076,16.917773 C12.6944913,25.139818 17.6965468,29.1654911 25.327974,28.9947923 Z" id="Oval-9" stroke="#0D5355" stroke-width="2"></path>
                    <path d="M70.2791935,28.9947923 C77.9106207,28.8240935 82.5811246,24.7984204 84.2907052,16.917773 C87.0450663,5.80055153 82.1710183,0.162385574 69.6685613,0.00327517411 C57.1661042,-0.155835225 52.3675929,5.48233073 55.2730271,16.917773 C57.6457108,25.139818 62.6477663,29.1654911 70.2791935,28.9947923 Z" id="Oval-9" stroke="#0D5355" stroke-width="2"></path>
                    <path d="M40.3170732,9.83050847 C40.9027401,8.51977401 43.1251885,7.86440678 46.9844184,7.86440678 C50.8436483,7.86440678 53.2553463,8.51977401 54.2195122,9.83050847" id="Line" stroke="#0D5355" stroke-width="2" stroke-linecap="square"></path>
                </g>
            </g>
        </g>
    </g>
</svg>