<?xml version="1.0" encoding="utf-8"?>
<!-- Generator: Adobe Illustrator 22.0.1, SVG Export Plug-In . SVG Version: 6.00 Build 0)  -->
<svg version="1.1" id="Layer_1" xmlns="http://www.w3.org/2000/svg" xmlns:xlink="http://www.w3.org/1999/xlink" x="0px" y="0px"
	 viewBox="0 0 950 400" style="enable-background:new 0 0 950 400;" xml:space="preserve">
<style type="text/css">
	.st0{fill:#C6C6CC;}
	.st1{fill:#00395F;}
	.st2{fill:none;}
	.st3{fill:#88888D;}
	.st4{font-family:'SFUIText-Bold';}
	.st5{font-size:16px;}
	.st6{font-family:'SFUIText-Light';}
	.st7{fill:#007AFF;}
	.st8{fill:#FFCC05;}
	.st9{fill:#D93642;}
	.st10{fill:#8F8F94;}
	.st11{fill:#F2F2F2;}
	.st12{fill:#F7F7F7;}
</style>
<rect x="125.2" y="59.5" class="st1" width="142.8" height="80.9"/>
<rect x="117" y="160.4" class="st2" width="159" height="27.8"/>
<text transform="matrix(1 0 0 1 142.6289 172.3152)" class="st3 st4 st5">Primary Navy</text>
<rect x="117" y="186.4" class="st2" width="159" height="27.8"/>
<text transform="matrix(1 0 0 1 163.6797 198.1745)" class="st3 st6 st5">#00395f</text>
<rect x="310.9" y="59.5" class="st7" width="142.8" height="80.9"/>
<rect x="302.7" y="160.4" class="st2" width="159" height="27.8"/>
<text transform="matrix(1 0 0 1 330.7526 172.3152)" class="st3 st4 st5">Primary Blue</text>
<g>
	<rect x="302.7" y="186.4" class="st2" width="159" height="27.8"/>
	<text transform="matrix(1 0 0 1 352.4713 198.1745)" class="st3 st6 st5">#007aff</text>
</g>
<rect x="496.5" y="59.5" class="st8" width="142.8" height="80.9"/>
<rect x="488.3" y="160.4" class="st2" width="159" height="27.8"/>
<text transform="matrix(1 0 0 1 507.3451 172.3152)" class="st3 st4 st5">Primary Yellow</text>
<g>
	<rect x="488.3" y="186.4" class="st2" width="159" height="27.8"/>
	<text transform="matrix(1 0 0 1 538.099 198.1745)" class="st3 st6 st5">#ffcc06</text>
</g>
<rect x="682.2" y="59.5" class="st9" width="142.8" height="80.9"/>
<rect x="674" y="160.4" class="st2" width="159" height="27.8"/>
<text transform="matrix(1 0 0 1 694.5469 172.3152)" class="st3 st4 st5">Additional Red</text>
<g>
	<rect x="674" y="186.4" class="st2" width="159" height="27.8"/>
	<text transform="matrix(1 0 0 1 718.6719 198.1745)" class="st3 st6 st5">#d83542</text>
</g>
<rect x="125.2" y="244.5" class="st3" width="119.8" height="35.5"/>
<rect x="106" y="300" class="st2" width="159" height="27.8"/>
<text transform="matrix(1 0 0 1 130.1055 311.9152)" class="st10 st4 st5">Secondary G1</text>
<g>
	<rect x="106" y="326" class="st2" width="159" height="27.8"/>
	<text transform="matrix(1 0 0 1 150.1797 337.7745)" class="st3 st6 st5">#88888d</text>
</g>
<rect x="270.2" y="244.5" class="st10" width="119.8" height="35.5"/>
<rect x="251" y="300" class="st2" width="159" height="27.8"/>
<text transform="matrix(1 0 0 1 274.0625 311.9152)" class="st10 st4 st5">Secondary G2</text>
<g>
	<rect x="251" y="326" class="st2" width="159" height="27.8"/>
	<text transform="matrix(1 0 0 1 296.125 337.7745)" class="st3 st6 st5">#8e8e93</text>
</g>
<rect x="415.2" y="244.5" class="st0" width="119.8" height="35.5"/>
<rect x="396" y="300" class="st2" width="159" height="27.8"/>
<text transform="matrix(1 0 0 1 418.8594 311.9152)" class="st10 st4 st5">Secondary G3</text>
<g>
	<rect x="396" y="326" class="st2" width="159" height="27.8"/>
	<text transform="matrix(1 0 0 1 442.4062 337.7745)" class="st3 st6 st5">#c6c6cc</text>
</g>
<rect x="560.2" y="244.5" class="st11" width="119.8" height="35.5"/>
<rect x="541" y="300" class="st2" width="159" height="27.8"/>
<text transform="matrix(1 0 0 1 563.7031 311.9152)" class="st10 st4 st5">Secondary G4</text>
<g>
	<rect x="541" y="326" class="st2" width="159" height="27.8"/>
	<text transform="matrix(1 0 0 1 592.625 337.7745)" class="st3 st6 st5">#f2f2f2</text>
</g>
<rect x="705.2" y="244.5" class="st12" width="119.8" height="35.5"/>
<rect x="686" y="300" class="st2" width="159" height="27.8"/>
<text transform="matrix(1 0 0 1 708.9023 311.9152)" class="st10 st4 st5">Secondary G5</text>
<g>
	<rect x="686" y="326" class="st2" width="159" height="27.8"/>
	<text transform="matrix(1 0 0 1 738.3398 337.7745)" class="st3 st6 st5">#f7f7f7</text>
</g>
</svg>
