<?xml version="1.0" encoding="utf-8"?>
<!-- Generator: Adobe Illustrator 22.0.1, SVG Export Plug-In . SVG Version: 6.00 Build 0)  -->
<svg version="1.1" id="Layer_1" xmlns="http://www.w3.org/2000/svg" xmlns:xlink="http://www.w3.org/1999/xlink" x="0px" y="0px"
	 viewBox="0 0 193 231.9" style="enable-background:new 0 0 193 231.9;" xml:space="preserve">
<style type="text/css">
	.st0{clip-path:url(#SVGID_2_);}
	.st1{opacity:0.62;clip-path:url(#SVGID_4_);}
	.st2{clip-path:url(#SVGID_6_);fill:#FFFFFF;}
	.st3{clip-path:url(#SVGID_2_);fill:none;stroke:#000000;stroke-width:3.417;stroke-miterlimit:10;}
	.st4{clip-path:url(#SVGID_8_);}
	.st5{fill:none;stroke:#000000;stroke-width:3.417;stroke-miterlimit:10;}
</style>
<g>
	<defs>
		<rect id="SVGID_1_" x="-1433.5" y="-190.1" width="864" height="576"/>
	</defs>
	<clipPath id="SVGID_2_">
		<use xlink:href="#SVGID_1_"  style="overflow:visible;"/>
	</clipPath>
	<g class="st0">
		<defs>
			<rect id="SVGID_7_" x="-1433.5" y="-190.1" width="864" height="576"/>
		</defs>
		<clipPath id="SVGID_4_">
			<use xlink:href="#SVGID_7_"  style="overflow:visible;"/>
		</clipPath>
		<path style="clip-path:url(#SVGID_4_);" d="M158.1,40.2h1.6c0.2,0,0.2,0,0.3,0.2h0.1v-0.9H160c0,0.2-0.1,0.2-0.3,0.2h-1.6V38h2.5
			c0.2,0,0.2,0,0.3,0.2h0.1v-0.9h-0.1c0,0.2-0.1,0.2-0.3,0.2h-3.2v0.1c0.1,0,0.2,0.1,0.2,0.3v4.1c0,0.2,0,0.3-0.2,0.3v0.1h3.2
			c0.2,0,0.2,0,0.3,0.2h0.1v-0.9h-0.1c0,0.2-0.1,0.2-0.3,0.2h-2.6V40.2z M152.6,38.2l2.6,3.8c0.1,0.1,0.1,0.2,0.1,0.3
			c0,0.1,0,0.1-0.1,0.1v0.1h0.9v-0.1c-0.1,0-0.2-0.1-0.2-0.3V38c0-0.2,0-0.3,0.2-0.3v-0.1h-0.8v0.1c0.2,0,0.2,0.1,0.2,0.3v3.6
			l-2.4-3.5c-0.1-0.2-0.1-0.2-0.1-0.3c0-0.1,0-0.1,0.1-0.2v-0.1H152v0.1c0.1,0,0.2,0.1,0.2,0.3v4.1c0,0.2,0,0.3-0.2,0.3v0.1h0.8
			v-0.1c-0.1,0-0.2-0.1-0.2-0.3V38.2z M150.7,42.4c-0.2,0-0.2-0.1-0.2-0.3V38c0-0.2,0-0.3,0.2-0.3v-0.1h-0.8v0.1
			c0.1,0,0.2,0.1,0.2,0.3v4.1c0,0.2,0,0.3-0.2,0.3v0.1h0.8V42.4z M148.8,37.6h-3.1c-0.2,0-0.2,0-0.3-0.2h-0.1v0.9h0.1
			c0-0.2,0.1-0.2,0.3-0.2h2.4l-2.7,4.4v0.1h3.2c0.2,0,0.2,0,0.3,0.2h0.1v-0.9h-0.1c0,0.2-0.1,0.2-0.3,0.2H146l2.7-4.4V37.6z
			 M143.1,40.7h-1.8l0.9-2.4L143.1,40.7z M143.3,41.1l0.3,0.9c0.1,0.1,0.1,0.2,0.1,0.2c0,0.1-0.1,0.1-0.2,0.2v0.1h0.9v-0.1
			c-0.2-0.1-0.2-0.1-0.4-0.6l-1.4-3.8c0-0.1-0.1-0.1-0.1-0.2c0-0.1,0-0.1,0.1-0.1v-0.1h-1v0.1c0.1,0,0.1,0.1,0.1,0.1
			c0,0,0,0.1-0.1,0.2l-1.5,3.9c-0.1,0.4-0.2,0.4-0.3,0.5v0.1h0.9v-0.1c-0.1,0-0.2-0.1-0.2-0.1c0,0,0-0.1,0.1-0.2l0.3-0.9H143.3z
			 M139.2,38.1L139.2,38.1c-0.2,0.1-0.2,0.1-0.2,0.1c0,0,0,0-0.2-0.1c-0.6-0.4-1-0.6-1.6-0.6c-1.3,0-2.3,1.1-2.3,2.5
			c0,0.7,0.3,1.4,0.7,1.9c0.4,0.5,1,0.7,1.6,0.7c0.8,0,1.4-0.3,2.1-1v-0.1c-0.1-0.1-0.2-0.1-0.2-0.3v-0.6c0-0.2,0-0.3,0.2-0.3v-0.1
			h-1.6c-0.2,0-0.2,0-0.3-0.2h-0.1v0.9h0.1c0-0.2,0.1-0.2,0.3-0.2h0.9v0.9c-0.3,0.4-0.9,0.6-1.4,0.6c-1.1,0-1.8-0.8-1.8-2
			c0-1.2,0.7-2.1,1.8-2.1c0.4,0,0.8,0.1,1.2,0.4c0.2,0.2,0.3,0.2,0.3,0.3c0,0,0,0.1-0.1,0.2l0.1,0.1L139.2,38.1z M133.1,40.7h-1.8
			l0.9-2.4L133.1,40.7z M133.2,41.1l0.3,0.9c0.1,0.1,0.1,0.2,0.1,0.2c0,0.1-0.1,0.1-0.2,0.2v0.1h0.9v-0.1c-0.2-0.1-0.2-0.1-0.4-0.6
			l-1.4-3.8c0-0.1-0.1-0.1-0.1-0.2c0-0.1,0-0.1,0.1-0.1v-0.1h-1v0.1c0.1,0,0.1,0.1,0.1,0.1c0,0,0,0.1-0.1,0.2l-1.5,3.9
			c-0.1,0.4-0.2,0.4-0.3,0.5v0.1h0.9v-0.1c-0.1,0-0.2-0.1-0.2-0.1c0,0,0-0.1,0.1-0.2l0.3-0.9H133.2z M126.7,42.5l1.7-4.1v3.7
			c0,0.2,0,0.3-0.2,0.3v0.1h0.8v-0.1c-0.1,0-0.2-0.1-0.2-0.3V38c0-0.2,0-0.3,0.2-0.3v-0.1h-1v0.1c0.1,0,0.1,0.1,0.1,0.1
			c0,0.1,0,0.1-0.1,0.3l-1.3,3.3l-1.3-3.2c-0.1-0.2-0.1-0.2-0.1-0.3c0-0.1,0-0.1,0.1-0.1v-0.1h-1v0.1c0.1,0,0.2,0.1,0.2,0.3v4.1
			c0,0.2,0,0.3-0.2,0.3v0.1h0.8v-0.1c-0.1,0-0.2-0.1-0.2-0.3v-3.7L126.7,42.5z M118.1,39.8V38h1.6c0.5,0,0.6,0,0.8,0.2
			c0.2,0.1,0.3,0.4,0.3,0.7c0,0.3-0.1,0.6-0.3,0.7c-0.2,0.1-0.4,0.2-0.8,0.2H118.1z M118.1,40.3h1.5l0.9,1.8
			c0.1,0.2,0.1,0.2,0.1,0.2c0,0.1,0,0.1-0.1,0.1v0.1h0.9v-0.1c-0.1,0-0.2-0.1-0.3-0.2l-1-1.9c0.7-0.1,1.1-0.6,1.1-1.3
			c0-0.5-0.2-0.9-0.5-1.1c-0.3-0.2-0.6-0.3-1.2-0.3h-2.2v0.1c0.2,0,0.2,0.1,0.2,0.3v4.1c0,0.2,0,0.3-0.2,0.3v0.1h0.8v-0.1
			c-0.1,0-0.2-0.1-0.2-0.3V40.3z M113.4,40.2h1.6c0.2,0,0.2,0,0.3,0.2h0.1v-0.9h-0.1c0,0.2-0.1,0.2-0.3,0.2h-1.6V38h2.5
			c0.2,0,0.2,0,0.3,0.2h0.1v-0.9h-0.1c0,0.2-0.1,0.2-0.3,0.2h-3.2v0.1c0.2,0,0.2,0.1,0.2,0.3v4.1c0,0.2,0,0.3-0.2,0.3v0.1h3.2
			c0.2,0,0.2,0,0.3,0.2h0.1v-0.9h-0.1c0,0.2-0.1,0.2-0.3,0.2h-2.6V40.2z M109.1,42.5l1.7-4.1v3.7c0,0.2,0,0.3-0.2,0.3v0.1h0.8v-0.1
			c-0.1,0-0.2-0.1-0.2-0.3V38c0-0.2,0-0.3,0.2-0.3v-0.1h-1v0.1c0.1,0,0.1,0.1,0.1,0.1c0,0.1,0,0.1-0.1,0.3l-1.3,3.3l-1.3-3.2
			c-0.1-0.2-0.1-0.2-0.1-0.3c0-0.1,0-0.1,0.1-0.1v-0.1h-1v0.1c0.2,0,0.2,0.1,0.2,0.3v4.1c0,0.2,0,0.3-0.2,0.3v0.1h0.8v-0.1
			c-0.1,0-0.2-0.1-0.2-0.3v-3.7L109.1,42.5z M101.6,37.7c0.1,0,0.2,0.1,0.2,0.3v2.8c0,0.6,0.1,0.9,0.3,1.2c0.3,0.4,0.8,0.5,1.5,0.5
			c0.7,0,1.1-0.1,1.4-0.4s0.4-0.6,0.4-1.3V38c0-0.2,0-0.3,0.2-0.3v-0.1h-0.8v0.1c0.2,0,0.2,0.1,0.2,0.3v2.7c0,0.6,0,0.8-0.2,1
			c-0.2,0.3-0.6,0.4-1.2,0.4c-0.6,0-1-0.1-1.2-0.3c-0.2-0.2-0.2-0.4-0.2-1V38c0-0.2,0-0.3,0.2-0.3v-0.1h-0.8V37.7z M100.6,37.9
			L100.6,37.9c-0.1,0.1-0.2,0.1-0.2,0.1c0,0,0,0-0.1-0.1c-0.6-0.3-1-0.4-1.5-0.4c-1.1,0-1.9,0.6-1.9,1.5c0,0.4,0.2,0.8,0.4,1
			c0.3,0.2,0.6,0.3,1.3,0.3c0.9,0,1,0,1.1,0.1c0.3,0.1,0.4,0.4,0.4,0.7c0,0.6-0.6,1-1.4,1c-0.5,0-0.9-0.1-1.3-0.4
			c-0.3-0.2-0.4-0.3-0.4-0.4c0,0,0-0.1,0.1-0.2l-0.1-0.1L96.6,42l0.1,0.1c0.1-0.1,0.1-0.1,0.1-0.1c0,0,0.1,0,0.2,0.1
			c0.7,0.5,1.1,0.6,1.8,0.6c1.1,0,1.8-0.6,1.8-1.6c0-0.5-0.2-0.8-0.5-1c-0.3-0.2-0.5-0.2-1.4-0.3c-0.6,0-0.9-0.1-1.1-0.2
			c-0.2-0.1-0.3-0.3-0.3-0.6c0-0.6,0.6-1,1.4-1c0.4,0,0.9,0.1,1.2,0.3c0.1,0.1,0.2,0.2,0.2,0.2c0,0,0,0.1,0,0.2l0.1,0.1L100.6,37.9z
			 M92,38.2l2.6,3.8c0.1,0.1,0.1,0.2,0.1,0.3c0,0.1,0,0.1-0.1,0.1v0.1h0.9v-0.1c-0.2,0-0.2-0.1-0.2-0.3V38c0-0.2,0-0.3,0.2-0.3v-0.1
			h-0.8v0.1c0.1,0,0.2,0.1,0.2,0.3v3.6l-2.4-3.5c-0.1-0.2-0.1-0.2-0.1-0.3c0-0.1,0-0.1,0.1-0.2v-0.1h-1.1v0.1c0.2,0,0.2,0.1,0.2,0.3
			v4.1c0,0.2,0,0.3-0.2,0.3v0.1h0.8v-0.1c-0.2,0-0.2-0.1-0.2-0.3V38.2z M87.8,38c1.2,0,1.9,0.8,1.9,2.1c0,0.5-0.2,1-0.5,1.4
			c-0.3,0.4-0.8,0.6-1.4,0.6c-0.6,0-1.1-0.2-1.4-0.6c-0.3-0.4-0.5-0.9-0.5-1.4C85.9,38.8,86.6,38,87.8,38 M87.8,37.5
			c-0.7,0-1.2,0.2-1.7,0.7c-0.4,0.5-0.7,1.2-0.7,1.9c0,0.7,0.3,1.4,0.7,1.9c0.4,0.5,1,0.7,1.7,0.7c0.7,0,1.3-0.2,1.7-0.7
			c0.4-0.5,0.7-1.2,0.7-1.8c0-0.8-0.2-1.4-0.7-1.9C89.1,37.7,88.5,37.5,87.8,37.5 M84.4,38L84.4,38c-0.2,0.1-0.2,0.1-0.2,0.1
			c0,0,0,0-0.1,0c-0.5-0.4-1.1-0.6-1.7-0.6c-1.4,0-2.4,1-2.4,2.6c0,0.7,0.2,1.4,0.7,1.9c0.4,0.5,1,0.7,1.6,0.7
			c0.7,0,1.2-0.2,1.8-0.8c0.1-0.1,0.1-0.1,0.1-0.1c0,0,0.1,0,0.1,0.1l0.1-0.1L84,41l-0.1,0.1c0,0.1,0.1,0.1,0.1,0.2
			c0,0.1-0.1,0.2-0.3,0.3c-0.4,0.4-0.8,0.5-1.3,0.5c-1,0-1.8-0.9-1.8-2.1c0-1.2,0.7-2,1.8-2c0.4,0,0.8,0.1,1.1,0.3
			c0.3,0.2,0.4,0.3,0.4,0.4c0,0,0,0.1,0,0.2l0.1,0.1L84.4,38z M73.9,39.8V38h1.6c0.5,0,0.6,0,0.8,0.2c0.2,0.1,0.3,0.4,0.3,0.7
			c0,0.3-0.1,0.6-0.3,0.7c-0.2,0.1-0.4,0.2-0.8,0.2H73.9z M73.9,40.3h1.5l0.9,1.8c0.1,0.2,0.1,0.2,0.1,0.2c0,0.1,0,0.1-0.1,0.1v0.1
			h0.9v-0.1c-0.1,0-0.2-0.1-0.3-0.2l-1-1.9c0.7-0.1,1.1-0.6,1.1-1.3c0-0.5-0.2-0.9-0.5-1.1c-0.3-0.2-0.6-0.3-1.2-0.3h-2.2v0.1
			c0.1,0,0.2,0.1,0.2,0.3v4.1c0,0.2,0,0.3-0.2,0.3v0.1h0.8v-0.1c-0.2,0-0.2-0.1-0.2-0.3V40.3z M69.2,40.2h1.6c0.2,0,0.2,0,0.3,0.2
			h0.1v-0.9h-0.1c0,0.2-0.1,0.2-0.3,0.2h-1.6V38h2.5c0.2,0,0.2,0,0.3,0.2H72v-0.9h-0.1c0,0.2-0.1,0.2-0.3,0.2h-3.2v0.1
			c0.1,0,0.2,0.1,0.2,0.3v4.1c0,0.2,0,0.3-0.2,0.3v0.1h3.2c0.2,0,0.2,0,0.3,0.2h0.1v-0.9H72c0,0.2-0.1,0.2-0.3,0.2h-2.6V40.2z
			 M65.4,41.9l-1.3-3.6c0-0.1-0.1-0.3-0.1-0.3c0-0.1,0.1-0.2,0.2-0.2v-0.1h-1v0.1c0.2,0.1,0.2,0.1,0.3,0.5l1.3,3.7
			c0.1,0.2,0.1,0.2,0.1,0.3c0,0.1-0.1,0.2-0.2,0.2v0.1H66v-0.1c-0.1,0-0.2-0.1-0.2-0.2c0-0.1,0-0.2,0.1-0.3l1.3-3.6
			c0.2-0.5,0.2-0.5,0.4-0.6v-0.1h-0.9v0.1c0.1,0,0.2,0.1,0.2,0.2c0,0.1,0,0.2-0.1,0.3L65.4,41.9z M58.4,37.7c0.1,0,0.2,0.1,0.2,0.3
			v2.8c0,0.6,0.1,0.9,0.3,1.2c0.3,0.4,0.8,0.5,1.5,0.5c0.7,0,1.1-0.1,1.4-0.4c0.3-0.3,0.4-0.6,0.4-1.3V38c0-0.2,0-0.3,0.2-0.3v-0.1
			h-0.8v0.1c0.2,0,0.2,0.1,0.2,0.3v2.7c0,0.6,0,0.8-0.2,1c-0.2,0.3-0.6,0.4-1.2,0.4c-0.6,0-1-0.1-1.2-0.3c-0.2-0.2-0.2-0.4-0.2-1V38
			c0-0.2,0-0.3,0.2-0.3v-0.1h-0.8V37.7z M54.8,38c1.2,0,1.9,0.8,1.9,2.1c0,0.5-0.2,1-0.5,1.4c-0.3,0.4-0.8,0.6-1.4,0.6
			c-0.6,0-1.1-0.2-1.4-0.6c-0.3-0.4-0.5-0.9-0.5-1.4C52.9,38.8,53.7,38,54.8,38 M54.8,37.5c-0.7,0-1.2,0.2-1.7,0.7
			c-0.4,0.5-0.7,1.2-0.7,1.9c0,0.7,0.3,1.4,0.7,1.9c0.4,0.5,1,0.7,1.7,0.7c0.7,0,1.3-0.2,1.7-0.7c0.4-0.5,0.7-1.2,0.7-1.8
			c0-0.8-0.2-1.4-0.7-1.9C56.1,37.7,55.5,37.5,54.8,37.5 M51.4,38L51.4,38c-0.2,0.1-0.2,0.1-0.2,0.1c0,0,0,0-0.1,0
			c-0.5-0.4-1.1-0.6-1.7-0.6c-1.4,0-2.4,1-2.4,2.6c0,0.7,0.2,1.4,0.7,1.9c0.4,0.5,1,0.7,1.6,0.7c0.7,0,1.2-0.2,1.8-0.8
			c0.1-0.1,0.1-0.1,0.1-0.1c0,0,0.1,0,0.1,0.1l0.1-0.1L51,41L51,41.1c0,0.1,0.1,0.1,0.1,0.2c0,0.1-0.1,0.2-0.3,0.3
			c-0.4,0.4-0.8,0.5-1.3,0.5c-1,0-1.8-0.9-1.8-2.1c0-1.2,0.7-2,1.8-2c0.4,0,0.8,0.1,1.1,0.3c0.3,0.2,0.4,0.3,0.4,0.4
			c0,0,0,0.1,0,0.2l0.1,0.1L51.4,38z M42.4,38.2L45,42c0.1,0.1,0.1,0.2,0.1,0.3c0,0.1,0,0.1-0.1,0.1v0.1h0.9v-0.1
			c-0.1,0-0.2-0.1-0.2-0.3V38c0-0.2,0-0.3,0.2-0.3v-0.1h-0.8v0.1c0.1,0,0.2,0.1,0.2,0.3v3.6l-2.4-3.5c-0.1-0.2-0.1-0.2-0.1-0.3
			c0-0.1,0-0.1,0.1-0.2v-0.1h-1.1v0.1c0.1,0,0.2,0.1,0.2,0.3v4.1c0,0.2,0,0.3-0.2,0.3v0.1h0.8v-0.1c-0.2,0-0.2-0.1-0.2-0.3V38.2z
			 M39.6,40.7h-1.8l0.9-2.4L39.6,40.7z M39.8,41.1l0.3,0.9c0.1,0.1,0.1,0.2,0.1,0.2c0,0.1-0.1,0.1-0.2,0.2v0.1H41v-0.1
			c-0.2-0.1-0.2-0.1-0.4-0.6L39.1,38c0-0.1-0.1-0.1-0.1-0.2c0-0.1,0-0.1,0.1-0.1v-0.1h-1v0.1c0.1,0,0.1,0.1,0.1,0.1
			c0,0,0,0.1-0.1,0.2l-1.5,3.9c-0.1,0.4-0.2,0.4-0.3,0.5v0.1h0.9v-0.1c-0.1,0-0.2-0.1-0.2-0.1c0,0,0-0.1,0.1-0.2l0.3-0.9H39.8z
			 M34.4,41.9l-1.3-3.6c0-0.1-0.1-0.3-0.1-0.3c0-0.1,0.1-0.2,0.2-0.2v-0.1h-1v0.1c0.2,0.1,0.2,0.1,0.3,0.5l1.3,3.7
			c0.1,0.2,0.1,0.2,0.1,0.3c0,0.1-0.1,0.2-0.2,0.2v0.1h1.1v-0.1c-0.1,0-0.2-0.1-0.2-0.2c0-0.1,0-0.2,0.1-0.3l1.3-3.6
			c0.2-0.5,0.2-0.5,0.4-0.6v-0.1h-0.9v0.1c0.1,0,0.2,0.1,0.2,0.2c0,0.1,0,0.2-0.1,0.3L34.4,41.9z"/>
		<path style="clip-path:url(#SVGID_4_);" d="M155.8,0.8v1.6h2v30.8h2V2.5h2V0.8H155.8z M148.9,21.9V30c0,1.4-0.4,1.9-1.4,1.9
			c-1,0-1.5-0.6-1.5-1.9V4.4c0-1.7,0.4-2.4,1.5-2.4c1,0,1.4,0.5,1.4,2.4V12h1.8V4.4c0-2.8-0.9-3.9-3.1-3.9c-2.2,0-3.4,1.4-3.4,3.9
			V30c0,2.4,1.2,3.6,3.3,3.6c1.4,0,2.6-0.7,3-1.7c0.2-0.5,0.3-1,0.3-2v-8.2L148.9,21.9z M133.6,0.8v32.5h5.1v-1.6h-3.3V17.6h3.3
			v-1.6h-3.3V2.5h3.3V0.8H133.6z M123.7,0.8v32.5h5v-1.6h-3.2V0.8H123.7z M113.1,0.8v32.5h5.1v-1.6h-3.3V17.6h3.3v-1.6h-3.3V2.5h3.3
			V0.8H113.1z M101.6,22.2v7.6c0,2.5,0.9,3.6,3,3.6c2.1,0,3-1.1,3-3.6V19.6c0-1.6-0.2-2-1.7-2.9l-1.7-0.9l-0.2-0.1l-0.4-0.3
			c-0.1,0-0.1,0-0.1-0.1c-0.1-0.1-0.1-0.1-0.1-0.6V4.5c0-1.8,0.2-2.3,1.2-2.3c0.7,0,1,0.2,1.2,0.7c0.1,0.2,0.1,0.2,0.1,1.8v7.4h1.8
			V4.8c0-3.2-0.7-4.2-2.9-4.2c-2.2,0-3.1,1.2-3.1,4.2v9.5c0,2.1,0.2,2.4,1.6,3.1l1.8,0.9c0.8,0.4,0.9,0.7,0.9,1.7v9.9
			c0,1.4-0.3,1.8-1.1,1.8c-0.9,0-1.3-0.5-1.3-1.8v-7.7H101.6z M83.2,0.8v1.6h2v30.8h2V2.5h2V0.8H83.2z M74,2.5h0.3
			c1.5,0,2.1,0.6,2.1,2.4v8.7c0,2.1-0.4,2.5-2.4,2.5V2.5z M72.2,0.8v32.5H74V17.7c1.9,0,2.4,0.3,2.4,2v11.8c0,1,0.1,1.4,0.5,1.8h1.8
			c-0.3-0.3-0.4-0.5-0.4-0.8l-0.1-0.8v-0.2V19.3c0.1-1.4-0.6-2.4-1.8-2.6c1.3-0.3,1.8-1.3,1.8-3.3V4.9c0.1-2.8-1.1-4.1-4-4.1H72.2z
			 M64.1,20.2h-1.8l0.8-12.7L64.1,20.2z M62.1,0.8l-2.7,32.5h2.1l0.8-11.5h2l0.9,11.5h2l-3-32.5H62.1z M43.6,0.8v32.5h1.8V6.7
			l2.7,26.6h1.5l2.7-27v27h1.8V0.8h-2.6l-2.6,26.7L46.1,0.8H43.6z M32.1,22.2v7.6c0,2.5,0.9,3.6,3,3.6c2.1,0,3-1.1,3-3.6V19.6
			c0-1.6-0.2-2-1.7-2.9l-1.7-0.9l-0.2-0.1l-0.4-0.3c-0.1,0-0.1,0-0.1-0.1c-0.1-0.1-0.1-0.1-0.1-0.6V4.5c0-1.8,0.2-2.3,1.2-2.3
			c0.7,0,1,0.2,1.1,0.7c0.1,0.2,0.1,0.2,0.1,1.8v7.4h1.8V4.8c0-3.2-0.7-4.2-2.9-4.2c-2.2,0-3.1,1.2-3.1,4.2v9.5
			c0,2.1,0.2,2.4,1.6,3.1l1.8,0.9c0.8,0.4,0.9,0.7,0.9,1.7v9.9c0,1.4-0.3,1.8-1.1,1.8c-0.9,0-1.3-0.5-1.3-1.8v-7.7H32.1z"/>
	</g>
</g>
<path class="st5" d="M3.4,213.4v14.5h23.4 M190,213.4v14.5h-23.4 M190,60.3V45.8h-23.4 M3.4,60.3V45.8h23.4"/>
<path d="M80.9,76h-4.7l12.5-15.5h4.7L80.9,76z M85.9,95.3H48.7v11.2h37.2V95.3z M85.9,81.8H48.7v11.1h37.2V81.8z M70,126.8l-1.3-2.2
	h17.2v-15.7H48.7v18H45V79.4h20.4V57.1h3.7v22.3h20.4v47.4H70z M53.8,76L41.4,60.5h4.5L58.4,76H53.8z M35.4,74.2L21,57.1h4.2
	l14.4,17.1H35.4z M34.5,92.5L20.9,76.4h4.4l13.5,16.1H34.5z M24.4,126.8h-3.9L34.9,100h3.9L24.4,126.8z"/>
<path d="M165.1,63.9h-16.2v6.2h16.2V63.9z M145.3,72.1h-16.9v6.3h16.9V72.1z M145.3,63.9h-16.9v6.2h16.9V63.9z M163.5,109.7h-51.2
	v6.5h51.2V109.7z M163.5,101h-51.2v6.6h51.2V101z M163.5,92.4h-51.2v6.5h51.2V92.4z M124.9,72.1h-16.7l-0.6,6.3h17.3V72.1z
	 M165.4,126.8l-21.8-8.6h-10.9l-21.8,8.6h-8.1l21.9-8.6h-16V90.4h58.5v27.9h-15.5l21.8,8.6H165.4z M155.7,87.8l-1.1-2h13.6v-5.5
	h-19.3v7.9h-3.6v-7.9h-16.9L110,88.3h-7.6l18.8-7.9h-17.1l1-10.3h19.9v-6.2H103v-2.1h21.9v-4.7h3.6v4.7h16.9v-4.8h3.6v4.8h20v10.3
	h-20v6.3h23v9.5H155.7z"/>
<path d="M76.9,204.1l-8.8-14.8h16.5l8.8,14.8H76.9z M53.2,165.8h-13v3.5h13V165.8z M53.2,155.7h-13v3.6h13V155.7z M53.2,145.7h-13
	v3.6h13V145.7z M36.7,204.1H20.5l9.1-14.8h16.2L36.7,204.1z M64.5,186.8v17.4H49.4v-17.4H21.6v-7.1h27.8V176H25.3v-24.1h-5l9.2-18.1
	h16.1L43,139h9.4l-1.9-5.2H66l2,5.2h22.9v6.7H68v3.6h21.2v6.4H68v3.6h21.2v6.5H68v3.5h23.5v6.8h-27v3.7h27.7v7.1H64.5z"/>
<path d="M159.6,143.3h-4.2v18.5h4.2V143.3z M141.8,135.5h31.5v34h-31.5V135.5z M154.5,191.7h-33.3v5.2h33.3V191.7z M154.5,180.2
	h-33.3v4.4h33.3V180.2z M105.6,172.8h64.6v31.2h-64.6V172.8z M126.4,170.3l-3.7-5.8l-4.4,5.8h-17.7l10.9-12.9h-9.7v-7.2h13.9v-5
	h-1.1l-1.2,3.3h-12.1l4.8-14.9h12.2l-1.5,4.5h22.2v7.1h-9.5v5h10.2v7.2h-11.7l-1.8,2.4h8.8l6.2,10.5H126.4z"/>
<path d="M158.1,40.2h1.6c0.2,0,0.2,0,0.3,0.2h0.1v-0.9H160c0,0.2-0.1,0.2-0.3,0.2h-1.6V38h2.5c0.2,0,0.2,0,0.3,0.2h0.1v-0.9h-0.1
	c0,0.2-0.1,0.2-0.3,0.2h-3.2v0.1c0.1,0,0.2,0.1,0.2,0.3v4.1c0,0.2,0,0.3-0.2,0.3v0.1h3.2c0.2,0,0.2,0,0.3,0.2h0.1v-0.9h-0.1
	c0,0.2-0.1,0.2-0.3,0.2h-2.6V40.2z M152.6,38.2l2.6,3.8c0.1,0.1,0.1,0.2,0.1,0.3c0,0.1,0,0.1-0.1,0.1v0.1h0.9v-0.1
	c-0.1,0-0.2-0.1-0.2-0.3V38c0-0.2,0-0.3,0.2-0.3v-0.1h-0.8v0.1c0.2,0,0.2,0.1,0.2,0.3v3.6l-2.4-3.5c-0.1-0.2-0.1-0.2-0.1-0.3
	c0-0.1,0-0.1,0.1-0.2v-0.1H152v0.1c0.1,0,0.2,0.1,0.2,0.3v4.1c0,0.2,0,0.3-0.2,0.3v0.1h0.8v-0.1c-0.1,0-0.2-0.1-0.2-0.3V38.2z
	 M150.7,42.4c-0.2,0-0.2-0.1-0.2-0.3V38c0-0.2,0-0.3,0.2-0.3v-0.1h-0.8v0.1c0.1,0,0.2,0.1,0.2,0.3v4.1c0,0.2,0,0.3-0.2,0.3v0.1h0.8
	V42.4z M148.8,37.6h-3.1c-0.2,0-0.2,0-0.3-0.2h-0.1v0.9h0.1c0-0.2,0.1-0.2,0.3-0.2h2.4l-2.7,4.4v0.1h3.2c0.2,0,0.2,0,0.3,0.2h0.1
	v-0.9h-0.1c0,0.2-0.1,0.2-0.3,0.2H146l2.7-4.4V37.6z M143.1,40.7h-1.8l0.9-2.4L143.1,40.7z M143.3,41.1l0.3,0.9
	c0.1,0.1,0.1,0.2,0.1,0.2c0,0.1-0.1,0.1-0.2,0.2v0.1h0.9v-0.1c-0.2-0.1-0.2-0.1-0.4-0.6l-1.4-3.8c0-0.1-0.1-0.1-0.1-0.2
	c0-0.1,0-0.1,0.1-0.1v-0.1h-1v0.1c0.1,0,0.1,0.1,0.1,0.1c0,0,0,0.1-0.1,0.2l-1.5,3.9c-0.1,0.4-0.2,0.4-0.3,0.5v0.1h0.9v-0.1
	c-0.1,0-0.2-0.1-0.2-0.1c0,0,0-0.1,0.1-0.2l0.3-0.9H143.3z M139.2,38.1L139.2,38.1c-0.2,0.1-0.2,0.1-0.2,0.1c0,0,0,0-0.2-0.1
	c-0.6-0.4-1-0.6-1.6-0.6c-1.3,0-2.3,1.1-2.3,2.5c0,0.7,0.3,1.4,0.7,1.9c0.4,0.5,1,0.7,1.6,0.7c0.8,0,1.4-0.3,2.1-1v-0.1
	c-0.1-0.1-0.2-0.1-0.2-0.3v-0.6c0-0.2,0-0.3,0.2-0.3v-0.1h-1.6c-0.2,0-0.2,0-0.3-0.2h-0.1v0.9h0.1c0-0.2,0.1-0.2,0.3-0.2h0.9v0.9
	c-0.3,0.4-0.9,0.6-1.4,0.6c-1.1,0-1.8-0.8-1.8-2c0-1.2,0.7-2.1,1.8-2.1c0.4,0,0.8,0.1,1.2,0.4c0.2,0.2,0.3,0.2,0.3,0.3
	c0,0,0,0.1-0.1,0.2l0.1,0.1L139.2,38.1z M133.1,40.7h-1.8l0.9-2.4L133.1,40.7z M133.2,41.1l0.3,0.9c0.1,0.1,0.1,0.2,0.1,0.2
	c0,0.1-0.1,0.1-0.2,0.2v0.1h0.9v-0.1c-0.2-0.1-0.2-0.1-0.4-0.6l-1.4-3.8c0-0.1-0.1-0.1-0.1-0.2c0-0.1,0-0.1,0.1-0.1v-0.1h-1v0.1
	c0.1,0,0.1,0.1,0.1,0.1c0,0,0,0.1-0.1,0.2l-1.5,3.9c-0.1,0.4-0.2,0.4-0.3,0.5v0.1h0.9v-0.1c-0.1,0-0.2-0.1-0.2-0.1
	c0,0,0-0.1,0.1-0.2l0.3-0.9H133.2z M126.7,42.5l1.7-4.1v3.7c0,0.2,0,0.3-0.2,0.3v0.1h0.8v-0.1c-0.1,0-0.2-0.1-0.2-0.3V38
	c0-0.2,0-0.3,0.2-0.3v-0.1h-1v0.1c0.1,0,0.1,0.1,0.1,0.1c0,0.1,0,0.1-0.1,0.3l-1.3,3.3l-1.3-3.2c-0.1-0.2-0.1-0.2-0.1-0.3
	c0-0.1,0-0.1,0.1-0.1v-0.1h-1v0.1c0.1,0,0.2,0.1,0.2,0.3v4.1c0,0.2,0,0.3-0.2,0.3v0.1h0.8v-0.1c-0.1,0-0.2-0.1-0.2-0.3v-3.7
	L126.7,42.5z M118.1,39.8V38h1.6c0.5,0,0.6,0,0.8,0.2c0.2,0.1,0.3,0.4,0.3,0.7c0,0.3-0.1,0.6-0.3,0.7c-0.2,0.1-0.4,0.2-0.8,0.2
	H118.1z M118.1,40.3h1.5l0.9,1.8c0.1,0.2,0.1,0.2,0.1,0.2c0,0.1,0,0.1-0.1,0.1v0.1h0.9v-0.1c-0.1,0-0.2-0.1-0.3-0.2l-1-1.9
	c0.7-0.1,1.1-0.6,1.1-1.3c0-0.5-0.2-0.9-0.5-1.1c-0.3-0.2-0.6-0.3-1.2-0.3h-2.2v0.1c0.2,0,0.2,0.1,0.2,0.3v4.1c0,0.2,0,0.3-0.2,0.3
	v0.1h0.8v-0.1c-0.1,0-0.2-0.1-0.2-0.3V40.3z M113.4,40.2h1.6c0.2,0,0.2,0,0.3,0.2h0.1v-0.9h-0.1c0,0.2-0.1,0.2-0.3,0.2h-1.6V38h2.5
	c0.2,0,0.2,0,0.3,0.2h0.1v-0.9h-0.1c0,0.2-0.1,0.2-0.3,0.2h-3.2v0.1c0.2,0,0.2,0.1,0.2,0.3v4.1c0,0.2,0,0.3-0.2,0.3v0.1h3.2
	c0.2,0,0.2,0,0.3,0.2h0.1v-0.9h-0.1c0,0.2-0.1,0.2-0.3,0.2h-2.6V40.2z M109.1,42.5l1.7-4.1v3.7c0,0.2,0,0.3-0.2,0.3v0.1h0.8v-0.1
	c-0.1,0-0.2-0.1-0.2-0.3V38c0-0.2,0-0.3,0.2-0.3v-0.1h-1v0.1c0.1,0,0.1,0.1,0.1,0.1c0,0.1,0,0.1-0.1,0.3l-1.3,3.3l-1.3-3.2
	c-0.1-0.2-0.1-0.2-0.1-0.3c0-0.1,0-0.1,0.1-0.1v-0.1h-1v0.1c0.2,0,0.2,0.1,0.2,0.3v4.1c0,0.2,0,0.3-0.2,0.3v0.1h0.8v-0.1
	c-0.1,0-0.2-0.1-0.2-0.3v-3.7L109.1,42.5z M101.6,37.7c0.1,0,0.2,0.1,0.2,0.3v2.8c0,0.6,0.1,0.9,0.3,1.2c0.3,0.4,0.8,0.5,1.5,0.5
	c0.7,0,1.1-0.1,1.4-0.4s0.4-0.6,0.4-1.3V38c0-0.2,0-0.3,0.2-0.3v-0.1h-0.8v0.1c0.2,0,0.2,0.1,0.2,0.3v2.7c0,0.6,0,0.8-0.2,1
	c-0.2,0.3-0.6,0.4-1.2,0.4c-0.6,0-1-0.1-1.2-0.3c-0.2-0.2-0.2-0.4-0.2-1V38c0-0.2,0-0.3,0.2-0.3v-0.1h-0.8V37.7z M100.6,37.9
	L100.6,37.9c-0.1,0.1-0.2,0.1-0.2,0.1c0,0,0,0-0.1-0.1c-0.6-0.3-1-0.4-1.5-0.4c-1.1,0-1.9,0.6-1.9,1.5c0,0.4,0.2,0.8,0.4,1
	c0.3,0.2,0.6,0.3,1.3,0.3c0.9,0,1,0,1.1,0.1c0.3,0.1,0.4,0.4,0.4,0.7c0,0.6-0.6,1-1.4,1c-0.5,0-0.9-0.1-1.3-0.4
	c-0.3-0.2-0.4-0.3-0.4-0.4c0,0,0-0.1,0.1-0.2l-0.1-0.1L96.6,42l0.1,0.1c0.1-0.1,0.1-0.1,0.1-0.1c0,0,0.1,0,0.2,0.1
	c0.7,0.5,1.1,0.6,1.8,0.6c1.1,0,1.8-0.6,1.8-1.6c0-0.5-0.2-0.8-0.5-1c-0.3-0.2-0.5-0.2-1.4-0.3c-0.6,0-0.9-0.1-1.1-0.2
	c-0.2-0.1-0.3-0.3-0.3-0.6c0-0.6,0.6-1,1.4-1c0.4,0,0.9,0.1,1.2,0.3c0.1,0.1,0.2,0.2,0.2,0.2c0,0,0,0.1,0,0.2l0.1,0.1L100.6,37.9z
	 M92,38.2l2.6,3.8c0.1,0.1,0.1,0.2,0.1,0.3c0,0.1,0,0.1-0.1,0.1v0.1h0.9v-0.1c-0.2,0-0.2-0.1-0.2-0.3V38c0-0.2,0-0.3,0.2-0.3v-0.1
	h-0.8v0.1c0.1,0,0.2,0.1,0.2,0.3v3.6l-2.4-3.5c-0.1-0.2-0.1-0.2-0.1-0.3c0-0.1,0-0.1,0.1-0.2v-0.1h-1.1v0.1c0.2,0,0.2,0.1,0.2,0.3
	v4.1c0,0.2,0,0.3-0.2,0.3v0.1h0.8v-0.1c-0.2,0-0.2-0.1-0.2-0.3V38.2z M87.8,38c1.2,0,1.9,0.8,1.9,2.1c0,0.5-0.2,1-0.5,1.4
	c-0.3,0.4-0.8,0.6-1.4,0.6c-0.6,0-1.1-0.2-1.4-0.6c-0.3-0.4-0.5-0.9-0.5-1.4C85.9,38.8,86.6,38,87.8,38 M87.8,37.5
	c-0.7,0-1.2,0.2-1.7,0.7c-0.4,0.5-0.7,1.2-0.7,1.9c0,0.7,0.3,1.4,0.7,1.9c0.4,0.5,1,0.7,1.7,0.7c0.7,0,1.3-0.2,1.7-0.7
	c0.4-0.5,0.7-1.2,0.7-1.8c0-0.8-0.2-1.4-0.7-1.9C89.1,37.7,88.5,37.5,87.8,37.5 M84.4,38L84.4,38c-0.2,0.1-0.2,0.1-0.2,0.1
	c0,0,0,0-0.1,0c-0.5-0.4-1.1-0.6-1.7-0.6c-1.4,0-2.4,1-2.4,2.6c0,0.7,0.2,1.4,0.7,1.9c0.4,0.5,1,0.7,1.6,0.7c0.7,0,1.2-0.2,1.8-0.8
	c0.1-0.1,0.1-0.1,0.1-0.1c0,0,0.1,0,0.1,0.1l0.1-0.1L84,41l-0.1,0.1c0,0.1,0.1,0.1,0.1,0.2c0,0.1-0.1,0.2-0.3,0.3
	c-0.4,0.4-0.8,0.5-1.3,0.5c-1,0-1.8-0.9-1.8-2.1c0-1.2,0.7-2,1.8-2c0.4,0,0.8,0.1,1.1,0.3c0.3,0.2,0.4,0.3,0.4,0.4c0,0,0,0.1,0,0.2
	l0.1,0.1L84.4,38z M73.9,39.8V38h1.6c0.5,0,0.6,0,0.8,0.2c0.2,0.1,0.3,0.4,0.3,0.7c0,0.3-0.1,0.6-0.3,0.7c-0.2,0.1-0.4,0.2-0.8,0.2
	H73.9z M73.9,40.3h1.5l0.9,1.8c0.1,0.2,0.1,0.2,0.1,0.2c0,0.1,0,0.1-0.1,0.1v0.1h0.9v-0.1c-0.1,0-0.2-0.1-0.3-0.2l-1-1.9
	c0.7-0.1,1.1-0.6,1.1-1.3c0-0.5-0.2-0.9-0.5-1.1c-0.3-0.2-0.6-0.3-1.2-0.3h-2.2v0.1c0.1,0,0.2,0.1,0.2,0.3v4.1c0,0.2,0,0.3-0.2,0.3
	v0.1h0.8v-0.1c-0.2,0-0.2-0.1-0.2-0.3V40.3z M69.2,40.2h1.6c0.2,0,0.2,0,0.3,0.2h0.1v-0.9h-0.1c0,0.2-0.1,0.2-0.3,0.2h-1.6V38h2.5
	c0.2,0,0.2,0,0.3,0.2H72v-0.9h-0.1c0,0.2-0.1,0.2-0.3,0.2h-3.2v0.1c0.1,0,0.2,0.1,0.2,0.3v4.1c0,0.2,0,0.3-0.2,0.3v0.1h3.2
	c0.2,0,0.2,0,0.3,0.2h0.1v-0.9H72c0,0.2-0.1,0.2-0.3,0.2h-2.6V40.2z M65.4,41.9l-1.3-3.6c0-0.1-0.1-0.3-0.1-0.3
	c0-0.1,0.1-0.2,0.2-0.2v-0.1h-1v0.1c0.2,0.1,0.2,0.1,0.3,0.5l1.3,3.7c0.1,0.2,0.1,0.2,0.1,0.3c0,0.1-0.1,0.2-0.2,0.2v0.1H66v-0.1
	c-0.1,0-0.2-0.1-0.2-0.2c0-0.1,0-0.2,0.1-0.3l1.3-3.6c0.2-0.5,0.2-0.5,0.4-0.6v-0.1h-0.9v0.1c0.1,0,0.2,0.1,0.2,0.2
	c0,0.1,0,0.2-0.1,0.3L65.4,41.9z M58.4,37.7c0.1,0,0.2,0.1,0.2,0.3v2.8c0,0.6,0.1,0.9,0.3,1.2c0.3,0.4,0.8,0.5,1.5,0.5
	c0.7,0,1.1-0.1,1.4-0.4c0.3-0.3,0.4-0.6,0.4-1.3V38c0-0.2,0-0.3,0.2-0.3v-0.1h-0.8v0.1c0.2,0,0.2,0.1,0.2,0.3v2.7c0,0.6,0,0.8-0.2,1
	c-0.2,0.3-0.6,0.4-1.2,0.4c-0.6,0-1-0.1-1.2-0.3c-0.2-0.2-0.2-0.4-0.2-1V38c0-0.2,0-0.3,0.2-0.3v-0.1h-0.8V37.7z M54.8,38
	c1.2,0,1.9,0.8,1.9,2.1c0,0.5-0.2,1-0.5,1.4c-0.3,0.4-0.8,0.6-1.4,0.6c-0.6,0-1.1-0.2-1.4-0.6c-0.3-0.4-0.5-0.9-0.5-1.4
	C52.9,38.8,53.7,38,54.8,38 M54.8,37.5c-0.7,0-1.2,0.2-1.7,0.7c-0.4,0.5-0.7,1.2-0.7,1.9c0,0.7,0.3,1.4,0.7,1.9
	c0.4,0.5,1,0.7,1.7,0.7c0.7,0,1.3-0.2,1.7-0.7c0.4-0.5,0.7-1.2,0.7-1.8c0-0.8-0.2-1.4-0.7-1.9C56.1,37.7,55.5,37.5,54.8,37.5
	 M51.4,38L51.4,38c-0.2,0.1-0.2,0.1-0.2,0.1c0,0,0,0-0.1,0c-0.5-0.4-1.1-0.6-1.7-0.6c-1.4,0-2.4,1-2.4,2.6c0,0.7,0.2,1.4,0.7,1.9
	c0.4,0.5,1,0.7,1.6,0.7c0.7,0,1.2-0.2,1.8-0.8c0.1-0.1,0.1-0.1,0.1-0.1c0,0,0.1,0,0.1,0.1l0.1-0.1L51,41L51,41.1
	c0,0.1,0.1,0.1,0.1,0.2c0,0.1-0.1,0.2-0.3,0.3c-0.4,0.4-0.8,0.5-1.3,0.5c-1,0-1.8-0.9-1.8-2.1c0-1.2,0.7-2,1.8-2
	c0.4,0,0.8,0.1,1.1,0.3c0.3,0.2,0.4,0.3,0.4,0.4c0,0,0,0.1,0,0.2l0.1,0.1L51.4,38z M42.4,38.2L45,42c0.1,0.1,0.1,0.2,0.1,0.3
	c0,0.1,0,0.1-0.1,0.1v0.1h0.9v-0.1c-0.1,0-0.2-0.1-0.2-0.3V38c0-0.2,0-0.3,0.2-0.3v-0.1h-0.8v0.1c0.1,0,0.2,0.1,0.2,0.3v3.6
	l-2.4-3.5c-0.1-0.2-0.1-0.2-0.1-0.3c0-0.1,0-0.1,0.1-0.2v-0.1h-1.1v0.1c0.1,0,0.2,0.1,0.2,0.3v4.1c0,0.2,0,0.3-0.2,0.3v0.1h0.8v-0.1
	c-0.2,0-0.2-0.1-0.2-0.3V38.2z M39.6,40.7h-1.8l0.9-2.4L39.6,40.7z M39.8,41.1l0.3,0.9c0.1,0.1,0.1,0.2,0.1,0.2
	c0,0.1-0.1,0.1-0.2,0.2v0.1H41v-0.1c-0.2-0.1-0.2-0.1-0.4-0.6L39.1,38c0-0.1-0.1-0.1-0.1-0.2c0-0.1,0-0.1,0.1-0.1v-0.1h-1v0.1
	c0.1,0,0.1,0.1,0.1,0.1c0,0,0,0.1-0.1,0.2l-1.5,3.9c-0.1,0.4-0.2,0.4-0.3,0.5v0.1h0.9v-0.1c-0.1,0-0.2-0.1-0.2-0.1
	c0,0,0-0.1,0.1-0.2l0.3-0.9H39.8z M34.4,41.9l-1.3-3.6c0-0.1-0.1-0.3-0.1-0.3c0-0.1,0.1-0.2,0.2-0.2v-0.1h-1v0.1
	c0.2,0.1,0.2,0.1,0.3,0.5l1.3,3.7c0.1,0.2,0.1,0.2,0.1,0.3c0,0.1-0.1,0.2-0.2,0.2v0.1h1.1v-0.1c-0.1,0-0.2-0.1-0.2-0.2
	c0-0.1,0-0.2,0.1-0.3l1.3-3.6c0.2-0.5,0.2-0.5,0.4-0.6v-0.1h-0.9v0.1c0.1,0,0.2,0.1,0.2,0.2c0,0.1,0,0.2-0.1,0.3L34.4,41.9z"/>
<path d="M155.8,0.8v1.6h2v30.8h2V2.5h2V0.8H155.8z M148.9,21.9V30c0,1.4-0.4,1.9-1.4,1.9c-1,0-1.5-0.6-1.5-1.9V4.4
	c0-1.7,0.4-2.4,1.5-2.4c1,0,1.4,0.5,1.4,2.4V12h1.8V4.4c0-2.8-0.9-3.9-3.1-3.9c-2.2,0-3.4,1.4-3.4,3.9V30c0,2.4,1.2,3.6,3.3,3.6
	c1.4,0,2.6-0.7,3-1.7c0.2-0.5,0.3-1,0.3-2v-8.2L148.9,21.9z M133.6,0.8v32.5h5.1v-1.6h-3.3V17.6h3.3v-1.6h-3.3V2.5h3.3V0.8H133.6z
	 M123.7,0.8v32.5h5v-1.6h-3.2V0.8H123.7z M113.1,0.8v32.5h5.1v-1.6h-3.3V17.6h3.3v-1.6h-3.3V2.5h3.3V0.8H113.1z M101.6,22.2v7.6
	c0,2.5,0.9,3.6,3,3.6c2.1,0,3-1.1,3-3.6V19.6c0-1.6-0.2-2-1.7-2.9l-1.7-0.9l-0.2-0.1l-0.4-0.3c-0.1,0-0.1,0-0.1-0.1
	c-0.1-0.1-0.1-0.1-0.1-0.6V4.5c0-1.8,0.2-2.3,1.2-2.3c0.7,0,1,0.2,1.2,0.7c0.1,0.2,0.1,0.2,0.1,1.8v7.4h1.8V4.8
	c0-3.2-0.7-4.2-2.9-4.2c-2.2,0-3.1,1.2-3.1,4.2v9.5c0,2.1,0.2,2.4,1.6,3.1l1.8,0.9c0.8,0.4,0.9,0.7,0.9,1.7v9.9
	c0,1.4-0.3,1.8-1.1,1.8c-0.9,0-1.3-0.5-1.3-1.8v-7.7H101.6z M83.2,0.8v1.6h2v30.8h2V2.5h2V0.8H83.2z M74,2.5h0.3
	c1.5,0,2.1,0.6,2.1,2.4v8.7c0,2.1-0.4,2.5-2.4,2.5V2.5z M72.2,0.8v32.5H74V17.7c1.9,0,2.4,0.3,2.4,2v11.8c0,1,0.1,1.4,0.5,1.8h1.8
	c-0.3-0.3-0.4-0.5-0.4-0.8l-0.1-0.8v-0.2V19.3c0.1-1.4-0.6-2.4-1.8-2.6c1.3-0.3,1.8-1.3,1.8-3.3V4.9c0.1-2.8-1.1-4.1-4-4.1H72.2z
	 M64.1,20.2h-1.8l0.8-12.7L64.1,20.2z M62.1,0.8l-2.7,32.5h2.1l0.8-11.5h2l0.9,11.5h2l-3-32.5H62.1z M43.6,0.8v32.5h1.8V6.7
	l2.7,26.6h1.5l2.7-27v27h1.8V0.8h-2.6l-2.6,26.7L46.1,0.8H43.6z M32.1,22.2v7.6c0,2.5,0.9,3.6,3,3.6c2.1,0,3-1.1,3-3.6V19.6
	c0-1.6-0.2-2-1.7-2.9l-1.7-0.9l-0.2-0.1l-0.4-0.3c-0.1,0-0.1,0-0.1-0.1c-0.1-0.1-0.1-0.1-0.1-0.6V4.5c0-1.8,0.2-2.3,1.2-2.3
	c0.7,0,1,0.2,1.1,0.7c0.1,0.2,0.1,0.2,0.1,1.8v7.4h1.8V4.8c0-3.2-0.7-4.2-2.9-4.2c-2.2,0-3.1,1.2-3.1,4.2v9.5c0,2.1,0.2,2.4,1.6,3.1
	l1.8,0.9c0.8,0.4,0.9,0.7,0.9,1.7v9.9c0,1.4-0.3,1.8-1.1,1.8c-0.9,0-1.3-0.5-1.3-1.8v-7.7H32.1z"/>
</svg>
