<?xml version="1.0" encoding="utf-8"?>
<!-- Generator: Adobe Illustrator 22.0.1, SVG Export Plug-In . SVG Version: 6.00 Build 0)  -->
<svg version="1.1" id="Layer_1" xmlns="http://www.w3.org/2000/svg" xmlns:xlink="http://www.w3.org/1999/xlink" x="0px" y="0px"
	 viewBox="0 0 244 244" style="enable-background:new 0 0 244 244;" xml:space="preserve">
<style type="text/css">
	.st0{fill:#9DCBE4;}
	.st1{fill:none;stroke:#FFFFFF;stroke-width:2;stroke-linejoin:round;stroke-miterlimit:10;}
	.st2{fill:#0F4360;}
	.st3{fill:#FFFFFF;}
	.st4{clip-path:url(#SVGID_2_);fill:#FFFFFF;}
	.st5{fill:#E1F6FF;}
	.st6{fill-rule:evenodd;clip-rule:evenodd;fill:#9DCBE4;}
	.st7{fill:#F2F2F2;}
	.st8{fill:#F14336;}
	.st9{fill:#D32E2A;}
	.st10{fill:#1D1D1D;}
	.st11{fill-rule:evenodd;clip-rule:evenodd;fill:#FD3832;}
	.st12{fill:#0B86CA;}
	.st13{fill:#23B6EA;}
	.st14{fill-rule:evenodd;clip-rule:evenodd;fill:#181616;}
</style>
<g>
	<path class="st10" d="M100.2,113.7c-0.7-1.1-2.2-1.5-3.3-0.8l-28.2,16.8c-0.7,0.4-1.2,1.2-1.2,2.1s0.4,1.6,1.2,2.1l28.2,16.8
		c0.4,0.2,0.8,0.3,1.2,0.3c0.8,0,1.6-0.4,2.1-1.2c0.7-1.1,0.3-2.6-0.8-3.3l-24.7-14.7L99.3,117C100.5,116.3,100.8,114.8,100.2,113.7
		L100.2,113.7z M100.2,113.7"/>
	<path class="st10" d="M143.8,149.7c0.5,0.8,1.3,1.2,2.1,1.2c0.4,0,0.8-0.1,1.2-0.3l28.2-16.8c0.7-0.4,1.2-1.2,1.2-2.1
		s-0.4-1.6-1.2-2.1l-28.2-16.8c-1.1-0.7-2.6-0.3-3.3,0.8c-0.7,1.1-0.3,2.6,0.8,3.3l24.7,14.7l-24.7,14.7
		C143.5,147.1,143.2,148.6,143.8,149.7L143.8,149.7z M143.8,149.7"/>
	<path class="st10" d="M131.3,113.5l-22.6,33.6c-0.7,1.1-0.5,2.6,0.7,3.4c0.4,0.3,0.9,0.4,1.3,0.4c0.8,0,1.5-0.4,2-1.1l22.6-33.6
		c0.7-1.1,0.5-2.6-0.7-3.4C133.5,112.1,132,112.4,131.3,113.5L131.3,113.5z M131.3,113.5"/>
	<path class="st10" d="M195.4,53.4H48.6c-1.3,0-2.4,1.1-2.4,2.4v132.3c0,1.3,1.1,2.4,2.4,2.4h146.8c1.3,0,2.4-1.1,2.4-2.4v-25.8
		c0-1.3-1.1-2.4-2.4-2.4s-2.4,1.1-2.4,2.4v23.4H51V77.6h142v75c0,1.3,1.1,2.4,2.4,2.4s2.4-1.1,2.4-2.4V55.9
		C197.8,54.5,196.7,53.4,195.4,53.4L195.4,53.4z M51,58.3h89.5v14.5H51V58.3z M145.4,72.8V58.3H193v14.5H145.4z M145.4,72.8"/>
	<path class="st10" d="M169.3,63c-1.4,0-2.6,1.2-2.6,2.6c0,1.4,1.2,2.6,2.6,2.6c1.4,0,2.6-1.2,2.6-2.6C171.8,64.1,170.7,63,169.3,63
		L169.3,63z M169.3,63"/>
	<path class="st10" d="M156,63c-1.4,0-2.6,1.2-2.6,2.6c0,1.4,1.2,2.6,2.6,2.6c1.4,0,2.6-1.2,2.6-2.6C158.6,64.1,157.5,63,156,63
		L156,63z M156,63"/>
	<path class="st10" d="M182.5,63c-1.4,0-2.6,1.2-2.6,2.6c0,1.4,1.2,2.6,2.6,2.6c1.4,0,2.6-1.2,2.6-2.6C185.1,64.1,183.9,63,182.5,63
		L182.5,63z M182.5,63"/>
</g>
<g>
	<path class="st10" d="M122,5c31.3,0,60.6,12.2,82.7,34.3C226.8,61.4,239,90.7,239,122s-12.2,60.6-34.3,82.7
		C182.6,226.8,153.3,239,122,239s-60.6-12.2-82.7-34.3C17.2,182.6,5,153.3,5,122s12.2-60.6,34.3-82.7C61.4,17.2,90.7,5,122,5 M122,0
		C54.6,0,0,54.6,0,122s54.6,122,122,122s122-54.6,122-122S189.4,0,122,0L122,0z"/>
</g>
</svg>
