<svg id="Layer_1" data-name="Layer 1" xmlns="http://www.w3.org/2000/svg" viewBox="0 0 74 74"><defs><style>.cls-1{fill:#9dcbe4;}.cls-2{fill:none;stroke:#fff;stroke-linejoin:round;stroke-width:2px;}</style></defs><title>icon-skill</title><circle class="cls-1" cx="37" cy="37" r="37"/><path class="cls-2" d="M60,26.83l-.43-.74a10.31,10.31,0,0,0-10.8-5l-2.87-5A4.28,4.28,0,0,0,40,14.58l-1.49.85-1.48.86a4.28,4.28,0,0,0-1.57,5.86l2.87,5A10.31,10.31,0,0,0,37.27,39l.43.74Z"/><path class="cls-2" d="M53.31,30.7a5.15,5.15,0,0,1-8.92,5.15"/><path class="cls-2" d="M25,50H46a4,4,0,0,1,4,4v2a0,0,0,0,1,0,0H21a0,0,0,0,1,0,0V54A4,4,0,0,1,25,50Z"/><line class="cls-2" x1="24" y1="31.57" x2="36" y2="23"/><line class="cls-2" x1="34" y1="46" x2="23.65" y2="35"/><circle class="cls-2" cx="22" cy="33" r="3"/><path class="cls-2" d="M32,49a3,3,0,0,1,6,0"/></svg>