<?xml version="1.0" encoding="utf-8"?>
<!-- Generator: Adobe Illustrator 22.0.1, SVG Export Plug-In . SVG Version: 6.00 Build 0)  -->
<svg version="1.1" id="Layer_1" xmlns="http://www.w3.org/2000/svg" xmlns:xlink="http://www.w3.org/1999/xlink" x="0px" y="0px"
	 viewBox="0 0 949.9 124" style="enable-background:new 0 0 949.9 124;" xml:space="preserve">
<style type="text/css">
	.st0{fill:#FFFFFF;}
</style>
<g>
	<g>
		<path class="st0" d="M78.5,100.2c-3.1,7.6-7.5,13.4-13.1,17.5c-5.6,4.1-14,6.2-25.3,6.2c-14.1,0-24.3-4.3-30.6-13S0,88.7,0,70.4
			V53.5C0,35.2,3.2,21.7,9.5,13S26,0,40.1,0c11.2,0,19.7,2.1,25.3,6.2c5.6,4.1,10,10,13.1,17.5l-4.6,2.2
			c-2.6-6.6-6.4-11.8-11.2-15.4S50.4,5.1,40.2,5.1c-5.6,0-10.4,0.7-14.4,2.1s-7.6,3.9-10.8,7.3s-5.6,8.4-7.2,14.9s-2.4,14.5-2.4,24
			v16.9c0,9.5,0.8,17.5,2.4,24c1.6,6.5,4,11.4,7.2,14.9c3.2,3.4,6.8,5.9,10.8,7.3s8.8,2.1,14.4,2.1c10.2,0,17.7-1.8,22.5-5.4
			s8.5-8.7,11.2-15.4L78.5,100.2z"/>
		<path class="st0" d="M180.3,111c-6.3,8.7-16.5,13-30.6,13s-24.3-4.3-30.6-13s-9.5-22.2-9.5-40.5V53.6c0-18.3,3.2-31.8,9.5-40.5
			s16.5-13,30.6-13s24.3,4.3,30.6,13s9.5,22.2,9.5,40.5v16.9C189.8,88.8,186.6,102.3,180.3,111z M164.1,7.4c-4-1.4-8.8-2.1-14.4-2.1
			S139.3,6,135.3,7.4s-7.6,3.9-10.8,7.3c-3.2,3.4-5.6,8.4-7.2,14.9s-2.4,14.5-2.4,24v16.9c0,9.5,0.8,17.5,2.4,24
			c1.6,6.5,4,11.4,7.2,14.9c3.2,3.4,6.8,5.9,10.8,7.3s8.8,2.1,14.4,2.1c5.6,0,10.4-0.7,14.4-2.1s7.6-3.9,10.8-7.3s5.6-8.4,7.2-14.9
			c1.6-6.5,2.4-14.5,2.4-24V53.6c0-9.5-0.8-17.5-2.4-24s-4-11.4-7.2-14.9C171.8,11.3,168.1,8.9,164.1,7.4z"/>
		<path class="st0" d="M334.9,117.1h63.3L361.8,16.8l-38.4,105.5h-5.5L361.8,1.7l43.9,120.6H335v-5.2H334.9z"/>
		<path class="st0" d="M496.8,7V1.8h115L568,122.4l-22.4-61.2l-22.2,61.2L479.5,1.8h5.5l38.4,105.4L545.6,46l22.4,61.2L604.5,6.9
			L496.8,7L496.8,7z"/>
		<path class="st0" d="M707.3,111c-6.3,8.7-16.5,13-30.6,13s-24.3-4.3-30.6-13s-9.5-22.2-9.5-40.5V53.6c0-18.3,3.2-31.8,9.5-40.5
			s16.5-13,30.6-13s24.3,4.3,30.6,13s9.5,22.2,9.5,40.5v16.9C716.8,88.8,713.6,102.3,707.3,111z M691.1,7.4c-4-1.4-8.8-2.1-14.4-2.1
			c-5.6,0-10.4,0.7-14.4,2.1s-7.6,3.9-10.8,7.3s-5.6,8.4-7.2,14.9c-1.6,6.5-2.4,14.5-2.4,24v16.9c0,9.5,0.8,17.5,2.4,24
			c1.6,6.5,4,11.4,7.2,14.9c3.2,3.4,6.8,5.9,10.8,7.3s8.8,2.1,14.4,2.1c5.6,0,10.4-0.7,14.4-2.1s7.6-3.9,10.8-7.3s5.6-8.4,7.2-14.9
			c1.6-6.5,2.4-14.5,2.4-24V53.6c0-9.5-0.8-17.5-2.4-24c-1.6-6.5-4-11.4-7.2-14.9C698.8,11.3,695.1,8.9,691.1,7.4z"/>
		<path class="st0" d="M760.8,10.6v111.6h-5.2V1.8h6l64.3,111.3V1.8h5.2v120.4h-5.9L760.8,10.6z"/>
		<path class="st0" d="M943.8,26.1c-2.6-6.6-6.4-11.8-11.2-15.4s-12.3-5.4-22.5-5.4c-5.6,0-10.4,0.7-14.4,2.1s-7.6,3.9-10.8,7.3
			s-5.6,8.4-7.2,14.9c-1.6,6.5-2.4,14.5-2.4,24v16.9c0,9.5,0.8,17.5,2.4,24c1.6,6.5,4,11.4,7.2,14.9c3.2,3.4,6.8,5.9,10.8,7.3
			s8.8,2.1,14.4,2.1c10.3,0,18.5-2.2,24.6-6.6s9.1-9.1,9.1-14.2V68.9h-21.2v-5.2h27.3v32.5c0,7.7-3.5,14.2-10.4,19.6
			s-16.8,8.1-29.5,8.1c-14.1,0-24.3-4.3-30.6-13s-9.5-22.2-9.5-40.5V53.5c0-18.3,3.2-31.8,9.5-40.5S895.9,0,910,0
			c11.4,0,19.8,2.1,25.5,6.3c5.6,4.2,10,10.1,13.1,17.8L943.8,26.1z"/>
	</g>
	<path class="st0" d="M268.7,60.1l9.6-5.5c7.9-4.4,11.9-11.3,11.9-20.8c0-17.8-13.5-26.7-40.6-26.7h-15.8v115.2h-5.2V1.9h21
		c15.1,0,26.5,2.8,34.2,8.3c7.7,5.6,11.5,13.4,11.5,23.5c0,11.5-4.8,19.9-14.4,25.3l-5.8,3.3l21.8,60h-5.5L268.7,60.1z"/>
</g>
</svg>
