<svg id="Layer_1" data-name="Layer 1" xmlns="http://www.w3.org/2000/svg" viewBox="0 0 244 244"><defs><style>.cls-1{fill:#9dcbe4;}.cls-2{fill:#fff;}.cls-3{fill:#0f4360;}</style></defs><title>skill-uiux-design</title><rect class="cls-1" width="244" height="244" rx="90" ry="90"/><rect class="cls-2" x="44.36" y="85.74" width="154.82" height="98.97"/><rect class="cls-1" x="67.29" y="108.24" width="25.48" height="25.48"/><rect class="cls-1" x="109.26" y="109.08" width="25.48" height="25.48"/><rect class="cls-1" x="151.64" y="109.26" width="25.48" height="25.48"/><path class="cls-2" d="M199.26,55.72H44.74A3.29,3.29,0,0,0,41.45,59V185a3.29,3.29,0,0,0,3.29,3.29H199.26a3.29,3.29,0,0,0,3.29-3.29V59a3.29,3.29,0,0,0-3.29-3.29ZM196,62.3V82.1H48V62.3ZM48,181.7v-93H196v93Zm0,0"/><path class="cls-1" d="M92.77,105.21H66.48a3.29,3.29,0,0,0-3.29,3.29v26.63a3.29,3.29,0,0,0,3.29,3.29H92.77a3.29,3.29,0,0,0,3.29-3.29V108.5a3.3,3.3,0,0,0-3.29-3.29Zm-3.29,26.63H69.77v-20H89.48Zm0,0"/><path class="cls-1" d="M108.62,138.42H134.9a3.29,3.29,0,0,0,3.29-3.29V108.5a3.29,3.29,0,0,0-3.29-3.29H108.62a3.29,3.29,0,0,0-3.29,3.29v26.63a3.29,3.29,0,0,0,3.29,3.29Zm3.28-26.63h19.72v20H111.9Zm0,0"/><path class="cls-1" d="M150.75,138.42H177a3.29,3.29,0,0,0,3.29-3.29V108.5a3.29,3.29,0,0,0-3.29-3.29H150.75a3.3,3.3,0,0,0-3.29,3.29v26.63a3.29,3.29,0,0,0,3.29,3.29ZM154,111.79h19.71v20H154Zm0,0"/><path class="cls-3" d="M92.77,146.76H66.48a3.29,3.29,0,1,0,0,6.58H92.77a3.29,3.29,0,0,0,0-6.58Zm0,0"/><path class="cls-3" d="M92.77,158.93H66.48a3.29,3.29,0,1,0,0,6.57H92.77a3.29,3.29,0,1,0,0-6.57Zm0,0"/><path class="cls-3" d="M135.14,146.76H108.86a3.29,3.29,0,0,0,0,6.58h26.29a3.29,3.29,0,0,0,0-6.58Zm0,0"/><path class="cls-3" d="M135.14,158.93H108.86a3.29,3.29,0,1,0,0,6.57h26.29a3.29,3.29,0,1,0,0-6.57Zm0,0"/><path class="cls-3" d="M177.52,146.76H151.23a3.29,3.29,0,0,0,0,6.58h26.29a3.29,3.29,0,0,0,0-6.58Zm0,0"/><path class="cls-3" d="M177.52,158.93H151.23a3.29,3.29,0,1,0,0,6.57h26.29a3.29,3.29,0,1,0,0-6.57Zm0,0"/><path class="cls-3" d="M45,55.72H199a3.5,3.5,0,0,1,3.5,3.5V88.67a0,0,0,0,1,0,0H41.45a0,0,0,0,1,0,0V59.22A3.5,3.5,0,0,1,45,55.72Z"/><path class="cls-1" d="M66.48,75.41H68.1a3.29,3.29,0,1,0,0-6.57H66.48a3.29,3.29,0,1,0,0,6.57Zm0,0"/><path class="cls-1" d="M80.11,75.41h1.62a3.29,3.29,0,1,0,0-6.57H80.11a3.29,3.29,0,1,0,0,6.57Zm0,0"/><path class="cls-1" d="M93.74,75.41h1.62a3.29,3.29,0,1,0,0-6.57H93.74a3.29,3.29,0,1,0,0,6.57Zm0,0"/></svg>