<svg id="Layer_1" data-name="Layer 1" xmlns="http://www.w3.org/2000/svg" xmlns:xlink="http://www.w3.org/1999/xlink" viewBox="0 0 244 244"><defs><style>.cls-1{fill:none;}.cls-2{fill:#9dcbe4;}.cls-3{fill:#fff;}.cls-4{clip-path:url(#clip-path);}.cls-5{fill:#0f4360;}.cls-6{fill:#e1f6ff;}</style><clipPath id="clip-path"><rect class="cls-1" x="38.97" y="55.93" width="166.06" height="132.14"/></clipPath></defs><title>skill-graphic-design</title><rect class="cls-2" x="0.01" width="244" height="244" rx="90" ry="90"/><rect class="cls-3" x="41" y="75" width="148.22" height="110.54"/><g class="cls-4"><path class="cls-3" d="M204.55,94.54a9.44,9.44,0,0,0-4.45-5.78l-6.38-3.68V59.61a3.44,3.44,0,0,0-3.44-3.43H42.41A3.44,3.44,0,0,0,39,59.61V184.15a3.44,3.44,0,0,0,3.44,3.43H190.28a3.44,3.44,0,0,0,3.44-3.43V118.83l9.87-17.07a9.4,9.4,0,0,0,1-7.22ZM45.85,63h141V69.9h-141Zm141,117.68h-141v-104h141v5.67a9.55,9.55,0,0,0-8.56,4.75l-25.44,44H75.08a3.44,3.44,0,0,0-3.44,3.43V148.3a3.44,3.44,0,0,0,3.44,3.43h68.17l.19,18.91a3.45,3.45,0,0,0,1.72,2.94,3.46,3.46,0,0,0,3.41,0l19.13-10.77a3.3,3.3,0,0,0,1.08-1l.21-.3h0l17.85-30.84Zm-35.49-33.29,18.74-32.38,13.41,7.72-18.75,32.38Zm7.73,12.38-8.82,5-.1-10.1,4.46,2.57ZM148.87,138l-4,6.87H78.52V138Zm38.07-21.17-13.41-7.72,3.44-5.94,13.4,7.71Zm10.7-18.5-3.83,6.61-13.4-7.72,3.83-6.61a2.67,2.67,0,0,1,3.64-1l8.78,5.06a2.65,2.65,0,0,1,1,3.63Zm0,0"/></g><path class="cls-5" d="M104.83,159.62H75.77a3.43,3.43,0,1,0,0,6.86h29.06a3.43,3.43,0,1,0,0-6.86Zm0,0"/><path class="cls-5" d="M118.58,159.62h-.34a3.43,3.43,0,1,0,0,6.86h.34a3.43,3.43,0,1,0,0-6.86Zm0,0"/><path class="cls-5" d="M41.85,56.2h149a2.88,2.88,0,0,1,2.88,2.88V79.36a0,0,0,0,1,0,0H39a0,0,0,0,1,0,0V59.07A2.88,2.88,0,0,1,41.85,56.2Z"/><rect class="cls-2" x="155.84" y="101.19" width="29.29" height="56.45" transform="translate(87.55 -67.9) rotate(30)"/><path class="cls-6" d="M185,84.19h10.29a9.5,9.5,0,0,1,9.5,9.5v12.78a0,0,0,0,1,0,0H175.52a0,0,0,0,1,0,0V93.69A9.5,9.5,0,0,1,185,84.19Z" transform="translate(73.14 -82.31) rotate(30)"/><path class="cls-5" d="M143.69,146.54l-.19,23.52a3.45,3.45,0,0,0,1.72,2.94,3.46,3.46,0,0,0,3.41,0l20.42-11.84Z"/><path class="cls-2" d="M100.87,132.88h30.95a15.44,15.44,0,1,0,0-30.88H100.87a15.44,15.44,0,1,0,0,30.88Zm0-24h30.95a8.58,8.58,0,1,1,0,17.16H100.87a8.58,8.58,0,1,1,0-17.16Zm0,0"/><rect class="cls-2" x="92.27" y="107.31" width="48.14" height="21.93"/><path class="cls-5" d="M117.26,144.62H77.08c-2.62,0-4.75,1.53-4.75,3.43s2.13,3.43,4.75,3.43h40.18c2.63,0,4.76-1.54,4.76-3.43s-2.13-3.43-4.76-3.43Zm0,0"/></svg>