<svg id="Layer_1" data-name="Layer 1" xmlns="http://www.w3.org/2000/svg" viewBox="0 0 244 244"><defs><style>.cls-1{fill:#9dcbe4;}.cls-2{fill:#fff;}.cls-3{fill:#0f4360;}</style></defs><title>skill-coding</title><rect class="cls-1" x="0.38" width="244" height="244" rx="90" ry="90"/><rect class="cls-2" x="53.03" y="60.91" width="137.51" height="86.76"/><path class="cls-2" d="M181.05,55.78H63.71A13.64,13.64,0,0,0,50.05,69.36v77.45a13.64,13.64,0,0,0,13.66,13.58h38.7a78.91,78.91,0,0,1-4,21.64H88.94a3.1,3.1,0,1,0,0,6.19h66.88a3.1,3.1,0,1,0,0-6.19h-9.46a79.29,79.29,0,0,1-4-21.64h38.71a13.63,13.63,0,0,0,13.65-13.58V69.36A13.63,13.63,0,0,0,181.05,55.78ZM56.28,69.36A7.41,7.41,0,0,1,63.71,62H181.05a7.42,7.42,0,0,1,7.43,7.39V140H56.28Zm132.2,77.45a7.42,7.42,0,0,1-7.43,7.39H63.71a7.41,7.41,0,0,1-7.43-7.39v-.64h132.2v.64Z"/><path class="cls-1" d="M163.86,127.61h-67a3.1,3.1,0,1,0,0,6.19h67a3.1,3.1,0,1,0,0-6.19Z"/><path class="cls-1" d="M81.4,127.61h-.5a3.1,3.1,0,1,0,0,6.19h.5a3.1,3.1,0,1,0,0-6.19Z"/><path class="cls-3" d="M165.88,94.6,144.77,76.66a3.12,3.12,0,0,0-4.38.34,3.08,3.08,0,0,0,.34,4.36L159.07,97l-18.34,15.59a3.08,3.08,0,0,0-.34,4.36,3.12,3.12,0,0,0,2.36,1.08,3.08,3.08,0,0,0,2-.74L165.88,99.3a3.08,3.08,0,0,0,0-4.7Z"/><path class="cls-3" d="M78.88,99.3,100,117.24a3.13,3.13,0,0,0,4.39-.34,3.08,3.08,0,0,0-.35-4.36L85.69,97,104,81.36a3.08,3.08,0,0,0,.35-4.36,3.14,3.14,0,0,0-4.39-.34L78.88,94.6a3.08,3.08,0,0,0,0,4.7Z"/><path class="cls-3" d="M113.48,124.12a3.27,3.27,0,0,0,1,.15,3.09,3.09,0,0,0,3-2.14l15.87-48.45a3.11,3.11,0,0,0-5.92-1.91l-15.86,48.45A3.09,3.09,0,0,0,113.48,124.12Z"/><path class="cls-3" d="M62.91,143.18H181.85A12.86,12.86,0,0,1,194.7,156v4.35a0,0,0,0,1,0,0H50.05a0,0,0,0,1,0,0V156a12.86,12.86,0,0,1,12.86-12.86Z" transform="translate(244.76 303.57) rotate(180)"/></svg>