<?xml version="1.0" encoding="utf-8"?>
<!-- Generator: Adobe Illustrator 22.0.1, SVG Export Plug-In . SVG Version: 6.00 Build 0)  -->
<svg version="1.1" id="Layer_1" xmlns="http://www.w3.org/2000/svg" xmlns:xlink="http://www.w3.org/1999/xlink" x="0px" y="0px"
	 viewBox="0 0 35.8 35.8" style="enable-background:new 0 0 35.8 35.8;" xml:space="preserve">
<style type="text/css">
	.st0{fill:#9DCBE4;}
	.st1{fill:none;stroke:#FFFFFF;stroke-width:2;stroke-linejoin:round;stroke-miterlimit:10;}
	.st2{fill:#0F4360;}
	.st3{fill:#FFFFFF;}
	.st4{clip-path:url(#SVGID_2_);fill:#FFFFFF;}
	.st5{fill:#E1F6FF;}
	.st6{fill-rule:evenodd;clip-rule:evenodd;fill:#FD3832;}
	.st7{fill:#0B86CA;}
	.st8{fill:#23B6EA;}
	.st9{fill:#F2F2F2;}
	.st10{fill:#F14336;}
	.st11{fill:#D32E2A;}
</style>
<g>
	<g>
		<polygon class="st9" points="30.8,10.4 29,28.9 6.8,28.9 5.3,10.7 17.9,17.8 		"/>
		<polygon class="st9" points="30.2,6.9 17.9,18.4 5.6,6.9 17.9,6.9 		"/>
	</g>
	<path class="st10" d="M6.8,12.2v16.7h-2c-0.8,0-1.4-0.6-1.4-1.4V9.8l2.2,0.1L6.8,12.2z"/>
	<path class="st11" d="M32.3,9.8v17.8c0,0.8-0.6,1.4-1.4,1.4h-2V12.2l1.1-2.6L32.3,9.8z"/>
	<path class="st10" d="M32.3,8.2v1.5L29,12.2l-11.1,8.1L6.8,12.2L3.4,9.8V8.2c0-0.8,0.6-1.4,1.4-1.4h0.8l12.3,9l12.3-9H31
		C31.7,6.9,32.3,7.5,32.3,8.2z"/>
	<polygon class="st11" points="6.8,12.2 3.4,11.7 3.4,9.8 	"/>
</g>
</svg>
