<svg xmlns="http://www.w3.org/2000/svg" viewBox="0 0 35.77 35.77"><defs><style>.cls-1{isolation:isolate;}.cls-2{fill:#23b6ea;mix-blend-mode:multiply;}</style></defs><title>social-vimeo</title><g class="cls-1"><g id="Layer_1" data-name="Layer 1"><path class="cls-2" d="M31.61,11.51C31.38,16.66,22,29.74,16.52,29.74c-1.6,0-2.95-1.47-4.06-4.43C10.34,17.53,9.4,12.75,7.59,12.75A8.56,8.56,0,0,0,5.44,14l-1.3-1.66c3.45-3,6.23-5.87,8.07-6q3.21-.31,3.94,4.37c.64,4,1.55,10.47,3.15,10.47,1.23,0,4.27-5,4.43-6.83.27-2.6-1.86-2.75-3.88-1.91q2-6.6,7.76-6.41c2.83.08,4.17,1.91,4,5.48Z"/></g></g></svg>