<svg xmlns="http://www.w3.org/2000/svg" viewBox="0 0 35.77 35.77"><defs><style>.cls-1{isolation:isolate;}.cls-2{fill:#fd3832;fill-rule:evenodd;mix-blend-mode:multiply;}</style></defs><title>social-youtube</title><g class="cls-1"><g id="Layer_1" data-name="Layer 1"><path class="cls-2" d="M6,27.6a3.48,3.48,0,0,1-2.3-2.24c-1-2.73-1.29-14.18.63-16.44a3.72,3.72,0,0,1,2.5-1.33C12,7,28,7.11,29.79,7.78A3.58,3.58,0,0,1,32.05,10c1.09,2.83,1.12,13.12-.15,15.85a3.42,3.42,0,0,1-1.62,1.63C28.36,28.44,8.53,28.43,6,27.6Zm8.21-5.37,9.3-4.82-9.3-4.86Z"/></g></g></svg>