<?xml version="1.0" encoding="utf-8"?>
<!-- Generator: Adobe Illustrator 22.0.1, SVG Export Plug-In . SVG Version: 6.00 Build 0)  -->
<svg version="1.1" id="Layer_1" xmlns="http://www.w3.org/2000/svg" xmlns:xlink="http://www.w3.org/1999/xlink" x="0px" y="0px"
	 viewBox="0 0 244 244" style="enable-background:new 0 0 244 244;" xml:space="preserve">
<style type="text/css">
	.st0{fill:#F3F3F3;}
	.st1{fill:#1D1D1D;}
	.st2{fill:#9DCBE4;}
	.st3{fill:none;stroke:#FFFFFF;stroke-width:2;stroke-linejoin:round;stroke-miterlimit:10;}
	.st4{fill:#0F4360;}
	.st5{fill:#FFFFFF;}
	.st6{clip-path:url(#SVGID_2_);fill:#FFFFFF;}
	.st7{fill:#E1F6FF;}
	.st8{fill-rule:evenodd;clip-rule:evenodd;fill:#9DCBE4;}
	.st9{fill:#F2F2F2;}
	.st10{fill:#F14336;}
	.st11{fill:#D32E2A;}
	.st12{fill-rule:evenodd;clip-rule:evenodd;fill:#FD3832;}
	.st13{fill:#0B86CA;}
	.st14{fill:#23B6EA;}
	.st15{fill-rule:evenodd;clip-rule:evenodd;fill:#181616;}
</style>
<g>
	<circle class="st0" cx="122" cy="122" r="120"/>
	<g>
		<path class="st1" d="M122,4c31.5,0,61.2,12.3,83.4,34.6C227.7,60.8,240,90.5,240,122c0,31.5-12.3,61.2-34.6,83.4
			C183.2,227.7,153.5,240,122,240s-61.2-12.3-83.4-34.6C16.3,183.2,4,153.5,4,122c0-31.5,12.3-61.2,34.6-83.4
			C60.8,16.3,90.5,4,122,4 M122,0C54.6,0,0,54.6,0,122s54.6,122,122,122c67.4,0,122-54.6,122-122S189.4,0,122,0L122,0z"/>
	</g>
</g>
<g>
	<path d="M171.9,169l-16-38.5c-0.4-1-1.5-1.4-2.5-1c-1,0.4-1.4,1.5-1,2.5l14.4,34.8l-13.2-3.8c-0.9-0.3-1.8,0.1-2.2,0.9l-6.6,12
		l-15.5-37.4c17.9-3.4,31.4-19.2,31.4-38.1c0-21.4-17.4-38.8-38.8-38.8s-38.8,17.4-38.8,38.8c0,8.7,2.9,16.7,7.7,23.1L72.1,169
		c-0.3,0.7-0.1,1.5,0.3,2c0.5,0.6,1.3,0.8,2,0.6l15.5-4.5l7.8,14.2c0.3,0.6,1,1,1.7,1c0,0,0.1,0,0.1,0c0.7,0,1.4-0.5,1.7-1.2
		l14.9-36c0.4-1-0.1-2.1-1-2.5c-1-0.4-2.1,0.1-2.5,1l-13.4,32.3l-6.6-12c-0.4-0.8-1.4-1.2-2.2-0.9l-13.2,3.8l16.5-39.9
		c7.1,7.6,17.2,12.3,28.3,12.3c1.2,0,2.3-0.1,3.4-0.2l17.4,42c0.3,0.7,0.9,1.1,1.7,1.2c0,0,0.1,0,0.1,0c0.7,0,1.3-0.4,1.7-1
		l7.8-14.2l15.5,4.5c0.7,0.2,1.5,0,2-0.6C172.1,170.5,172.2,169.7,171.9,169L171.9,169z M87.1,100.5c0-19.3,15.7-34.9,34.9-34.9
		s34.9,15.7,34.9,34.9c0,19.3-15.7,34.9-34.9,34.9S87.1,119.7,87.1,100.5L87.1,100.5z M87.1,100.5"/>
	<path d="M144.2,93.3c-0.2-0.7-0.8-1.2-1.5-1.3l-12.9-2.2l-6.1-11.6c-0.3-0.6-1-1-1.7-1c-0.7,0-1.4,0.4-1.7,1l-6.1,11.6L101.3,92
		c-0.7,0.1-1.3,0.6-1.5,1.3c-0.2,0.7,0,1.4,0.5,1.9l9.2,9.4l-1.9,13c-0.1,0.7,0.2,1.4,0.8,1.8c0.6,0.4,1.3,0.5,2,0.2l11.8-5.9
		l11.8,5.9c0.3,0.1,0.6,0.2,0.9,0.2c0.4,0,0.8-0.1,1.1-0.4c0.6-0.4,0.9-1.1,0.8-1.8l-1.9-13l9.2-9.4
		C144.3,94.7,144.5,93.9,144.2,93.3L144.2,93.3z M131.2,102.6c-0.4,0.4-0.6,1-0.5,1.6l1.5,10.3l-9.3-4.6c-0.3-0.1-0.6-0.2-0.9-0.2
		c-0.3,0-0.6,0.1-0.9,0.2l-9.3,4.6l1.5-10.3c0.1-0.6-0.1-1.2-0.5-1.6l-7.3-7.4l10.3-1.7c0.6-0.1,1.1-0.5,1.4-1l4.8-9.2l4.8,9.2
		c0.3,0.5,0.8,0.9,1.4,1l10.3,1.7L131.2,102.6z M131.2,102.6"/>
	<path d="M151.1,102.4c-1.1-0.1-2,0.6-2.2,1.7c-1.8,13.5-13.4,23.6-27,23.6c-15,0-27.2-12.2-27.2-27.2c0-15,12.2-27.2,27.2-27.2
		c13.6,0,25.2,10.2,27,23.6c0.1,1.1,1.1,1.8,2.2,1.7c1.1-0.1,1.8-1.1,1.7-2.2c-2-15.4-15.3-27-30.8-27c-17.1,0-31.1,13.9-31.1,31.1
		c0,17.1,13.9,31.1,31.1,31.1c15.5,0,28.8-11.6,30.8-27C152.9,103.5,152.2,102.6,151.1,102.4L151.1,102.4z M151.1,102.4"/>
</g>
</svg>
