<?xml version="1.0" encoding="utf-8"?>
<!-- Generator: Adobe Illustrator 22.0.1, SVG Export Plug-In . SVG Version: 6.00 Build 0)  -->
<svg version="1.1" id="Layer_1" xmlns="http://www.w3.org/2000/svg" xmlns:xlink="http://www.w3.org/1999/xlink" x="0px" y="0px"
	 viewBox="0 0 244 244" style="enable-background:new 0 0 244 244;" xml:space="preserve">
<style type="text/css">
	.st0{fill:#F3F3F3;}
	.st1{fill:#1D1D1D;}
	.st2{fill:#9DCBE4;}
	.st3{fill:none;stroke:#FFFFFF;stroke-width:2;stroke-linejoin:round;stroke-miterlimit:10;}
	.st4{fill:#0F4360;}
	.st5{fill:#FFFFFF;}
	.st6{clip-path:url(#SVGID_2_);fill:#FFFFFF;}
	.st7{fill:#E1F6FF;}
	.st8{fill-rule:evenodd;clip-rule:evenodd;fill:#9DCBE4;}
	.st9{fill:#F2F2F2;}
	.st10{fill:#F14336;}
	.st11{fill:#D32E2A;}
	.st12{fill-rule:evenodd;clip-rule:evenodd;fill:#FD3832;}
	.st13{fill:#0B86CA;}
	.st14{fill:#23B6EA;}
	.st15{fill-rule:evenodd;clip-rule:evenodd;fill:#181616;}
</style>
<g>
	<circle class="st0" cx="122" cy="122" r="120"/>
	<g>
		<path class="st1" d="M122,4c31.5,0,61.2,12.3,83.4,34.6C227.7,60.8,240,90.5,240,122c0,31.5-12.3,61.2-34.6,83.4
			C183.2,227.7,153.5,240,122,240s-61.2-12.3-83.4-34.6C16.3,183.2,4,153.5,4,122c0-31.5,12.3-61.2,34.6-83.4
			C60.8,16.3,90.5,4,122,4 M122,0C54.6,0,0,54.6,0,122s54.6,122,122,122c67.4,0,122-54.6,122-122S189.4,0,122,0L122,0z"/>
	</g>
</g>
<g>
	<path class="st1" d="M181,67.2H63.6c-1.1,0-1.9,0.9-1.9,1.9v105.8c0,1.1,0.9,1.9,1.9,1.9H181c1.1,0,1.9-0.9,1.9-1.9v-20.6
		c0-1.1-0.9-1.9-1.9-1.9s-1.9,0.9-1.9,1.9V173H65.5V86.5h113.6v60c0,1.1,0.9,1.9,1.9,1.9s1.9-0.9,1.9-1.9V69.1
		C183,68,182.1,67.2,181,67.2L181,67.2z M65.5,71h71.6v11.6H65.5V71z M141,82.6V71h38.1v11.6H141z M141,82.6"/>
	<path class="st1" d="M160.1,74.8c-1.1,0-2.1,0.9-2.1,2.1s0.9,2.1,2.1,2.1c1.1,0,2.1-0.9,2.1-2.1S161.3,74.8,160.1,74.8L160.1,74.8z
		 M160.1,74.8"/>
	<path class="st1" d="M149.5,74.8c-1.1,0-2.1,0.9-2.1,2.1s0.9,2.1,2.1,2.1c1.1,0,2.1-0.9,2.1-2.1S150.7,74.8,149.5,74.8L149.5,74.8z
		 M149.5,74.8"/>
	<path class="st1" d="M170.7,74.8c-1.1,0-2.1,0.9-2.1,2.1s0.9,2.1,2.1,2.1c1.1,0,2.1-0.9,2.1-2.1S171.8,74.8,170.7,74.8L170.7,74.8z
		 M170.7,74.8"/>
	<path class="st1" d="M100.7,99.5l15.6,15.6c0.8,0.8,2,0.8,2.7,0c0.8-0.8,0.8-2,0-2.7l-17-17c-0.8-0.8-2-0.8-2.7,0l-11.4,11.3
		c-0.4,0.4-0.6,0.9-0.6,1.4s0.2,1,0.6,1.4l7.5,7.5l9.5,9.5c0.4,0.4,0.9,0.6,1.4,0.6s1-0.2,1.4-0.6c0.8-0.8,0.8-2,0-2.7l-0.6-0.6
		l4.4-4.4c0.8-0.8,0.8-2,0-2.7c-0.8-0.8-2-0.8-2.7,0l-4.4,4.4l-4.8-4.8l4.4-4.4c0.8-0.8,0.8-2,0-2.7c-0.8-0.8-2-0.8-2.7,0l-4.4,4.4
		l-4.7-4.7L100.7,99.5z M100.7,99.5"/>
	<path class="st1" d="M127.6,149.1l15,15c0.4,0.4,0.9,0.6,1.4,0.6c0.5,0,1-0.2,1.4-0.6l11.4-11.4c0.8-0.8,0.8-2,0-2.7l-17-17
		c-0.8-0.8-2-0.8-2.7,0c-0.8,0.8-0.8,2,0,2.7l15.6,15.6l-8.7,8.6l-4.7-4.7l4.4-4.4c0.8-0.8,0.8-2,0-2.7c-0.8-0.8-2-0.8-2.7,0
		l-4.4,4.4l-4.7-4.7l4.4-4.4c0.8-0.8,0.8-2,0-2.7c-0.8-0.8-2-0.8-2.7,0L129,145l-0.6-0.6c-0.8-0.8-2-0.8-2.7,0c-0.8,0.8-0.8,2,0,2.7
		L127.6,149.1z M127.6,149.1"/>
	<path class="st1" d="M89.4,164.5c0.3,0,0.5-0.1,0.8-0.2l16.9-7.2c0,0,0,0,0,0c0,0,0,0,0,0c0,0,0.1,0,0.1-0.1c0,0,0,0,0.1,0
		c0,0,0.1,0,0.1-0.1c0,0,0.1,0,0.1-0.1c0,0,0,0,0.1-0.1c0,0,0.1-0.1,0.1-0.1l46.8-46.8c1.7-1.7,2.6-3.9,2.6-6.2s-0.9-4.6-2.6-6.2
		c-1.7-1.7-3.9-2.6-6.2-2.6c-2.4,0-4.6,0.9-6.2,2.6l-4.9,4.9l-41.8,41.8c0,0-0.1,0.1-0.1,0.1c0,0,0,0-0.1,0.1c0,0,0,0.1-0.1,0.1
		c0,0,0,0.1-0.1,0.1c0,0,0,0,0,0.1c0,0,0,0.1-0.1,0.1c0,0,0,0,0,0l0,0c0,0-7.2,16.9-7.2,16.9c-0.3,0.7-0.1,1.6,0.4,2.1
		C88.4,164.4,88.9,164.5,89.4,164.5L89.4,164.5z M138.5,106.5l7,7l-39.1,39.1l-7-7L138.5,106.5z M144.8,100.3
		c0.9-0.9,2.2-1.4,3.5-1.4c1.3,0,2.6,0.5,3.5,1.4c0.9,0.9,1.4,2.2,1.4,3.5c0,1.3-0.5,2.6-1.4,3.5l-3.6,3.6l-7-7L144.8,100.3z
		 M97.3,149l5.7,5.7l-9.9,4.2L97.3,149z M97.3,149"/>
</g>
</svg>
