<?xml version="1.0" encoding="utf-8"?>
<!-- Generator: Adobe Illustrator 22.0.1, SVG Export Plug-In . SVG Version: 6.00 Build 0)  -->
<svg version="1.1" id="Layer_1" xmlns="http://www.w3.org/2000/svg" xmlns:xlink="http://www.w3.org/1999/xlink" x="0px" y="0px"
	 viewBox="0 0 244 244" style="enable-background:new 0 0 244 244;" xml:space="preserve">
<style type="text/css">
	.st0{fill:#F3F3F3;}
	.st1{fill:#1D1D1D;}
	.st2{fill:#9DCBE4;}
	.st3{fill:none;stroke:#FFFFFF;stroke-width:2;stroke-linejoin:round;stroke-miterlimit:10;}
	.st4{fill:#0F4360;}
	.st5{fill:#FFFFFF;}
	.st6{clip-path:url(#SVGID_2_);fill:#FFFFFF;}
	.st7{fill:#E1F6FF;}
	.st8{fill-rule:evenodd;clip-rule:evenodd;fill:#9DCBE4;}
	.st9{fill:#F2F2F2;}
	.st10{fill:#F14336;}
	.st11{fill:#D32E2A;}
	.st12{fill-rule:evenodd;clip-rule:evenodd;fill:#FD3832;}
	.st13{fill:#0B86CA;}
	.st14{fill:#23B6EA;}
	.st15{fill-rule:evenodd;clip-rule:evenodd;fill:#181616;}
</style>
<g>
	<circle class="st0" cx="122" cy="122" r="120"/>
	<path class="st1" d="M122,4c31.5,0,61.2,12.3,83.4,34.6C227.7,60.8,240,90.5,240,122c0,31.5-12.3,61.2-34.6,83.4
		C183.2,227.7,153.5,240,122,240s-61.2-12.3-83.4-34.6C16.3,183.2,4,153.5,4,122c0-31.5,12.3-61.2,34.6-83.4C60.8,16.3,90.5,4,122,4
		 M122,0C54.6,0,0,54.6,0,122s54.6,122,122,122s122-54.6,122-122S189.4,0,122,0L122,0z"/>
</g>
<g>
	<path class="st1" d="M104.5,115.3c-0.5-0.9-1.7-1.2-2.7-0.7l-22.6,13.4c-0.6,0.3-0.9,1-0.9,1.7c0,0.7,0.4,1.3,0.9,1.7l22.6,13.4
		c0.3,0.2,0.7,0.3,1,0.3c0.7,0,1.3-0.3,1.7-0.9c0.5-0.9,0.2-2.1-0.7-2.7l-19.8-11.8l19.8-11.8C104.8,117.4,105.1,116.2,104.5,115.3
		L104.5,115.3z M104.5,115.3"/>
	<path class="st1" d="M139.5,144.2c0.4,0.6,1,0.9,1.7,0.9c0.3,0,0.7-0.1,1-0.3l22.6-13.4c0.6-0.4,0.9-1,0.9-1.7
		c0-0.7-0.4-1.3-0.9-1.7l-22.6-13.4c-0.9-0.5-2.1-0.2-2.7,0.7c-0.5,0.9-0.2,2.1,0.7,2.7l19.8,11.8l-19.8,11.8
		C139.2,142.1,138.9,143.2,139.5,144.2L139.5,144.2z M139.5,144.2"/>
	<path class="st1" d="M129.4,115.2l-18,26.9c-0.6,0.9-0.4,2.1,0.5,2.7c0.3,0.2,0.7,0.3,1.1,0.3c0.6,0,1.2-0.3,1.6-0.9l18-26.9
		c0.6-0.9,0.4-2.1-0.5-2.7C131.2,114.1,130,114.3,129.4,115.2L129.4,115.2z M129.4,115.2"/>
	<path class="st1" d="M180.7,67.2H63.3c-1.1,0-1.9,0.9-1.9,1.9v105.8c0,1.1,0.9,1.9,1.9,1.9h117.4c1.1,0,1.9-0.9,1.9-1.9v-20.6
		c0-1.1-0.9-1.9-1.9-1.9s-1.9,0.9-1.9,1.9V173H65.2V86.5h113.6v60c0,1.1,0.9,1.9,1.9,1.9s1.9-0.9,1.9-1.9V69.1
		C182.7,68,181.8,67.2,180.7,67.2L180.7,67.2z M65.2,71h71.6v11.6H65.2V71z M140.7,82.6V71h38.1v11.6H140.7z M140.7,82.6"/>
	<path class="st1" d="M159.8,74.8c-1.1,0-2.1,0.9-2.1,2.1s0.9,2.1,2.1,2.1c1.1,0,2.1-0.9,2.1-2.1S161,74.8,159.8,74.8L159.8,74.8z
		 M159.8,74.8"/>
	<path class="st1" d="M149.2,74.8c-1.1,0-2.1,0.9-2.1,2.1s0.9,2.1,2.1,2.1c1.1,0,2.1-0.9,2.1-2.1S150.4,74.8,149.2,74.8L149.2,74.8z
		 M149.2,74.8"/>
	<path class="st1" d="M170.4,74.8c-1.1,0-2.1,0.9-2.1,2.1s0.9,2.1,2.1,2.1c1.1,0,2.1-0.9,2.1-2.1S171.5,74.8,170.4,74.8L170.4,74.8z
		 M170.4,74.8"/>
</g>
</svg>
