<?xml version="1.0" encoding="utf-8"?>
<!-- Generator: Adobe Illustrator 22.0.1, SVG Export Plug-In . SVG Version: 6.00 Build 0)  -->
<svg version="1.1" id="Layer_1" xmlns="http://www.w3.org/2000/svg" xmlns:xlink="http://www.w3.org/1999/xlink" x="0px" y="0px"
	 viewBox="0 0 244 244" style="enable-background:new 0 0 244 244;" xml:space="preserve">
<style type="text/css">
	.st0{fill:#F3F3F3;}
	.st1{fill:#1D1D1D;}
	.st2{fill:#9DCBE4;}
	.st3{fill:none;stroke:#FFFFFF;stroke-width:2;stroke-linejoin:round;stroke-miterlimit:10;}
	.st4{fill:#0F4360;}
	.st5{fill:#FFFFFF;}
	.st6{clip-path:url(#SVGID_2_);fill:#FFFFFF;}
	.st7{fill:#E1F6FF;}
	.st8{fill-rule:evenodd;clip-rule:evenodd;fill:#9DCBE4;}
	.st9{fill:#F2F2F2;}
	.st10{fill:#F14336;}
	.st11{fill:#D32E2A;}
	.st12{fill-rule:evenodd;clip-rule:evenodd;fill:#FD3832;}
	.st13{fill:#0B86CA;}
	.st14{fill:#23B6EA;}
	.st15{fill-rule:evenodd;clip-rule:evenodd;fill:#181616;}
</style>
<g>
	<circle class="st0" cx="122" cy="122" r="120"/>
	<g>
		<path class="st1" d="M122,4c31.5,0,61.2,12.3,83.4,34.6C227.7,60.8,240,90.5,240,122c0,31.5-12.3,61.2-34.6,83.4
			C183.2,227.7,153.5,240,122,240s-61.2-12.3-83.4-34.6C16.3,183.2,4,153.5,4,122c0-31.5,12.3-61.2,34.6-83.4
			C60.8,16.3,90.5,4,122,4 M122,0C54.6,0,0,54.6,0,122s54.6,122,122,122c67.4,0,122-54.6,122-122S189.4,0,122,0L122,0z"/>
	</g>
</g>
<g>
	<path class="st1" d="M173,91c1.1,0,1.9-0.9,1.9-1.9v-8.4h5.8c1.1,0,1.9-0.9,1.9-1.9V63.3c0-1.1-0.9-1.9-1.9-1.9h-15.5
		c-1.1,0-1.9,0.9-1.9,1.9v5.8H80.7v-5.8c0-1.1-0.9-1.9-1.9-1.9H63.3c-1.1,0-1.9,0.9-1.9,1.9v15.5c0,1.1,0.9,1.9,1.9,1.9h5.8v82.6
		h-5.8c-1.1,0-1.9,0.9-1.9,1.9v15.5c0,1.1,0.9,1.9,1.9,1.9h15.5c1.1,0,1.9-0.9,1.9-1.9v-5.8h82.6v5.8c0,1.1,0.9,1.9,1.9,1.9h15.5
		c1.1,0,1.9-0.9,1.9-1.9v-15.5c0-1.1-0.9-1.9-1.9-1.9h-5.8V96.8c0-1.1-0.9-1.9-1.9-1.9s-1.9,0.9-1.9,1.9v66.5h-5.8
		c-1.1,0-1.9,0.9-1.9,1.9v5.8H80.7v-5.8c0-1.1-0.9-1.9-1.9-1.9H73V80.7h5.8c1.1,0,1.9-0.9,1.9-1.9V73h82.6v5.8
		c0,1.1,0.9,1.9,1.9,1.9h5.8v8.4C171,90.2,171.9,91,173,91L173,91z M167.2,167.2h11.6v11.6h-11.6V167.2z M76.8,178.8H65.2v-11.6
		h11.6V178.8z M76.8,76.8H65.2V65.2h11.6V76.8z M167.2,65.2h11.6v11.6h-11.6V65.2z M167.2,65.2"/>
	<path class="st1" d="M156.8,89.1c0-1.1-0.9-1.9-1.9-1.9H89.1c-1.1,0-1.9,0.9-1.9,1.9V122c0,1.1,0.9,1.9,1.9,1.9h65.8
		c1.1,0,1.9-0.9,1.9-1.9V89.1z M91,92.2l26.6,13.3L91,118.9V92.2z M97.3,91h49.4L122,103.4L97.3,91z M122,107.7l24.7,12.4H97.3
		L122,107.7z M126.3,105.5L153,92.2v26.6L126.3,105.5z M126.3,105.5"/>
	<path class="st1" d="M118.1,153h-29c-1.1,0-1.9,0.9-1.9,1.9c0,1.1,0.9,1.9,1.9,1.9h29c1.1,0,1.9-0.9,1.9-1.9
		C120.1,153.8,119.2,153,118.1,153L118.1,153z M118.1,153"/>
	<path class="st1" d="M154.9,153h-29c-1.1,0-1.9,0.9-1.9,1.9c0,1.1,0.9,1.9,1.9,1.9h29c1.1,0,1.9-0.9,1.9-1.9
		C156.8,153.8,156,153,154.9,153L154.9,153z M154.9,153"/>
	<path class="st1" d="M118.1,144.7h-29c-1.1,0-1.9,0.9-1.9,1.9c0,1.1,0.9,1.9,1.9,1.9h29c1.1,0,1.9-0.9,1.9-1.9
		C120.1,145.6,119.2,144.7,118.1,144.7L118.1,144.7z M118.1,144.7"/>
	<path class="st1" d="M154.9,144.7h-29c-1.1,0-1.9,0.9-1.9,1.9c0,1.1,0.9,1.9,1.9,1.9h29c1.1,0,1.9-0.9,1.9-1.9
		C156.8,145.6,156,144.7,154.9,144.7L154.9,144.7z M154.9,144.7"/>
	<path class="st1" d="M118.1,136.5h-29c-1.1,0-1.9,0.9-1.9,1.9c0,1.1,0.9,1.9,1.9,1.9h29c1.1,0,1.9-0.9,1.9-1.9
		C120.1,137.4,119.2,136.5,118.1,136.5L118.1,136.5z M118.1,136.5"/>
	<path class="st1" d="M154.9,136.5h-29c-1.1,0-1.9,0.9-1.9,1.9c0,1.1,0.9,1.9,1.9,1.9h29c1.1,0,1.9-0.9,1.9-1.9
		C156.8,137.4,156,136.5,154.9,136.5L154.9,136.5z M154.9,136.5"/>
	<path class="st1" d="M154.9,128.3H89.1c-1.1,0-1.9,0.9-1.9,1.9c0,1.1,0.9,1.9,1.9,1.9h65.8c1.1,0,1.9-0.9,1.9-1.9
		C156.8,129.2,156,128.3,154.9,128.3L154.9,128.3z M154.9,128.3"/>
</g>
</svg>
