<?xml version="1.0" encoding="utf-8"?>
<!-- Generator: Adobe Illustrator 22.0.1, SVG Export Plug-In . SVG Version: 6.00 Build 0)  -->
<svg version="1.1" id="Layer_1" xmlns="http://www.w3.org/2000/svg" xmlns:xlink="http://www.w3.org/1999/xlink" x="0px" y="0px"
	 viewBox="0 0 1344.4 130.3" style="enable-background:new 0 0 1344.4 130.3;" xml:space="preserve">
<style type="text/css">
	.st0{fill:#1D1D1F;}
	.st1{fill:#F3F3F3;}
	.st2{fill:#9DCBE4;}
	.st3{fill:#FFFFFF;}
</style>
<g>
	<g>
		<path class="st0" d="M65.5,109.6c7.3,0,13.6-1.2,18.9-3.7c5.3-2.5,10.8-6.4,16.6-11.8l13.7,14c-13.3,14.8-29.5,22.1-48.5,22.1
			s-34.8-6.1-47.3-18.4C6.3,99.7,0,84.2,0,65.5s6.4-34.3,19.2-46.8C32,6.2,48.1,0,67.6,0c19.5,0,35.8,7.2,48.9,21.6L103,36.4
			c-6-5.8-11.7-9.8-17-12.1c-5.3-2.3-11.6-3.4-18.8-3.4c-12.7,0-23.4,4.1-32,12.3c-8.6,8.2-13,18.7-13,31.5c0,12.8,4.3,23.5,12.9,32
			C43.6,105.3,53.8,109.6,65.5,109.6z"/>
	</g>
	<g>
		<path class="st0" d="M1323.2,67.7h21.2v43c-11.9,13.1-28.9,19.6-50.9,19.6c-18.6,0-34.2-6.1-46.7-18.4
			c-12.5-12.2-18.8-27.7-18.8-46.4s6.4-34.3,19.2-46.8C1259.9,6.2,1275.4,0,1293.5,0c18.1,0,33.2,5.3,45.2,15.8L1327.3,32
			c-4.9-4.2-9.9-7.1-14.8-8.7c-5-1.6-10.8-2.4-17.4-2.4c-12.7,0-23.4,4.1-32,12.3c-8.6,8.2-13,19-13,32.4c0,13.4,4.2,24.1,12.6,32.2
			c8.4,8.1,18.6,12.2,30.5,12.2c11.9,0,21.9-2.6,30-7.7V67.7z"/>
	</g>
	<g>
		<g>
			<path class="st0" d="M398.3,83.2c18.1-5.4,27.2-18.5,27.2-39.2c0-14.3-4.1-24.7-12.4-31.1c-8.3-6.5-22-9.7-41.2-9.7h-9.3v19.3
				h10.8c11.4,0,19.3,1.5,23.8,4.6c4.4,3.1,6.7,8.7,6.7,16.9c0,8.2-2.2,14.2-6.5,17.9c-4.3,3.7-12.5,5.6-24.5,5.6h-10.2v19.3h11.7
				l30.1,42.3h27L398.3,83.2z"/>
		</g>
		<g>
			<polygon class="st0" points="346.6,3.1 325.1,3.1 325.1,128.9 346.3,128.9 			"/>
		</g>
	</g>
	<g>
		<g>
			<path class="st0" d="M182.4,32.8c8.6-8.9,19.1-13.3,31.6-13.3c12.5,0,23,4.4,31.6,13.3c6.8,7.1,11,15.4,12.3,24.9h21.9
				c-1.5-15.3-7.7-28.3-18.7-39C248.5,6.2,232.7,0,214,0c-18.7,0-34.4,6.2-47.2,18.6c-11,10.7-17.2,23.7-18.7,39h21.9
				C171.5,48.1,175.6,39.9,182.4,32.8z"/>
		</g>
		<g>
			<path class="st0" d="M245.6,97.4c-8.6,8.9-19.1,13.3-31.6,13.3c-12.5,0-23-4.4-31.6-13.3c-6.6-6.8-10.6-14.7-12.2-23.7h-22
				c1.7,14.8,7.9,27.4,18.6,37.9c12.7,12.4,28.4,18.6,47.2,18.6c18.7,0,34.4-6.2,47.2-18.6c10.7-10.5,16.9-23.1,18.6-37.9h-22
				C256.2,82.7,252.2,90.6,245.6,97.4z"/>
		</g>
	</g>
	<g>
		<g>
			<path class="st0" d="M924.9,32.8c8.6-8.9,19.1-13.3,31.6-13.3c12.5,0,23,4.4,31.6,13.3c6.8,7.1,11,15.4,12.3,24.9h21.9
				c-1.5-15.3-7.7-28.3-18.7-39C991,6.2,975.2,0,956.5,0c-18.7,0-34.4,6.2-47.2,18.6c-11,10.7-17.2,23.7-18.7,39h21.9
				C914,48.1,918.1,39.9,924.9,32.8z"/>
		</g>
		<g>
			<path class="st0" d="M988.1,97.4c-8.6,8.9-19.1,13.3-31.6,13.3c-12.5,0-23-4.4-31.6-13.3c-6.6-6.8-10.6-14.7-12.2-23.7h-22
				c1.7,14.8,7.9,27.4,18.6,37.9c12.7,12.4,28.4,18.6,47.2,18.6c18.7,0,34.4-6.2,47.2-18.6c10.7-10.5,16.9-23.1,18.6-37.9h-22
				C998.7,82.7,994.7,90.6,988.1,97.4z"/>
		</g>
	</g>
	<g>
		<g>
			<polygon class="st0" points="543.3,22.5 532,48.2 546.3,80.6 517.7,80.6 509,100.3 554.9,100.3 567.5,128.9 590.2,128.9 			"/>
		</g>
		<g>
			<polygon class="st0" points="512.1,3.1 456.7,128.9 479.2,128.9 534.7,3.1 			"/>
		</g>
	</g>
	<g>
		<g>
			<polygon class="st0" points="779.4,3.1 760.3,3.1 732.2,93.6 700.6,3.1 677.7,3.1 721.6,128.9 742.7,128.9 			"/>
		</g>
		<g>
			<polygon class="st0" points="839.2,3.1 807.5,93.6 788.3,31.9 778.3,67.9 797,128.9 818.1,128.9 862,3.1 			"/>
		</g>
	</g>
	<g>
		<g>
			<polygon class="st0" points="1088.8,3.1 1067.6,3.1 1067.6,128.9 1088.8,128.9 1088.8,37.1 1160.1,128.9 1183,128.9 			"/>
		</g>
		<g>
			<polygon class="st0" points="1183.1,3.1 1161.9,3.1 1161.9,69.7 1183.1,100.7 			"/>
		</g>
	</g>
</g>
</svg>
