<svg width="1345" height="131" viewBox="0 0 1345 131" fill="none" xmlns="http://www.w3.org/2000/svg">
<g clip-path="url(#clip0_67_3)">
<path d="M65.5 109.6C72.8 109.6 79.1 108.4 84.4 105.9C89.7 103.4 95.2 99.5 101 94.1L114.7 108.1C101.4 122.9 85.2 130.2 66.2 130.2C47.2 130.2 31.4 124.1 18.9 111.8C6.3 99.7 0 84.2 0 65.5C0 46.8 6.4 31.2 19.2 18.7C32 6.2 48.1 0 67.6 0C87.1 0 103.4 7.2 116.5 21.6L103 36.4C97 30.6 91.3 26.6 86 24.3C80.7 22 74.4 20.9 67.2 20.9C54.5 20.9 43.8 25 35.2 33.2C26.6 41.4 22.2 51.9 22.2 64.7C22.2 77.5 26.5 88.2 35.1 96.7C43.6 105.3 53.8 109.6 65.5 109.6Z" fill="#5F5138"/>
<path d="M1323.2 67.7H1344.4V110.7C1332.5 123.8 1315.5 130.3 1293.5 130.3C1274.9 130.3 1259.3 124.2 1246.8 111.9C1234.3 99.7 1228 84.2 1228 65.5C1228 46.8 1234.4 31.2 1247.2 18.7C1259.9 6.2 1275.4 0 1293.5 0C1311.6 0 1326.7 5.3 1338.7 15.8L1327.3 32C1322.4 27.8 1317.4 24.9 1312.5 23.3C1307.5 21.7 1301.7 20.9 1295.1 20.9C1282.4 20.9 1271.7 25 1263.1 33.2C1254.5 41.4 1250.1 52.2 1250.1 65.6C1250.1 79 1254.3 89.7 1262.7 97.8C1271.1 105.9 1281.3 110 1293.2 110C1305.1 110 1315.1 107.4 1323.2 102.3V67.7Z" fill="#5F5138"/>
<path d="M398.3 83.2C416.4 77.8 425.5 64.7 425.5 44C425.5 29.7 421.4 19.3 413.1 12.9C404.8 6.40001 391.1 3.20001 371.9 3.20001H362.6V22.5H373.4C384.8 22.5 392.7 24 397.2 27.1C401.6 30.2 403.9 35.8 403.9 44C403.9 52.2 401.7 58.2 397.4 61.9C393.1 65.6 384.9 67.5 372.9 67.5H362.7V86.8H374.4L404.5 129.1H431.5L398.3 83.2Z" fill="#5F5138"/>
<path d="M346.6 3.10001H325.1V128.9H346.3L346.6 3.10001Z" fill="#5F5138"/>
<path d="M182.4 32.8C191 23.9 201.5 19.5 214 19.5C226.5 19.5 237 23.9 245.6 32.8C252.4 39.9 256.6 48.2 257.9 57.7H279.8C278.3 42.4 272.1 29.4 261.1 18.7C248.5 6.2 232.7 0 214 0C195.3 0 179.6 6.2 166.8 18.6C155.8 29.3 149.6 42.3 148.1 57.6H170C171.5 48.1 175.6 39.9 182.4 32.8Z" fill="#5F5138"/>
<path d="M245.6 97.4C237 106.3 226.5 110.7 214 110.7C201.5 110.7 191 106.3 182.4 97.4C175.8 90.6 171.8 82.7 170.2 73.7H148.2C149.9 88.5 156.1 101.1 166.8 111.6C179.5 124 195.2 130.2 214 130.2C232.7 130.2 248.4 124 261.2 111.6C271.9 101.1 278.1 88.5 279.8 73.7H257.8C256.2 82.7 252.2 90.6 245.6 97.4Z" fill="#5F5138"/>
<path d="M924.9 32.8C933.5 23.9 944 19.5 956.5 19.5C969 19.5 979.5 23.9 988.1 32.8C994.9 39.9 999.1 48.2 1000.4 57.7H1022.3C1020.8 42.4 1014.6 29.4 1003.6 18.7C991 6.2 975.2 0 956.5 0C937.8 0 922.1 6.2 909.3 18.6C898.3 29.3 892.1 42.3 890.6 57.6H912.5C914 48.1 918.1 39.9 924.9 32.8Z" fill="#5F5138"/>
<path d="M988.1 97.4C979.5 106.3 969 110.7 956.5 110.7C944 110.7 933.5 106.3 924.9 97.4C918.3 90.6 914.3 82.7 912.7 73.7H890.7C892.4 88.5 898.6 101.1 909.3 111.6C922 124 937.7 130.2 956.5 130.2C975.2 130.2 990.9 124 1003.7 111.6C1014.4 101.1 1020.6 88.5 1022.3 73.7H1000.3C998.7 82.7 994.7 90.6 988.1 97.4Z" fill="#5F5138"/>
<path d="M543.3 22.5L532 48.2L546.3 80.6H517.7L509 100.3H554.9L567.5 128.9H590.2L543.3 22.5Z" fill="#5F5138"/>
<path d="M512.1 3.10001L456.7 128.9H479.2L534.7 3.10001H512.1Z" fill="#5F5138"/>
<path d="M779.4 3.10001H760.3L732.2 93.6L700.6 3.10001H677.7L721.6 128.9H742.7L779.4 3.10001Z" fill="#5F5138"/>
<path d="M839.2 3.10001L807.5 93.6L788.3 31.9L778.3 67.9L797 128.9H818.1L862 3.10001H839.2Z" fill="#5F5138"/>
<path d="M1088.8 3.10001H1067.6V128.9H1088.8V37.1L1160.1 128.9H1183L1088.8 3.10001Z" fill="#5F5138"/>
<path d="M1183.1 3.10001H1161.9V69.7L1183.1 100.7V3.10001Z" fill="#5F5138"/>
</g>
<defs>
<clipPath id="clip0_67_3">
<rect width="1344.4" height="130.3" fill="white"/>
</clipPath>
</defs>
</svg>
