<?xml version="1.0" encoding="utf-8"?>
<!-- Generator: Adobe Illustrator 22.0.1, SVG Export Plug-In . SVG Version: 6.00 Build 0)  -->
<svg version="1.1" id="Layer_1" xmlns="http://www.w3.org/2000/svg" xmlns:xlink="http://www.w3.org/1999/xlink" x="0px" y="0px"
	 viewBox="0 0 244 244" style="enable-background:new 0 0 244 244;" xml:space="preserve">
<style type="text/css">
	.st0{fill:#9DCBE4;}
	.st1{fill:none;stroke:#FFFFFF;stroke-width:2;stroke-linejoin:round;stroke-miterlimit:10;}
	.st2{fill:#0F4360;}
	.st3{fill:#FFFFFF;}
	.st4{clip-path:url(#SVGID_2_);fill:#FFFFFF;}
	.st5{fill:#E1F6FF;}
	.st6{fill-rule:evenodd;clip-rule:evenodd;fill:#FD3832;}
	.st7{fill:#0B86CA;}
	.st8{fill:#23B6EA;}
	.st9{fill:#F2F2F2;}
	.st10{fill:#F14336;}
	.st11{fill:#D32E2A;}
	.st12{fill:#1D1D1D;}
</style>
<g>
	<path class="st12" d="M88.4,109.2c-1.1-1.8-3.3-2.3-5.1-1.3l-43.4,25.8c-1.1,0.7-1.8,1.9-1.8,3.2s0.7,2.5,1.8,3.2l43.4,25.8
		c0.6,0.4,1.3,0.5,1.9,0.5c1.3,0,2.5-0.6,3.2-1.8c1.1-1.8,0.5-4.1-1.3-5.1l-38-22.6l38-22.6C88.9,113.2,89.5,110.9,88.4,109.2
		L88.4,109.2z M88.4,109.2"/>
	<path class="st12" d="M155.6,164.6c0.7,1.2,1.9,1.8,3.2,1.8c0.6,0,1.3-0.2,1.9-0.5l43.4-25.8c1.1-0.7,1.8-1.9,1.8-3.2
		s-0.7-2.5-1.8-3.2l-43.4-25.8c-1.8-1.1-4.1-0.5-5.1,1.3c-1.1,1.8-0.5,4.1,1.3,5.1l38,22.6l-38,22.6
		C155.1,160.6,154.5,162.9,155.6,164.6L155.6,164.6z M155.6,164.6"/>
	<path class="st12" d="M136.3,109l-34.7,51.7c-1.1,1.7-0.7,4,1,5.2c0.6,0.4,1.4,0.6,2.1,0.6c1.2,0,2.4-0.6,3.1-1.6l34.7-51.7
		c1.1-1.7,0.7-4-1-5.2C139.7,106.8,137.4,107.3,136.3,109L136.3,109z M136.3,109"/>
	<path class="st12" d="M234.9,16.5H9.1c-2.1,0-3.7,1.7-3.7,3.7v203.5c0,2.1,1.7,3.7,3.7,3.7h225.8c2.1,0,3.7-1.7,3.7-3.7V184
		c0-2.1-1.7-3.7-3.7-3.7s-3.7,1.7-3.7,3.7v36H12.8V53.7h218.4v115.4c0,2.1,1.7,3.7,3.7,3.7s3.7-1.7,3.7-3.7V20.2
		C238.6,18.2,237,16.5,234.9,16.5L234.9,16.5z M12.8,24h137.7v22.3H12.8V24z M158,46.3V24h73.2v22.3H158z M158,46.3"/>
	<path class="st12" d="M194.7,31.2c-2.2,0-4,1.8-4,4s1.8,4,4,4c2.2,0,4-1.8,4-4S196.9,31.2,194.7,31.2L194.7,31.2z M194.7,31.2"/>
	<path class="st12" d="M174.4,31.2c-2.2,0-4,1.8-4,4s1.8,4,4,4c2.2,0,4-1.8,4-4S176.6,31.2,174.4,31.2L174.4,31.2z M174.4,31.2"/>
	<path class="st12" d="M215.1,31.2c-2.2,0-4,1.8-4,4s1.8,4,4,4c2.2,0,4-1.8,4-4S217.3,31.2,215.1,31.2L215.1,31.2z M215.1,31.2"/>
</g>
</svg>
