<?xml version="1.0" encoding="utf-8"?>
<!-- Generator: Adobe Illustrator 22.0.1, SVG Export Plug-In . SVG Version: 6.00 Build 0)  -->
<svg version="1.1" id="Layer_1" xmlns="http://www.w3.org/2000/svg" xmlns:xlink="http://www.w3.org/1999/xlink" x="0px" y="0px"
	 viewBox="0 0 244 244" style="enable-background:new 0 0 244 244;" xml:space="preserve">
<style type="text/css">
	.st0{fill:#9DCBE4;}
	.st1{fill:none;stroke:#FFFFFF;stroke-width:2;stroke-linejoin:round;stroke-miterlimit:10;}
	.st2{fill:#0F4360;}
	.st3{fill:#FFFFFF;}
	.st4{clip-path:url(#SVGID_2_);fill:#FFFFFF;}
	.st5{fill:#E1F6FF;}
	.st6{fill-rule:evenodd;clip-rule:evenodd;fill:#FD3832;}
	.st7{fill:#0B86CA;}
	.st8{fill:#23B6EA;}
	.st9{fill:#F2F2F2;}
	.st10{fill:#F14336;}
	.st11{fill:#D32E2A;}
	.st12{fill:#1D1D1D;}
</style>
<g>
	<path class="st12" d="M235.2,16.5H9.4c-2.1,0-3.7,1.7-3.7,3.7v203.5c0,2.1,1.7,3.7,3.7,3.7h225.8c2.1,0,3.7-1.7,3.7-3.7V184
		c0-2.1-1.7-3.7-3.7-3.7s-3.7,1.7-3.7,3.7v36H13.1V53.7h218.4v115.4c0,2.1,1.7,3.7,3.7,3.7s3.7-1.7,3.7-3.7V20.2
		C238.9,18.2,237.3,16.5,235.2,16.5L235.2,16.5z M13.1,24h137.7v22.3H13.1V24z M158.3,46.3V24h73.2v22.3H158.3z M158.3,46.3"/>
	<path class="st12" d="M195,31.2c-2.2,0-4,1.8-4,4s1.8,4,4,4c2.2,0,4-1.8,4-4S197.2,31.2,195,31.2L195,31.2z M195,31.2"/>
	<path class="st12" d="M174.7,31.2c-2.2,0-4,1.8-4,4s1.8,4,4,4c2.2,0,4-1.8,4-4S176.9,31.2,174.7,31.2L174.7,31.2z M174.7,31.2"/>
	<path class="st12" d="M215.4,31.2c-2.2,0-4,1.8-4,4s1.8,4,4,4c2.2,0,4-1.8,4-4S217.6,31.2,215.4,31.2L215.4,31.2z M215.4,31.2"/>
	<path class="st12" d="M80.8,78.7l30,30c1.5,1.5,3.8,1.5,5.3,0c1.5-1.5,1.5-3.8,0-5.3L83.4,70.8c-1.4-1.5-3.8-1.5-5.3,0l-22,21.8
		c-0.7,0.7-1.1,1.6-1.1,2.6c0,1,0.4,1.9,1.1,2.6l14.4,14.4l18.3,18.3c0.7,0.7,1.7,1.1,2.6,1.1c1,0,1.9-0.4,2.6-1.1
		c1.5-1.5,1.5-3.8,0-5.3l-1.2-1.2l8.5-8.5c1.5-1.5,1.5-3.8,0-5.3c-1.5-1.5-3.8-1.5-5.3,0l-8.5,8.5l-9.1-9.1l8.5-8.5
		c1.5-1.5,1.5-3.8,0-5.3c-1.5-1.5-3.8-1.5-5.3,0l-8.5,8.5l-9.1-9.1L80.8,78.7z M80.8,78.7"/>
	<path class="st12" d="M132.5,174.2l28.8,28.8c0.7,0.7,1.6,1.1,2.6,1.1c1,0,1.9-0.4,2.6-1.1l21.9-21.9c1.5-1.5,1.5-3.8,0-5.3
		l-32.6-32.6c-1.5-1.5-3.8-1.5-5.3,0c-1.5,1.5-1.5,3.8,0,5.3l30,30l-16.6,16.6l-9.1-9.1l8.5-8.5c1.5-1.5,1.5-3.8,0-5.3
		c-1.5-1.5-3.8-1.5-5.3,0l-8.5,8.5l-9.1-9.1l8.5-8.5c1.5-1.5,1.5-3.8,0-5.3c-1.5-1.5-3.8-1.5-5.3,0l-8.5,8.5l-1.2-1.2
		c-1.5-1.5-3.8-1.5-5.3,0c-1.5,1.5-1.5,3.8,0,5.3L132.5,174.2z M132.5,174.2"/>
	<path class="st12" d="M59.1,203.8c0.5,0,1-0.1,1.5-0.3l32.6-13.9c0,0,0.1,0,0.1,0c0,0,0.1,0,0.1,0c0.1,0,0.1-0.1,0.2-0.1
		c0,0,0.1,0,0.1-0.1c0.1,0,0.1-0.1,0.2-0.1c0.1,0,0.1-0.1,0.2-0.1c0,0,0.1-0.1,0.1-0.1c0.1-0.1,0.2-0.2,0.3-0.2l89.9-89.9
		c3.2-3.2,5-7.5,5-12c0-4.5-1.8-8.8-5-12c-3.2-3.2-7.5-5-12-5c-4.5,0-8.8,1.8-12,5l-9.5,9.5l-80.4,80.4c-0.1,0.1-0.2,0.2-0.2,0.3
		c0,0-0.1,0.1-0.1,0.1c0,0-0.1,0.1-0.1,0.1c0,0.1-0.1,0.1-0.1,0.2c0,0,0,0.1-0.1,0.1c0,0.1-0.1,0.1-0.1,0.2c0,0,0,0.1,0,0.1l0,0.1
		c0,0-13.9,32.6-13.9,32.6c-0.6,1.4-0.3,3,0.8,4.1C57.2,203.4,58.1,203.8,59.1,203.8L59.1,203.8z M153.5,92.3l13.4,13.4l-75.2,75.2
		l-13.4-13.4L153.5,92.3z M165.6,80.2c1.8-1.8,4.2-2.8,6.7-2.8c2.5,0,4.9,1,6.7,2.8c1.8,1.8,2.8,4.2,2.8,6.7c0,2.5-1,4.9-2.8,6.7
		l-6.8,6.8L158.7,87L165.6,80.2z M74.3,174l10.9,10.9l-19,8.1L74.3,174z M74.3,174"/>
</g>
</svg>
