<?xml version="1.0" encoding="utf-8"?>
<!-- Generator: Adobe Illustrator 22.0.1, SVG Export Plug-In . SVG Version: 6.00 Build 0)  -->
<svg version="1.1" id="Layer_1" xmlns="http://www.w3.org/2000/svg" xmlns:xlink="http://www.w3.org/1999/xlink" x="0px" y="0px"
	 viewBox="0 0 244 244" style="enable-background:new 0 0 244 244;" xml:space="preserve">
<style type="text/css">
	.st0{fill:#9DCBE4;}
	.st1{fill:none;stroke:#FFFFFF;stroke-width:2;stroke-linejoin:round;stroke-miterlimit:10;}
	.st2{fill:#0F4360;}
	.st3{fill:#FFFFFF;}
	.st4{clip-path:url(#SVGID_2_);fill:#FFFFFF;}
	.st5{fill:#E1F6FF;}
	.st6{fill-rule:evenodd;clip-rule:evenodd;fill:#FD3832;}
	.st7{fill:#0B86CA;}
	.st8{fill:#23B6EA;}
	.st9{fill:#F2F2F2;}
	.st10{fill:#F14336;}
	.st11{fill:#D32E2A;}
	.st12{fill:#1D1D1D;}
</style>
<g>
	<path class="st12" d="M220,62.4c2.1,0,3.7-1.7,3.7-3.7V42.6h11.2c2.1,0,3.7-1.7,3.7-3.7V9.1c0-2.1-1.7-3.7-3.7-3.7h-29.8
		c-2.1,0-3.7,1.7-3.7,3.7v11.2H42.6V9.1c0-2.1-1.7-3.7-3.7-3.7H9.1C7,5.4,5.4,7,5.4,9.1v29.8c0,2.1,1.7,3.7,3.7,3.7h11.2v158.8H9.1
		c-2.1,0-3.7,1.7-3.7,3.7v29.8c0,2.1,1.7,3.7,3.7,3.7h29.8c2.1,0,3.7-1.7,3.7-3.7v-11.2h158.8v11.2c0,2.1,1.7,3.7,3.7,3.7h29.8
		c2.1,0,3.7-1.7,3.7-3.7v-29.8c0-2.1-1.7-3.7-3.7-3.7h-11.2V73.6c0-2.1-1.7-3.7-3.7-3.7s-3.7,1.7-3.7,3.7v127.8h-11.2
		c-2.1,0-3.7,1.7-3.7,3.7v11.2H42.6v-11.2c0-2.1-1.7-3.7-3.7-3.7H27.7V42.6h11.2c2.1,0,3.7-1.7,3.7-3.7V27.7h158.8v11.2
		c0,2.1,1.7,3.7,3.7,3.7h11.2v16.1C216.3,60.8,218,62.4,220,62.4L220,62.4z M208.9,208.9h22.3v22.3h-22.3V208.9z M35.1,231.2H12.8
		v-22.3h22.3V231.2z M35.1,35.1H12.8V12.8h22.3V35.1z M208.9,12.8h22.3v22.3h-22.3V12.8z M208.9,12.8"/>
	<path class="st12" d="M189,58.7c0-2.1-1.7-3.7-3.7-3.7H58.7c-2.1,0-3.7,1.7-3.7,3.7V122c0,2.1,1.7,3.7,3.7,3.7h126.6
		c2.1,0,3.7-1.7,3.7-3.7V58.7z M62.4,64.7l51.2,25.6L62.4,116V64.7z M74.5,62.4h95L122,86.2L74.5,62.4z M122,94.5l47.5,23.8h-95
		L122,94.5z M130.3,90.4l51.2-25.6V116L130.3,90.4z M130.3,90.4"/>
	<path class="st12" d="M114.6,181.6H58.7c-2.1,0-3.7,1.7-3.7,3.7c0,2.1,1.7,3.7,3.7,3.7h55.8c2.1,0,3.7-1.7,3.7-3.7
		C118.3,183.2,116.6,181.6,114.6,181.6L114.6,181.6z M114.6,181.6"/>
	<path class="st12" d="M185.3,181.6h-55.8c-2.1,0-3.7,1.7-3.7,3.7c0,2.1,1.7,3.7,3.7,3.7h55.8c2.1,0,3.7-1.7,3.7-3.7
		C189,183.2,187.3,181.6,185.3,181.6L185.3,181.6z M185.3,181.6"/>
	<path class="st12" d="M114.6,165.7H58.7c-2.1,0-3.7,1.7-3.7,3.7c0,2.1,1.7,3.7,3.7,3.7h55.8c2.1,0,3.7-1.7,3.7-3.7
		C118.3,167.4,116.6,165.7,114.6,165.7L114.6,165.7z M114.6,165.7"/>
	<path class="st12" d="M185.3,165.7h-55.8c-2.1,0-3.7,1.7-3.7,3.7c0,2.1,1.7,3.7,3.7,3.7h55.8c2.1,0,3.7-1.7,3.7-3.7
		C189,167.4,187.3,165.7,185.3,165.7L185.3,165.7z M185.3,165.7"/>
	<path class="st12" d="M114.6,149.9H58.7c-2.1,0-3.7,1.7-3.7,3.7c0,2.1,1.7,3.7,3.7,3.7h55.8c2.1,0,3.7-1.7,3.7-3.7
		C118.3,151.6,116.6,149.9,114.6,149.9L114.6,149.9z M114.6,149.9"/>
	<path class="st12" d="M185.3,149.9h-55.8c-2.1,0-3.7,1.7-3.7,3.7c0,2.1,1.7,3.7,3.7,3.7h55.8c2.1,0,3.7-1.7,3.7-3.7
		C189,151.6,187.3,149.9,185.3,149.9L185.3,149.9z M185.3,149.9"/>
	<path class="st12" d="M185.3,134.1H58.7c-2.1,0-3.7,1.7-3.7,3.7c0,2.1,1.7,3.7,3.7,3.7h126.6c2.1,0,3.7-1.7,3.7-3.7
		C189,135.8,187.3,134.1,185.3,134.1L185.3,134.1z M185.3,134.1"/>
</g>
</svg>
