<svg width="36" height="36" viewBox="0 0 36 36" fill="none" xmlns="http://www.w3.org/2000/svg">
<path fill-rule="evenodd" clip-rule="evenodd" d="M17.9 4.5C10.3 4.5 4.2 10.6 4.2 18.2C4.2 24.2 8.1 29.4 13.6 31.2C14.3 31.3 14.5 30.9 14.5 30.5C14.5 30.2 14.5 29.3 14.5 28.2C10.7 29 9.9 26.4 9.9 26.4C9.3 24.8 8.4 24.4 8.4 24.4C7.2 23.6 8.5 23.6 8.5 23.6C9.9 23.7 10.6 25 10.6 25C11.8 27.1 13.8 26.5 14.6 26.1C14.7 25.2 15.1 24.6 15.5 24.3C12.5 24 9.3 22.8 9.3 17.5C9.3 16 9.8 14.8 10.7 13.8C10.6 13.5 10.1 12.1 10.8 10.2C10.8 10.2 11.9 9.8 14.6 11.6C15.7 11.3 16.9 11.1 18 11.1C19.2 11.1 20.3 11.3 21.4 11.6C24 9.8 25.2 10.2 25.2 10.2C25.9 12.1 25.5 13.5 25.3 13.8C26.2 14.8 26.7 16 26.7 17.5C26.7 22.8 23.5 23.9 20.4 24.3C20.9 24.7 21.3 25.6 21.3 26.8C21.3 28.6 21.3 30.1 21.3 30.6C21.3 31 21.5 31.4 22.2 31.3C27.6 29.5 31.6 24.4 31.6 18.3C31.6 10.7 25.4 4.5 17.9 4.5Z" fill="#CE9324"/>
</svg>
