<?xml version="1.0" encoding="utf-8"?>
<!-- Generator: Adobe Illustrator 22.0.1, SVG Export Plug-In . SVG Version: 6.00 Build 0)  -->
<svg version="1.1" id="Layer_1" xmlns="http://www.w3.org/2000/svg" xmlns:xlink="http://www.w3.org/1999/xlink" x="0px" y="0px"
	 viewBox="0 0 35.8 35.8" style="enable-background:new 0 0 35.8 35.8;" xml:space="preserve">
<style type="text/css">
	.st0{fill:#9DCBE4;}
	.st1{fill:none;stroke:#FFFFFF;stroke-width:2;stroke-linejoin:round;stroke-miterlimit:10;}
	.st2{fill:#0F4360;}
	.st3{fill:#FFFFFF;}
	.st4{clip-path:url(#SVGID_2_);fill:#FFFFFF;}
	.st5{fill:#E1F6FF;}
	.st6{fill-rule:evenodd;clip-rule:evenodd;fill:#9DCBE4;}
	.st7{fill:#F2F2F2;}
	.st8{fill:#F14336;}
	.st9{fill:#D32E2A;}
	.st10{fill:#1D1D1D;}
	.st11{fill-rule:evenodd;clip-rule:evenodd;fill:#FD3832;}
	.st12{fill:#0B86CA;}
	.st13{fill:#23B6EA;}
	.st14{fill-rule:evenodd;clip-rule:evenodd;fill:#181616;}
</style>
<path class="st6" d="M17.9,4.5c-7.6,0-13.7,6.1-13.7,13.7c0,6,3.9,11.2,9.4,13c0.7,0.1,0.9-0.3,0.9-0.7c0-0.3,0-1.2,0-2.3
	c-3.8,0.8-4.6-1.8-4.6-1.8c-0.6-1.6-1.5-2-1.5-2c-1.2-0.8,0.1-0.8,0.1-0.8c1.4,0.1,2.1,1.4,2.1,1.4c1.2,2.1,3.2,1.5,4,1.1
	c0.1-0.9,0.5-1.5,0.9-1.8c-3-0.3-6.2-1.5-6.2-6.8c0-1.5,0.5-2.7,1.4-3.7c-0.1-0.3-0.6-1.7,0.1-3.6c0,0,1.1-0.4,3.8,1.4
	c1.1-0.3,2.3-0.5,3.4-0.5c1.2,0,2.3,0.2,3.4,0.5c2.6-1.8,3.8-1.4,3.8-1.4c0.7,1.9,0.3,3.3,0.1,3.6c0.9,1,1.4,2.2,1.4,3.7
	c0,5.3-3.2,6.4-6.3,6.8c0.5,0.4,0.9,1.3,0.9,2.5c0,1.8,0,3.3,0,3.8c0,0.4,0.2,0.8,0.9,0.7c5.4-1.8,9.4-6.9,9.4-13
	C31.6,10.7,25.4,4.5,17.9,4.5z"/>
</svg>
