<?xml version="1.0" encoding="utf-8"?>
<!-- Generator: Adobe Illustrator 22.0.1, SVG Export Plug-In . SVG Version: 6.00 Build 0)  -->
<svg version="1.1" id="Layer_1" xmlns="http://www.w3.org/2000/svg" xmlns:xlink="http://www.w3.org/1999/xlink" x="0px" y="0px"
	 viewBox="0 0 35.8 35.8" style="enable-background:new 0 0 35.8 35.8;" xml:space="preserve">
<style type="text/css">
	.st0{fill:#9DCBE4;}
	.st1{fill:none;stroke:#FFFFFF;stroke-width:2;stroke-linejoin:round;stroke-miterlimit:10;}
	.st2{fill:#0F4360;}
	.st3{fill:#FFFFFF;}
	.st4{clip-path:url(#SVGID_2_);fill:#FFFFFF;}
	.st5{fill:#E1F6FF;}
	.st6{fill-rule:evenodd;clip-rule:evenodd;fill:#9DCBE4;}
	.st7{fill:#F2F2F2;}
	.st8{fill:#F14336;}
	.st9{fill:#D32E2A;}
	.st10{fill:#1D1D1D;}
	.st11{fill-rule:evenodd;clip-rule:evenodd;fill:#FD3832;}
	.st12{fill:#0B86CA;}
	.st13{fill:#23B6EA;}
	.st14{fill-rule:evenodd;clip-rule:evenodd;fill:#181616;}
</style>
<path class="st0" d="M31.6,11.5c-0.2,5.2-9.6,18.2-15.1,18.2c-1.6,0-3-1.5-4.1-4.4c-2.1-7.8-3.1-12.6-4.9-12.6
	c-0.2,0-0.9,0.4-2.2,1.3l-1.3-1.7c3.4-3,6.2-5.9,8.1-6c2.1-0.2,3.4,1.3,3.9,4.4c0.6,4,1.5,10.5,3.1,10.5c1.2,0,4.3-5,4.4-6.8
	c0.3-2.6-1.9-2.7-3.9-1.9C21.2,8,23.8,5.9,27.6,6C30.4,6.1,31.8,7.9,31.6,11.5L31.6,11.5z"/>
</svg>
