<?xml version="1.0" encoding="utf-8"?>
<!-- Generator: Adobe Illustrator 22.0.1, SVG Export Plug-In . SVG Version: 6.00 Build 0)  -->
<svg version="1.1" id="Layer_1" xmlns="http://www.w3.org/2000/svg" xmlns:xlink="http://www.w3.org/1999/xlink" x="0px" y="0px"
	 viewBox="0 0 35.8 35.8" style="enable-background:new 0 0 35.8 35.8;" xml:space="preserve">
<style type="text/css">
	.st0{fill:#9DCBE4;}
	.st1{fill:none;stroke:#FFFFFF;stroke-width:2;stroke-linejoin:round;stroke-miterlimit:10;}
	.st2{fill:#0F4360;}
	.st3{fill:#FFFFFF;}
	.st4{clip-path:url(#SVGID_2_);fill:#FFFFFF;}
	.st5{fill:#E1F6FF;}
	.st6{fill-rule:evenodd;clip-rule:evenodd;fill:#9DCBE4;}
	.st7{fill:#F2F2F2;}
	.st8{fill:#F14336;}
	.st9{fill:#D32E2A;}
	.st10{fill:#1D1D1D;}
	.st11{fill-rule:evenodd;clip-rule:evenodd;fill:#FD3832;}
	.st12{fill:#0B86CA;}
	.st13{fill:#23B6EA;}
	.st14{fill-rule:evenodd;clip-rule:evenodd;fill:#181616;}
</style>
<path class="st6" d="M6,27.6c-1.1-0.4-1.9-1.1-2.3-2.2c-1-2.7-1.3-14.2,0.6-16.4C5,8.1,5.8,7.7,6.8,7.6C12,7,27.9,7.1,29.8,7.8
	c1.1,0.4,1.8,1.1,2.3,2.2c1.1,2.8,1.1,13.1-0.1,15.9c-0.3,0.7-0.9,1.3-1.6,1.6C28.4,28.4,8.5,28.4,6,27.6z M14.2,22.2
	c3.1-1.6,6.2-3.2,9.3-4.8c-3.1-1.6-6.2-3.2-9.3-4.9C14.2,15.8,14.2,19,14.2,22.2z"/>
</svg>
