<?xml version="1.0" encoding="utf-8"?>
<!-- Generator: Adobe Illustrator 22.0.1, SVG Export Plug-In . SVG Version: 6.00 Build 0)  -->
<svg version="1.1" id="Layer_1" xmlns="http://www.w3.org/2000/svg" xmlns:xlink="http://www.w3.org/1999/xlink" x="0px" y="0px"
	 viewBox="0 0 35.8 35.8" style="enable-background:new 0 0 35.8 35.8;" xml:space="preserve">
<style type="text/css">
	.st0{fill:#9DCBE4;}
	.st1{fill:none;stroke:#FFFFFF;stroke-width:2;stroke-linejoin:round;stroke-miterlimit:10;}
	.st2{fill:#0F4360;}
	.st3{fill:#FFFFFF;}
	.st4{clip-path:url(#SVGID_2_);fill:#FFFFFF;}
	.st5{fill:#E1F6FF;}
	.st6{fill-rule:evenodd;clip-rule:evenodd;fill:#9DCBE4;}
	.st7{fill:#F2F2F2;}
	.st8{fill:#F14336;}
	.st9{fill:#D32E2A;}
	.st10{fill:#1D1D1D;}
	.st11{fill-rule:evenodd;clip-rule:evenodd;fill:#FD3832;}
	.st12{fill:#0B86CA;}
	.st13{fill:#23B6EA;}
	.st14{fill-rule:evenodd;clip-rule:evenodd;fill:#181616;}
</style>
<g>
	<path class="st0" d="M5.6,13.4h5.3v17H5.6V13.4z M8.2,5c1.7,0,3.1,1.4,3.1,3.1c0,1.7-1.4,3.1-3.1,3.1c-1.7,0-3.1-1.4-3.1-3.1
		C5.1,6.4,6.5,5,8.2,5"/>
	<path class="st0" d="M14.2,13.4h5.1v2.3h0.1c0.7-1.3,2.4-2.7,5-2.7c5.4,0,6.3,3.5,6.3,8.1v9.3h-5.3v-8.3c0-2,0-4.5-2.7-4.5
		c-2.8,0-3.2,2.1-3.2,4.4v8.4h-5.3V13.4z"/>
</g>
</svg>
